WinkySans-Italic.glyphspackage
{
glyphname = exclam;
kernLeft = KO_exclam;
kernRight = KO_exclam;
layers = (
{
hints = (
{
horizontal = 1;
place = (-5,120);
type = Stem;
},
{
place = (82.5,87);
type = Stem;
},
{
place = (67,120);
type = Stem;
}
);
layerId = m005;
shapes = (
{
closed = 1;
nodes = (
(133,200,o),
(165,217,o),
(169,240,cs),
(189,365,o),
(217,490,o),
(257,615,cs),
(266,646,o),
(237,667,o),
(209,667,cs),
(181,667,o),
(142,646,o),
(139,615,cs),
(125,490,o),
(101,365,o),
(67,240,cs),
(61,217,o),
(87,200,o),
(110,200,cs)
);
},
{
closed = 1;
nodes = (
(104,-10,o),
(141,20,o),
(150,60,cs),
(158,99,o),
(134,130,o),
(95,130,cs),
(55,130,o),
(18,99,o),
(10,60,cs),
(1,20,o),
(25,-10,o),
(65,-10,cs)
);
}
);
width = 240;
},
{
hints = (
{
horizontal = 1;
place = (-5,120);
type = Stem;
},
{
place = (83,87);
type = Stem;
},
{
place = (67,120);
type = Stem;
}
);
layerId = m002;
shapes = (
{
closed = 1;
nodes = (
(161,205,o),
(211,244,o),
(220,297,cs),
(240,421,o),
(260,462,o),
(299,585,cs),
(318,646,o),
(271,692,o),
(213,692,cs),
(155,692,o),
(88,646,o),
(81,585,cs),
(68,462,o),
(72,421,o),
(38,297,cs),
(25,244,o),
(59,205,o),
(110,205,cs)
);
},
{
closed = 1;
nodes = (
(120,-25,o),
(175,20,o),
(188,80,cs),
(201,139,o),
(164,185,o),
(105,185,cs),
(45,185,o),
(-9,139,o),
(-22,80,cs),
(-35,20,o),
(1,-25,o),
(61,-25,cs)
);
}
);
width = 252;
},
{
hints = (
{
horizontal = 1;
place = (-5,120);
type = Stem;
},
{
place = (82.5,87);
type = Stem;
},
{
place = (67,120);
type = Stem;
}
);
layerId = m003;
shapes = (
{
closed = 1;
nodes = (
(130,200,o),
(154,213,o),
(157,230,cs),
(177,355,o),
(210,501,o),
(249,626,cs),
(257,651,o),
(234,667,o),
(209,667,cs),
(184,667,o),
(155,651,o),
(151,626,cs),
(138,501,o),
(109,355,o),
(75,230,cs),
(70,213,o),
(90,200,o),
(110,200,cs)
);
},
{
closed = 1;
nodes = (
(98,-10,o),
(131,16,o),
(138,50,cs),
(145,83,o),
(124,110,o),
(91,110,cs),
(57,110,o),
(25,83,o),
(18,50,cs),
(11,16,o),
(31,-10,o),
(65,-10,cs)
);
}
);
width = 240;
}
);
metricLeft = "=period";
metricRight = "=period";
note = exclam;
unicode = 33;
userData = {
KernOnSpecialSpacing = {
L = "spaced-off";
};
};
}
{
glyphname = numbersign;
kernLeft = KO_numbersign;
kernRight = KO_numbersign;
layers = (
{
hints = (
{
horizontal = 1;
place = (0,21);
target = up;
type = BottomGhost;
},
{
horizontal = 1;
place = (138,65);
type = Stem;
},
{
horizontal = 1;
place = (298,65);
type = Stem;
},
{
place = (16,454);
type = Stem;
}
);
layerId = m005;
shapes = (
{
closed = 1;
nodes = (
(109,0,ls),
(124,0,o),
(149,10,o),
(154,24,c),
(207,160,l),
(209,164,o),
(214,167,o),
(218,167,c),
(368,164,l),
(376,164,o),
(379,157,o),
(377,150,cs),
(328,48,ls),
(316,23,o),
(340,0,o),
(366,0,cs),
(367,0,ls),
(382,0,o),
(396,10,o),
(402,24,c),
(458,154,l),
(460,158,o),
(464,161,o),
(469,161,c),
(520,157,l),
(535,156,o),
(551,177,o),
(564,205,cs),
(572,225,o),
(557,242,o),
(531,242,cs),
(511,242,ls),
(504,242,o),
(499,248,o),
(503,256,c),
(574,418,l),
(575,422,o),
(579,425,o),
(583,425,cs),
(633,425,ls),
(648,425,o),
(663,435,o),
(675,463,cs),
(683,483,o),
(667,500,o),
(641,500,cs),
(625,500,ls),
(617,500,o),
(614,507,o),
(617,515,c),
(667,619,l),
(679,644,o),
(655,667,o),
(629,667,cs),
(628,667,ls),
(613,667,o),
(599,657,o),
(593,643,cs),
(535,507,ls),
(533,502,o),
(528,500,o),
(524,500,cs),
(362,500,ls),
(355,500,o),
(351,507,o),
(354,514,cs),
(399,619,ls),
(410,644,o),
(397,667,o),
(371,667,cs),
(370,667,ls),
(355,667,o),
(341,657,o),
(335,643,cs),
(277,507,ls),
(275,502,o),
(270,500,o),
(266,500,cs),
(215,500,ls),
(200,500,o),
(187,491,o),
(175,463,cs),
(166,443,o),
(180,413,o),
(206,415,c),
(223,416,l),
(231,416,o),
(234,410,o),
(231,402,c),
(163,249,l),
(162,245,o),
(158,242,o),
(154,242,cs),
(105,242,ls),
(90,242,o),
(76,233,o),
(64,205,cs),
(55,185,o),
(71,167,o),
(97,167,cs),
(112,167,ls),
(120,167,o),
(123,160,o),
(120,152,c),
(70,48,l),
(58,23,o),
(82,0,o),
(108,0,cs)
);
},
{
closed = 1;
nodes = (
(248,242,o),
(242,248,o),
(246,256,cs),
(311,414,ls),
(313,419,o),
(317,421,o),
(321,421,c),
(483,425,l),
(491,425,o),
(496,417,o),
(492,410,cs),
(421,249,ls),
(420,244,o),
(416,242,o),
(412,242,cs),
(255,242,ls)
);
}
);
width = 652;
},
{
hints = (
{
horizontal = 1;
place = (0,21);
target = up;
type = BottomGhost;
},
{
horizontal = 1;
place = (138,65);
type = Stem;
},
{
horizontal = 1;
place = (298,65);
type = Stem;
},
{
place = (16,454);
type = Stem;
}
);
layerId = m002;
shapes = (
{
closed = 1;
nodes = (
(118,-25,ls),
(153,-25,o),
(201,-3,o),
(217,38,cs),
(241,98,ls),
(246,109,o),
(256,117,o),
(268,116,c),
(280,116,l),
(297,116,o),
(306,103,o),
(299,88,c),
(295,79,l),
(274,23,o),
(320,-25,o),
(375,-25,cs),
(376,-25,ls),
(413,-25,o),
(448,0,o),
(465,36,c),
(488,90,l),
(493,102,o),
(504,108,o),
(516,108,c),
(522,107,l),
(566,104,o),
(601,143,o),
(621,192,cs),
(636,225,o),
(627,256,o),
(604,275,c),
(598,279,l),
(587,286,o),
(583,297,o),
(589,309,c),
(614,359,l),
(619,369,o),
(629,375,o),
(638,375,c),
(646,375,l),
(681,379,o),
(712,404,o),
(733,450,cs),
(744,480,o),
(740,508,o),
(722,527,c),
(717,532,l),
(708,538,o),
(707,548,o),
(711,559,cs),
(720,579,ls),
(748,639,o),
(702,692,o),
(644,692,cs),
(643,692,ls),
(606,692,o),
(571,667,o),
(554,631,c),
(528,567,l),
(523,557,o),
(513,550,o),
(502,550,cs),
(476,550,ls),
(459,550,o),
(443,560,o),
(451,579,c),
(456,593,l),
(472,646,o),
(440,692,o),
(386,692,cs),
(385,692,ls),
(348,692,o),
(313,667,o),
(296,631,c),
(269,566,l),
(264,556,o),
(255,550,o),
(244,550,cs),
(236,550,ls),
(198,550,o),
(163,526,o),
(141,476,cs),
(128,445,o),
(134,410,o),
(155,388,c),
(164,380,l),
(171,373,o),
(174,364,o),
(170,353,c),
(147,308,l),
(142,298,o),
(133,292,o),
(124,292,c),
(114,291,l),
(80,288,o),
(50,264,o),
(29,218,cs),
(18,188,o),
(22,160,o),
(41,141,c),
(45,136,l),
(53,130,o),
(56,120,o),
(51,110,cs),
(41,88,ls),
(12,28,o),
(59,-25,o),
(117,-25,cs)
);
},
{
closed = 1;
nodes = (
(341,292,o),
(331,308,o),
(340,328,cs),
(353,356,ls),
(357,365,o),
(366,373,o),
(376,373,c),
(398,373,l),
(420,374,o),
(429,357,o),
(419,336,cs),
(405,308,ls),
(401,299,o),
(390,292,o),
(380,292,cs),
(360,292,ls)
);
}
);
width = 681;
},
{
hints = (
{
horizontal = 1;
place = (0,21);
target = up;
type = BottomGhost;
},
{
horizontal = 1;
place = (138,65);
type = Stem;
},
{
horizontal = 1;
place = (298,65);
type = Stem;
},
{
place = (16,454);
type = Stem;
}
);
layerId = m003;
shapes = (
{
closed = 1;
nodes = (
(111,0,ls),
(124,0,o),
(142,7,o),
(146,16,c),
(205,172,l),
(206,175,o),
(209,177,o),
(212,177,c),
(392,173,l),
(397,173,o),
(400,168,o),
(398,163,cs),
(339,35,ls),
(330,16,o),
(346,0,o),
(368,0,cs),
(369,0,ls),
(380,0,o),
(388,6,o),
(394,17,c),
(456,166,l),
(457,169,o),
(460,171,o),
(463,171,c),
(526,167,l),
(533,166,o),
(545,181,o),
(556,208,cs),
(562,222,o),
(552,232,o),
(530,232,cs),
(493,232,ls),
(488,232,o),
(485,237,o),
(489,242,c),
(570,430,l),
(570,433,o),
(574,435,o),
(577,435,cs),
(638,435,ls),
(649,435,o),
(656,441,o),
(667,466,cs),
(673,480,o),
(664,490,o),
(642,490,cs),
(606,490,ls),
(601,490,o),
(597,495,o),
(599,500,c),
(660,632,l),
(669,651,o),
(653,667,o),
(631,667,cs),
(630,667,ls),
(619,667,o),
(611,661,o),
(605,650,c),
(540,495,l),
(540,492,o),
(536,490,o),
(533,490,cs),
(343,490,ls),
(338,490,o),
(335,494,o),
(336,500,c),
(392,632,l),
(402,652,o),
(394,667,o),
(373,667,cs),
(372,667,ls),
(361,667,o),
(353,661,o),
(347,650,c),
(282,495,l),
(282,492,o),
(278,490,o),
(275,490,cs),
(216,490,ls),
(204,490,o),
(197,485,o),
(186,460,cs),
(180,445,o),
(188,423,o),
(208,425,cs),
(243,427,ls),
(249,427,o),
(252,423,o),
(250,417,c),
(171,237,l),
(171,234,o),
(167,232,o),
(164,232,cs),
(104,232,ls),
(92,232,o),
(86,227,o),
(75,202,cs),
(69,188,o),
(78,177,o),
(100,177,cs),
(135,177,ls),
(140,177,o),
(144,172,o),
(142,167,c),
(81,35,l),
(72,16,o),
(88,0,o),
(110,0,cs)
);
},
{
closed = 1;
nodes = (
(233,232,o),
(230,236,o),
(232,241,c),
(306,425,l),
(308,428,o),
(311,430,o),
(314,430,c),
(506,435,l),
(511,435,o),
(514,430,o),
(510,425,c),
(429,237,l),
(429,234,o),
(425,232,o),
(422,232,cs),
(238,232,ls)
);
}
);
width = 652;
}
);
metricLeft = "=period";
metricRight = "=period";
note = numbersign;
unicode = 35;
}
{
glyphname = dollar;
layers = (
{
hints = (
{
horizontal = 1;
place = (-10,77);
type = Stem;
},
{
horizontal = 1;
place = (538,142);
type = Stem;
},
{
place = (35,90);
type = Stem;
},
{
place = (183,50);
type = Stem;
},
{
place = (305,109);
type = Stem;
},
{
horizontal = 1;
place = (-85,152);
type = Stem;
}
);
layerId = m003;
name = Light;
shapes = (
{
closed = 1;
nodes = (
(174,-90,ls),
(194,-90,o),
(213,-80,o),
(216,-64,cs),
(220,23,l),
(163,23,l),
(141,-64,ls),
(136,-80,o),
(153,-90,o),
(173,-90,cs)
);
},
{
ref = S;
},
{
closed = 1;
nodes = (
(320,643,l),
(340,721,ls),
(346,738,o),
(327,747,o),
(308,747,cs),
(307,747,ls),
(289,747,o),
(279,738,o),
(275,720,cs),
(264,643,l)
);
}
);
width = 431;
},
{
hints = (
{
horizontal = 1;
place = (-10,77);
type = Stem;
},
{
horizontal = 1;
place = (538,142);
type = Stem;
},
{
place = (35,90);
type = Stem;
},
{
place = (183,50);
type = Stem;
},
{
place = (305,109);
type = Stem;
},
{
horizontal = 1;
place = (-85,152);
type = Stem;
}
);
layerId = m005;
name = Regular;
shapes = (
{
closed = 1;
nodes = (
(142,-100,ls),
(166,-100,o),
(194,-87,o),
(196,-63,cs),
(200,33,l),
(125,33,l),
(101,-63,ls),
(95,-87,o),
(117,-100,o),
(141,-100,cs)
);
},
{
ref = S;
},
{
closed = 1;
nodes = (
(297,633,l),
(320,720,ls),
(328,745,o),
(304,757,o),
(280,757,cs),
(279,757,ls),
(255,757,o),
(239,744,o),
(235,720,cs),
(222,633,l)
);
}
);
width = 456;
},
{
hints = (
{
horizontal = 1;
place = (-10,77);
type = Stem;
},
{
horizontal = 1;
place = (538,142);
type = Stem;
},
{
place = (35,90);
type = Stem;
},
{
place = (183,50);
type = Stem;
},
{
place = (305,109);
type = Stem;
},
{
horizontal = 1;
place = (-85,152);
type = Stem;
}
);
layerId = m002;
name = Black;
shapes = (
{
closed = 1;
nodes = (
(184,-150,ls),
(238,-150,o),
(292,-113,o),
(296,-58,cs),
(304,83,l),
(139,83,l),
(101,-58,ls),
(87,-113,o),
(129,-150,o),
(183,-150,cs)
);
},
{
ref = S;
},
{
closed = 1;
nodes = (
(384,583,l),
(420,714,ls),
(435,770,o),
(393,807,o),
(338,807,cs),
(337,807,ls),
(285,807,o),
(244,772,o),
(235,720,cs),
(214,583,l)
);
}
);
width = 492;
}
);
note = dollar;
unicode = 36;
userData = {
KernOnSpecialSpacing = {
L = symbols;
R = symbols;
};
};
}
{
glyphname = percent;
kernLeft = KO_percent;
layers = (
{
hints = (
{
horizontal = 1;
place = (-10,41);
type = Stem;
},
{
horizontal = 1;
place = (325,41);
type = Stem;
},
{
horizontal = 1;
place = (644,41);
type = Stem;
},
{
place = (2,110);
type = Stem;
},
{
place = (244,110);
type = Stem;
},
{
place = (419,98);
type = Stem;
},
{
place = (649,98);
type = Stem;
},
{
horizontal = 1;
place = (0,21);
target = up;
type = BottomGhost;
},
{
horizontal = 1;
place = (309,41);
type = Stem;
}
);
layerId = m005;
shapes = (
{
closed = 1;
nodes = (
(135,-46,o),
(173,-42,o),
(189,-19,cs),
(341,204,o),
(510,417,o),
(680,630,cs),
(697,650,o),
(695,669,o),
(677,683,cs),
(676,684,ls),
(658,698,o),
(628,693,o),
(611,671,cs),
(451,458,o),
(282,246,o),
(111,33,cs),
(95,13,o),
(97,-17,o),
(115,-31,cs),
(116,-32,ls)
);
},
{
closed = 1;
nodes = (
(325,325,o),
(389,420,o),
(403,505,cs),
(416,590,o),
(385,695,o),
(257,695,cs),
(129,695,o),
(64,590,o),
(51,505,cs),
(37,420,o),
(66,305,o),
(196,315,cs)
);
},
{
closed = 1;
nodes = (
(164,372,o),
(146,417,o),
(161,505,cs),
(174,593,o),
(189,634,o),
(247,634,cs),
(288,634,o),
(306,593,o),
(293,505,cs),
(279,422,o),
(253,381,o),
(205,376,cs)
);
},
{
closed = 1;
nodes = (
(672,-21,o),
(724,60,o),
(741,164,cs),
(757,267,o),
(729,360,o),
(608,360,cs),
(502,360,o),
(430,273,o),
(414,170,cs),
(392,38,o),
(454,-19,o),
(547,-20,cs)
);
},
{
closed = 1;
nodes = (
(510,41,o),
(499,87,o),
(512,170,cs),
(526,258,o),
(557,299,o),
(598,299,cs),
(639,299,o),
(657,252,o),
(643,164,cs),
(628,75,o),
(598,41,o),
(557,41,cs)
);
}
);
width = 784;
},
{
hints = (
{
horizontal = 1;
place = (-10,41);
type = Stem;
},
{
horizontal = 1;
place = (325,41);
type = Stem;
},
{
horizontal = 1;
place = (644,41);
type = Stem;
},
{
place = (2,110);
type = Stem;
},
{
place = (244,110);
type = Stem;
},
{
place = (419,98);
type = Stem;
},
{
place = (649,98);
type = Stem;
},
{
horizontal = 1;
place = (0,21);
target = up;
type = BottomGhost;
},
{
horizontal = 1;
place = (309,41);
type = Stem;
}
);
layerId = m002;
shapes = (
{
closed = 1;
nodes = (
(159,-76,o),
(216,-66,o),
(240,-31,cs),
(391,192,o),
(559,404,o),
(729,616,cs),
(750,643,o),
(755,678,o),
(726,702,cs),
(725,703,ls),
(692,728,o),
(646,716,o),
(621,684,cs),
(461,471,o),
(293,259,o),
(123,47,cs),
(100,18,o),
(98,-26,o),
(126,-50,cs),
(127,-51,ls)
);
},
{
closed = 1;
nodes = (
(340,301,o),
(413,411,o),
(428,505,cs),
(442,598,o),
(406,720,o),
(260,720,cs),
(114,720,o),
(40,598,o),
(26,505,cs),
(11,412,o),
(44,278,o),
(194,290,cs)
);
},
{
closed = 1;
nodes = (
(186,399,o),
(173,428,o),
(186,505,cs),
(199,589,o),
(208,609,o),
(243,609,cs),
(266,609,o),
(280,582,o),
(268,505,cs),
(256,432,o),
(238,404,o),
(207,401,cs)
);
},
{
closed = 1;
nodes = (
(747,-46,o),
(807,51,o),
(826,164,cs),
(844,275,o),
(812,385,o),
(672,385,cs),
(550,385,o),
(467,285,o),
(449,170,cs),
(425,22,o),
(497,-44,o),
(604,-45,cs)
);
},
{
closed = 1;
nodes = (
(593,66,o),
(585,97,o),
(597,170,cs),
(609,247,o),
(632,274,o),
(655,274,cs),
(677,274,o),
(690,242,o),
(678,164,cs),
(666,87,o),
(645,66,o),
(621,66,cs)
);
}
);
width = 844;
},
{
hints = (
{
horizontal = 1;
place = (-10,41);
type = Stem;
},
{
horizontal = 1;
place = (325,41);
type = Stem;
},
{
horizontal = 1;
place = (644,41);
type = Stem;
},
{
place = (2,110);
type = Stem;
},
{
place = (244,110);
type = Stem;
},
{
place = (419,98);
type = Stem;
},
{
place = (649,98);
type = Stem;
},
{
horizontal = 1;
place = (0,21);
target = up;
type = BottomGhost;
},
{
horizontal = 1;
place = (309,41);
type = Stem;
}
);
layerId = m003;
shapes = (
{
closed = 1;
nodes = (
(133,-35,o),
(165,-31,o),
(176,-14,cs),
(328,209,o),
(498,422,o),
(668,635,cs),
(681,651,o),
(679,664,o),
(665,675,cs),
(664,676,l),
(648,686,o),
(625,682,o),
(614,666,cs),
(454,453,o),
(285,241,o),
(114,28,cs),
(102,12,o),
(103,-13,o),
(117,-23,cs),
(117,-24,ls)
);
},
{
closed = 1;
nodes = (
(315,334,o),
(374,423,o),
(388,505,cs),
(400,587,o),
(371,685,o),
(250,685,cs),
(129,685,o),
(68,587,o),
(56,505,cs),
(42,423,o),
(71,316,o),
(191,325,cs)
);
},
{
closed = 1;
nodes = (
(150,361,o),
(131,412,o),
(146,505,cs),
(160,595,o),
(176,644,o),
(243,644,cs),
(291,644,o),
(312,597,o),
(298,505,cs),
(283,419,o),
(255,372,o),
(200,366,cs)
);
},
{
closed = 1;
nodes = (
(662,-11,o),
(710,63,o),
(726,164,cs),
(742,264,o),
(716,350,o),
(602,350,cs),
(502,350,o),
(434,268,o),
(419,170,cs),
(399,44,o),
(456,-9,o),
(544,-10,cs)
);
},
{
closed = 1;
nodes = (
(496,31,o),
(483,83,o),
(497,170,cs),
(511,262,o),
(547,309,o),
(595,309,cs),
(644,309,o),
(663,256,o),
(648,164,cs),
(632,70,o),
(599,31,o),
(551,31,cs)
);
}
);
width = 774;
}
);
metricLeft = "=S";
metricRight = "=S";
note = percent;
unicode = 37;
userData = {
KernOnSpecialSpacing = {
L = "spaced-off";
};
};
}
{
glyphname = ampersand;
layers = (
{
hints = (
{
horizontal = 1;
place = (-10,64);
type = Stem;
},
{
horizontal = 1;
place = (248,65);
type = Stem;
},
{
horizontal = 1;
place = (560,70);
type = Stem;
},
{
place = (45,90);
type = Stem;
},
{
place = (371,95);
type = Stem;
},
{
place = (17,95);
type = Stem;
}
);
layerId = m005;
shapes = (
{
closed = 1;
nodes = (
(289,-20,o),
(353,-2,o),
(407,43,cs),
(413,47,o),
(417,47,o),
(421,43,cs),
(434,31,o),
(445,20,o),
(458,8,cs),
(480,-11,o),
(514,1,o),
(539,22,cs),
(542,25,ls),
(568,47,o),
(579,102,o),
(549,112,cs),
(535,117,o),
(517,127,o),
(497,140,cs),
(492,143,o),
(491,148,o),
(494,154,cs),
(511,189,o),
(526,230,o),
(537,278,cs),
(547,318,o),
(515,340,o),
(492,340,cs),
(489,340,ls),
(466,340,o),
(452,327,o),
(446,302,cs),
(440,269,o),
(434,242,o),
(425,218,cs),
(422,210,o),
(416,207,o),
(411,213,cs),
(369,257,o),
(334,302,o),
(303,347,cs),
(300,353,o),
(301,358,o),
(308,361,cs),
(370,391,o),
(456,432,o),
(481,525,cs),
(505,617,o),
(443,687,o),
(333,677,cs),
(221,667,o),
(148,607,o),
(136,525,cs),
(129,483,o),
(137,439,o),
(156,395,cs),
(158,389,o),
(156,384,o),
(149,381,cs),
(68,336,o),
(18,279,o),
(4,194,cs),
(-16,64,o),
(71,-20,o),
(221,-20,cs)
);
},
{
closed = 1;
nodes = (
(147,75,o),
(103,124,o),
(114,194,cs),
(123,247,o),
(152,276,o),
(194,302,cs),
(199,305,o),
(204,305,o),
(208,300,cs),
(256,226,o),
(279,202,o),
(351,117,cs),
(355,113,o),
(355,107,o),
(349,103,cs),
(316,81,o),
(278,75,o),
(236,75,cs)
);
},
{
closed = 1;
nodes = (
(258,430,o),
(254,432,o),
(251,437,cs),
(239,468,o),
(231,498,o),
(236,525,cs),
(242,564,o),
(266,602,o),
(321,602,cs),
(376,602,o),
(387,564,o),
(381,525,cs),
(374,483,o),
(324,458,o),
(265,433,cs)
);
}
);
width = 588;
},
{
hints = (
{
horizontal = 1;
place = (-10,64);
type = Stem;
},
{
horizontal = 1;
place = (248,65);
type = Stem;
},
{
horizontal = 1;
place = (560,70);
type = Stem;
},
{
place = (45,90);
type = Stem;
},
{
place = (371,95);
type = Stem;
},
{
place = (17,95);
type = Stem;
}
);
layerId = m002;
shapes = (
{
closed = 1;
nodes = (
(321,-70,o),
(384,-55,o),
(440,-22,cs),
(446,-19,o),
(451,-19,o),
(454,-22,cs),
(459,-25,o),
(462,-29,o),
(465,-32,cs),
(502,-63,o),
(562,-56,o),
(612,-13,cs),
(616,-10,ls),
(671,37,o),
(681,137,o),
(617,160,cs),
(613,161,o),
(610,163,o),
(605,165,cs),
(600,168,o),
(599,172,o),
(601,178,cs),
(612,207,o),
(623,240,o),
(631,275,cs),
(646,343,o),
(607,390,o),
(555,390,cs),
(552,390,ls),
(512,390,o),
(479,367,o),
(467,312,cs),
(467,310,o),
(465,305,o),
(464,303,cs),
(463,295,o),
(455,295,o),
(433,322,cs),
(430,326,o),
(428,330,o),
(425,334,cs),
(420,339,o),
(422,344,o),
(428,348,cs),
(487,381,o),
(550,433,o),
(574,520,cs),
(606,644,o),
(521,740,o),
(380,727,cs),
(245,715,o),
(147,635,o),
(130,525,cs),
(124,488,o),
(127,449,o),
(138,411,cs),
(140,406,o),
(138,401,o),
(132,397,cs),
(61,347,o),
(12,284,o),
(-2,194,cs),
(-28,34,o),
(82,-70,o),
(257,-70,cs)
);
},
{
closed = 1;
nodes = (
(228,125,o),
(201,152,o),
(208,194,cs),
(210,208,o),
(215,219,o),
(221,228,cs),
(225,234,o),
(231,234,o),
(235,228,cs),
(258,196,o),
(283,165,o),
(306,138,cs),
(311,132,o),
(309,125,o),
(300,125,cs),
(296,125,o),
(293,125,o),
(289,125,cs)
);
},
{
closed = 1;
nodes = (
(336,497,o),
(330,499,o),
(329,505,cs),
(328,512,o),
(328,519,o),
(330,525,cs),
(333,547,o),
(344,552,o),
(356,552,cs),
(368,552,o),
(379,548,o),
(375,525,cs),
(373,518,o),
(362,511,o),
(342,500,cs)
);
}
);
width = 696;
},
{
hints = (
{
horizontal = 1;
place = (-10,64);
type = Stem;
},
{
horizontal = 1;
place = (248,65);
type = Stem;
},
{
horizontal = 1;
place = (560,70);
type = Stem;
},
{
place = (45,90);
type = Stem;
},
{
place = (371,95);
type = Stem;
},
{
place = (17,95);
type = Stem;
}
);
layerId = m003;
shapes = (
{
closed = 1;
nodes = (
(286,-10,o),
(351,10,o),
(404,57,cs),
(408,60,o),
(412,60,o),
(414,57,cs),
(430,41,o),
(445,27,o),
(457,16,cs),
(475,1,o),
(504,10,o),
(526,29,cs),
(530,32,ls),
(551,50,o),
(558,95,o),
(538,102,cs),
(520,109,o),
(498,121,o),
(474,137,cs),
(472,140,o),
(471,143,o),
(473,147,cs),
(493,184,o),
(507,227,o),
(520,279,cs),
(527,311,o),
(503,330,o),
(484,330,cs),
(481,330,ls),
(464,330,o),
(453,321,o),
(449,302,cs),
(441,259,o),
(431,224,o),
(419,195,cs),
(416,190,o),
(412,188,o),
(409,192,cs),
(372,227,o),
(306,311,o),
(279,354,cs),
(276,358,o),
(278,361,o),
(282,364,cs),
(346,393,o),
(438,432,o),
(464,526,cs),
(486,612,o),
(430,676,o),
(325,667,cs),
(219,657,o),
(151,602,o),
(139,525,cs),
(132,482,o),
(142,435,o),
(163,388,cs),
(165,384,o),
(163,381,o),
(159,379,cs),
(72,334,o),
(21,279,o),
(7,194,cs),
(-12,70,o),
(71,-10,o),
(216,-10,cs)
);
},
{
closed = 1;
nodes = (
(133,65,o),
(85,118,o),
(97,194,cs),
(108,257,o),
(144,289,o),
(195,318,cs),
(197,320,o),
(201,319,o),
(203,316,cs),
(253,236,o),
(280,208,o),
(361,115,cs),
(363,112,o),
(363,108,o),
(359,105,cs),
(322,73,o),
(277,65,o),
(228,65,cs)
);
},
{
closed = 1;
nodes = (
(244,417,o),
(241,418,o),
(240,422,cs),
(222,458,o),
(213,494,o),
(219,525,cs),
(226,567,o),
(253,612,o),
(315,612,cs),
(377,612,o),
(391,567,o),
(384,525,cs),
(375,474,o),
(315,446,o),
(248,419,cs)
);
}
);
width = 580;
}
);
metricLeft = "=|B";
metricRight = "=L";
note = ampersand;
unicode = 38;
userData = {
KernOnSpecialSpacing = {
L = symbols;
R = symbols;
};
};
}
{
glyphname = quotesingle;
kernLeft = KO_quotesingle;
kernRight = KO_quotesingle;
layers = (
{
hints = (
{
horizontal = 1;
place = (500,200);
type = Stem;
},
{
place = (-17,62.5);
type = Stem;
}
);
layerId = m005;
shapes = (
{
closed = 1;
nodes = (
(149,500,o),
(169,517,o),
(174,540,cs),
(197,646,ls),
(204,678,o),
(186,700,o),
(158,700,cs),
(130,700,o),
(106,678,o),
(103,646,cs),
(90,540,ls),
(87,517,o),
(103,500,o),
(126,500,cs)
);
}
);
width = 174;
},
{
hints = (
{
horizontal = 1;
place = (500,200);
type = Stem;
},
{
place = (-13,62.5);
type = Stem;
}
);
layerId = m002;
shapes = (
{
closed = 1;
nodes = (
(184,450,o),
(228,488,o),
(240,538,cs),
(256,608,ls),
(269,669,o),
(233,715,o),
(176,715,cs),
(119,715,o),
(67,669,o),
(62,608,cs),
(56,538,ls),
(52,488,o),
(84,450,o),
(134,450,cs)
);
}
);
width = 204;
},
{
hints = (
{
horizontal = 1;
place = (500,200);
type = Stem;
},
{
place = (-17,62.5);
type = Stem;
}
);
layerId = m003;
shapes = (
{
closed = 1;
nodes = (
(145,500,o),
(159,511,o),
(163,530,cs),
(188,657,ls),
(194,684,o),
(182,700,o),
(158,700,cs),
(134,700,o),
(118,684,o),
(114,657,cs),
(99,530,ls),
(97,511,o),
(107,500,o),
(126,500,cs)
);
}
);
width = 174;
}
);
metricLeft = "=period";
metricRight = "=period";
note = quotesingle;
unicode = 39;
userData = {
KernOnSpecialSpacing = {
L = quotes;
R = quotes;
};
};
}
{
glyphname = parenleft;
kernLeft = KO_parenleft;
kernRight = KO_parenleft;
layers = (
{
hints = (
{
horizontal = 1;
place = (-80,827);
type = Stem;
},
{
place = (16,100);
type = Stem;
}
);
layerId = m005;
shapes = (
{
closed = 1;
nodes = (
(203,496,o),
(266,617,o),
(357,677,cs),
(371,686,o),
(372,699,o),
(364,717,cs),
(363,719,ls),
(355,737,o),
(339,743,o),
(319,732,cs),
(199,664,o),
(106,513,o),
(77,334,cs),
(48,155,o),
(93,3,o),
(190,-65,cs),
(207,-76,o),
(224,-70,o),
(238,-52,cs),
(240,-50,ls),
(254,-32,o),
(253,-17,o),
(239,-3,cs),
(174,59,o),
(152,178,o),
(177,334,cs)
);
}
);
width = 331;
},
{
hints = (
{
horizontal = 1;
place = (-80,827);
type = Stem;
},
{
place = (16,100);
type = Stem;
}
);
layerId = m002;
shapes = (
{
closed = 1;
nodes = (
(253,497,o),
(310,599,o),
(396,646,cs),
(428,663,o),
(435,691,o),
(414,737,cs),
(411,743,ls),
(390,786,o),
(353,804,o),
(305,778,cs),
(164,702,o),
(59,531,o),
(27,334,cs),
(-5,137,o),
(46,-34,o),
(163,-111,cs),
(203,-137,o),
(246,-119,o),
(279,-76,cs),
(284,-70,ls),
(321,-24,o),
(309,4,o),
(273,39,cs),
(220,91,o),
(204,188,o),
(227,334,cs)
);
}
);
width = 364;
},
{
hints = (
{
horizontal = 1;
place = (-80,827);
type = Stem;
},
{
place = (16,100);
type = Stem;
}
);
layerId = m003;
shapes = (
{
closed = 1;
nodes = (
(194,498,o),
(260,623,o),
(354,685,cs),
(362,691,o),
(362,696,o),
(354,712,cs),
(354,714,ls),
(347,729,o),
(339,732,o),
(324,723,cs),
(207,657,o),
(117,511,o),
(88,334,cs),
(59,157,o),
(103,10,o),
(197,-56,cs),
(211,-65,o),
(221,-62,o),
(232,-46,c),
(235,-44,l),
(245,-30,o),
(245,-22,o),
(233,-11,cs),
(165,53,o),
(143,176,o),
(168,334,cs)
);
}
);
width = 328;
}
);
metricLeft = "=n";
metricRight = "=n/2";
note = parenleft;
unicode = 40;
userData = {
KernOnSpecialSpacing = {
R = parenthesis;
};
};
}
{
glyphname = parenright;
kernLeft = KO_parenright;
kernRight = KO_parenright;
layers = (
{
hints = (
{
horizontal = 1;
place = (747,-827);
type = Stem;
},
{
place = (341,-100);
type = Stem;
}
);
layerId = m005;
shapes = (
{
closed = 1;
nodes = (
(154,171,o),
(91,50,o),
(0,-10,cs),
(-14,-19,o),
(-15,-32,o),
(-7,-50,cs),
(-6,-52,ls),
(2,-70,o),
(18,-76,o),
(38,-65,cs),
(158,3,o),
(251,154,o),
(280,333,cs),
(309,512,o),
(264,664,o),
(167,732,cs),
(150,743,o),
(133,737,o),
(119,719,cs),
(117,717,ls),
(103,699,o),
(104,684,o),
(118,670,cs),
(183,608,o),
(205,489,o),
(180,333,cs)
);
}
);
width = 332;
},
{
hints = (
{
horizontal = 1;
place = (747,-827);
type = Stem;
},
{
place = (374,-100);
type = Stem;
}
);
layerId = m002;
shapes = (
{
closed = 1;
nodes = (
(137,170,o),
(80,68,o),
(-6,21,cs),
(-38,4,o),
(-45,-24,o),
(-24,-70,cs),
(-21,-76,ls),
(0,-119,o),
(37,-137,o),
(85,-111,cs),
(226,-35,o),
(331,136,o),
(363,333,cs),
(395,530,o),
(344,701,o),
(227,778,cs),
(187,804,o),
(144,786,o),
(111,743,cs),
(106,737,ls),
(69,691,o),
(81,663,o),
(117,628,cs),
(170,576,o),
(186,479,o),
(163,333,cs)
);
}
);
width = 364;
},
{
hints = (
{
horizontal = 1;
place = (747,-827);
type = Stem;
},
{
place = (338,-100);
type = Stem;
}
);
layerId = m003;
shapes = (
{
closed = 1;
nodes = (
(160,169,o),
(94,44,o),
(0,-18,cs),
(-8,-24,o),
(-8,-29,o),
(0,-45,cs),
(0,-47,ls),
(7,-62,o),
(15,-65,o),
(30,-56,cs),
(147,10,o),
(237,156,o),
(266,333,cs),
(295,510,o),
(251,657,o),
(157,723,cs),
(143,732,o),
(133,729,o),
(122,713,c),
(119,711,l),
(109,697,o),
(109,689,o),
(121,678,cs),
(189,614,o),
(211,491,o),
(186,333,cs)
);
}
);
width = 328;
}
);
metricLeft = "=n/2";
metricRight = "=n";
unicode = 41;
userData = {
KernOnSpecialSpacing = {
L = parenthesis;
};
};
}
{
glyphname = asterisk;
kernLeft = KO_asterisk;
kernRight = KO_asterisk;
layers = (
{
hints = (
{
horizontal = 1;
place = (350,400);
type = Stem;
},
{
place = (155,65);
type = Stem;
}
);
layerId = m005;
shapes = (
{
closed = 1;
nodes = (
(265,350,o),
(295,367,o),
(297,388,cs),
(297,405,o),
(299,422,o),
(301,439,cs),
(300,445,o),
(307,448,o),
(311,445,cs),
(327,434,o),
(341,424,o),
(354,414,cs),
(370,402,o),
(398,420,o),
(409,437,cs),
(424,457,o),
(422,488,o),
(404,499,cs),
(392,508,o),
(378,516,o),
(365,524,cs),
(360,526,o),
(361,532,o),
(366,535,cs),
(383,544,o),
(399,552,o),
(415,561,cs),
(435,571,o),
(445,591,o),
(436,612,cs),
(429,632,o),
(409,649,o),
(389,636,cs),
(369,623,o),
(349,612,o),
(331,601,cs),
(326,598,o),
(321,601,o),
(322,606,cs),
(325,625,o),
(328,643,o),
(331,662,cs),
(338,704,o),
(300,700,o),
(300,700,c),
(278,700,o),
(248,683,o),
(246,662,cs),
(245,643,o),
(243,624,o),
(242,605,cs),
(241,600,o),
(236,597,o),
(232,599,cs),
(217,608,o),
(203,617,o),
(188,626,cs),
(171,637,o),
(151,635,o),
(133,612,cs),
(118,593,o),
(124,571,o),
(140,561,cs),
(156,551,o),
(171,540,o),
(187,530,cs),
(190,527,o),
(190,523,o),
(185,520,cs),
(167,510,o),
(146,499,o),
(128,489,cs),
(107,478,o),
(98,454,o),
(106,437,cs),
(115,420,o),
(133,401,o),
(153,414,cs),
(170,425,o),
(188,436,o),
(205,446,cs),
(211,450,o),
(216,447,o),
(214,440,cs),
(210,423,o),
(206,405,o),
(202,388,cs),
(196,367,o),
(222,350,o),
(244,350,cs)
);
}
);
width = 395;
},
{
hints = (
{
horizontal = 1;
place = (350,400);
type = Stem;
},
{
place = (155,65);
type = Stem;
}
);
layerId = m002;
shapes = (
{
closed = 1;
nodes = (
(268,325,o),
(304,351,o),
(310,390,cs),
(311,394,o),
(309,395,o),
(312,397,cs),
(314,400,o),
(317,399,o),
(322,395,cs),
(323,394,o),
(324,394,o),
(325,393,cs),
(353,372,o),
(392,389,o),
(417,425,cs),
(441,460,o),
(439,501,o),
(408,520,cs),
(405,522,o),
(403,523,o),
(400,525,cs),
(397,528,o),
(399,533,o),
(402,535,cs),
(406,537,o),
(408,538,o),
(411,540,cs),
(446,561,o),
(463,589,o),
(449,624,cs),
(435,664,o),
(402,679,o),
(365,657,cs),
(360,654,o),
(356,652,o),
(352,649,cs),
(346,645,o),
(342,648,o),
(342,654,cs),
(343,657,o),
(343,659,o),
(344,662,cs),
(351,708,o),
(329,727,o),
(292,725,cs),
(249,724,o),
(211,698,o),
(209,660,cs),
(208,656,o),
(208,653,o),
(208,649,cs),
(208,644,o),
(203,641,o),
(198,643,cs),
(196,645,o),
(194,646,o),
(192,647,cs),
(161,668,o),
(131,662,o),
(103,625,cs),
(76,592,o),
(81,559,o),
(111,540,cs),
(116,537,o),
(122,534,o),
(126,530,cs),
(131,528,o),
(128,521,o),
(124,519,cs),
(118,516,o),
(112,513,o),
(107,510,cs),
(70,491,o),
(56,456,o),
(70,423,cs),
(88,387,o),
(116,372,o),
(153,394,cs),
(155,395,o),
(158,398,o),
(161,399,cs),
(164,400,o),
(166,399,o),
(167,397,cs),
(167,395,o),
(165,390,o),
(165,390,cs),
(155,352,o),
(185,325,o),
(227,325,cs)
);
}
);
width = 377;
},
{
hints = (
{
horizontal = 1;
place = (350,400);
type = Stem;
},
{
place = (155,65);
type = Stem;
}
);
layerId = m003;
shapes = (
{
closed = 1;
nodes = (
(274,350,o),
(296,362,o),
(298,377,cs),
(298,404,o),
(301,432,o),
(304,461,cs),
(304,465,o),
(309,467,o),
(311,465,cs),
(337,445,o),
(361,427,o),
(382,412,cs),
(392,404,o),
(411,417,o),
(421,432,cs),
(433,449,o),
(433,472,o),
(418,480,cs),
(397,494,o),
(373,510,o),
(347,525,cs),
(345,527,o),
(346,530,o),
(348,531,cs),
(378,549,o),
(409,566,o),
(435,580,cs),
(451,588,o),
(457,600,o),
(451,617,cs),
(443,635,o),
(431,647,o),
(417,638,cs),
(388,620,o),
(358,601,o),
(326,582,cs),
(323,580,o),
(320,582,o),
(321,585,cs),
(325,614,o),
(330,643,o),
(334,672,cs),
(338,695,o),
(328,701,o),
(312,700,cs),
(293,700,o),
(271,688,o),
(269,673,cs),
(269,646,o),
(266,617,o),
(263,586,cs),
(262,583,o),
(259,582,o),
(256,583,cs),
(233,598,o),
(208,612,o),
(186,627,cs),
(171,637,o),
(160,636,o),
(145,617,cs),
(133,602,o),
(136,588,o),
(150,580,cs),
(173,565,o),
(200,547,o),
(226,528,cs),
(228,526,o),
(228,524,o),
(224,522,cs),
(192,503,o),
(161,485,o),
(132,470,cs),
(115,461,o),
(109,446,o),
(115,432,cs),
(124,417,o),
(135,404,o),
(149,412,cs),
(177,430,o),
(207,448,o),
(236,466,cs),
(240,468,o),
(243,466,o),
(243,462,cs),
(236,433,o),
(229,404,o),
(223,377,cs),
(219,362,o),
(237,350,o),
(256,350,cs)
);
}
);
width = 415;
}
);
metricLeft = "=period";
metricRight = period;
note = asterisk;
unicode = 42;
userData = {
KernOnSpecialSpacing = {
L = quotes;
R = quotes;
};
};
}
{
glyphname = plus;
kernLeft = KO_plus;
kernRight = KO_plus;
layers = (
{
hints = (
{
horizontal = 1;
place = (218,65);
type = Stem;
},
{
place = (208,65);
type = Stem;
}
);
layerId = m005;
shapes = (
{
closed = 1;
nodes = (
(293,376,o),
(283,335,o),
(275,293,cs),
(274,286,o),
(270,283,o),
(263,283,cs),
(221,283,o),
(179,283,o),
(137,283,cs),
(117,283,o),
(103,271,o),
(100,251,cs),
(100,250,ls),
(97,230,o),
(105,208,o),
(125,208,cs),
(167,208,o),
(211,217,o),
(253,218,cs),
(259,218,o),
(262,214,o),
(261,208,cs),
(253,166,o),
(238,124,o),
(231,82,cs),
(228,62,o),
(247,50,o),
(267,50,cs),
(268,50,ls),
(288,50,o),
(318,63,o),
(316,82,cs),
(313,124,o),
(319,166,o),
(326,208,cs),
(328,215,o),
(331,218,o),
(338,218,cs),
(380,218,o),
(421,217,o),
(461,208,cs),
(480,204,o),
(497,230,o),
(500,250,cs),
(500,251,ls),
(503,271,o),
(493,283,o),
(473,283,cs),
(431,283,o),
(390,283,o),
(348,283,cs),
(342,283,o),
(339,287,o),
(340,293,cs),
(348,335,o),
(363,376,o),
(370,418,cs),
(373,438,o),
(354,450,o),
(334,450,cs),
(333,450,ls),
(313,450,o),
(310,438,o),
(305,418,cs)
);
}
);
width = 600;
},
{
hints = (
{
horizontal = 1;
place = (218,65);
type = Stem;
},
{
place = (208,65);
type = Stem;
}
);
layerId = m002;
shapes = (
{
closed = 1;
nodes = (
(271,387,o),
(263,353,o),
(254,318,cs),
(253,311,o),
(249,308,o),
(242,308,cs),
(209,308,o),
(175,308,o),
(141,308,cs),
(107,308,o),
(80,285,o),
(75,251,cs),
(75,250,ls),
(69,213,o),
(90,183,o),
(122,183,cs),
(156,183,o),
(189,188,o),
(221,191,cs),
(229,192,o),
(232,188,o),
(230,181,cs),
(222,149,o),
(212,116,o),
(206,82,cs),
(200,50,o),
(227,25,o),
(264,25,cs),
(265,25,ls),
(304,25,o),
(344,53,o),
(341,88,cs),
(339,119,o),
(342,150,o),
(348,183,cs),
(348,189,o),
(353,193,o),
(359,193,cs),
(391,193,o),
(421,190,o),
(452,184,cs),
(489,176,o),
(520,215,o),
(525,250,cs),
(525,251,ls),
(530,285,o),
(511,308,o),
(477,308,cs),
(444,308,o),
(411,308,o),
(378,308,cs),
(372,308,o),
(369,312,o),
(370,318,cs),
(379,350,o),
(389,384,o),
(395,418,cs),
(401,450,o),
(374,475,o),
(337,475,cs),
(336,475,ls),
(299,475,o),
(289,450,o),
(280,421,cs)
);
}
);
width = 600;
},
{
hints = (
{
horizontal = 1;
place = (218,65);
type = Stem;
},
{
place = (208,65);
type = Stem;
}
);
layerId = m003;
shapes = (
{
closed = 1;
nodes = (
(303,371,o),
(290,326,o),
(282,280,cs),
(282,275,o),
(280,273,o),
(275,273,cs),
(229,273,o),
(182,273,o),
(136,273,cs),
(122,273,o),
(112,265,o),
(110,251,cs),
(110,250,ls),
(108,234,o),
(114,218,o),
(127,218,cs),
(172,218,o),
(219,228,o),
(267,228,cs),
(272,228,o),
(274,226,o),
(274,221,cs),
(266,173,o),
(248,127,o),
(241,82,cs),
(239,69,o),
(254,60,o),
(270,60,cs),
(271,60,ls),
(287,60,o),
(307,70,o),
(306,80,cs),
(302,127,o),
(311,175,o),
(319,221,cs),
(319,226,o),
(321,228,o),
(326,228,cs),
(372,228,o),
(419,228,o),
(465,218,cs),
(476,216,o),
(488,234,o),
(490,250,cs),
(490,251,ls),
(492,265,o),
(486,273,o),
(472,273,cs),
(426,273,o),
(380,273,o),
(334,273,cs),
(329,273,o),
(327,275,o),
(327,280,cs),
(335,327,o),
(353,373,o),
(360,418,cs),
(362,431,o),
(347,440,o),
(331,440,cs),
(330,440,ls),
(320,440,o),
(320,438,o),
(314,417,cs)
);
}
);
width = 600;
}
);
note = plus;
unicode = 43;
userData = {
KernOnSpecialSpacing = {
L = math;
R = math;
};
};
}
{
glyphname = comma;
kernLeft = KO_comma;
layers = (
{
hints = (
{
horizontal = 1;
place = (-150,35);
type = Stem;
},
{
horizontal = 1;
place = (-5,120);
type = Stem;
},
{
place = (125,51);
type = Stem;
},
{
horizontal = 1;
place = (-5,120);
type = Stem;
},
{
place = (45,121);
type = Stem;
}
);
layerId = m005;
shapes = (
{
closed = 1;
nodes = (
(149,-10,o),
(184,20,o),
(191,60,cs),
(197,99,o),
(172,130,o),
(133,130,cs),
(93,130,o),
(57,99,o),
(51,60,cs),
(44,20,o),
(70,-10,o),
(110,-10,cs)
);
},
{
closed = 1;
nodes = (
(110,-10,l),
(123,-10,o),
(129,-21,o),
(126,-40,cs),
(121,-65,o),
(104,-81,o),
(76,-87,cs),
(57,-91,o),
(46,-100,o),
(43,-118,cs),
(43,-120,ls),
(40,-139,o),
(48,-151,o),
(68,-148,cs),
(138,-136,o),
(183,-84,o),
(196,0,cs),
(210,83,o),
(182,130,o),
(133,130,c)
);
}
);
width = 245;
},
{
hints = (
{
horizontal = 1;
place = (-150,35);
type = Stem;
},
{
horizontal = 1;
place = (-5,120);
type = Stem;
},
{
place = (125,51);
type = Stem;
},
{
horizontal = 1;
place = (-5,120);
type = Stem;
},
{
place = (45,121);
type = Stem;
}
);
layerId = m002;
shapes = (
{
closed = 1;
nodes = (
(164,-25,o),
(216,20,o),
(226,80,cs),
(236,139,o),
(198,185,o),
(139,185,cs),
(79,185,o),
(26,139,o),
(16,80,cs),
(6,20,o),
(45,-25,o),
(105,-25,cs)
);
},
{
closed = 1;
nodes = (
(105,-25,l),
(118,-25,o),
(124,-29,o),
(123,-35,cs),
(122,-45,o),
(110,-52,o),
(95,-54,cs),
(65,-57,o),
(47,-73,o),
(41,-107,cs),
(41,-110,ls),
(35,-145,o),
(50,-168,o),
(87,-163,cs),
(171,-151,o),
(228,-99,o),
(243,0,cs),
(257,84,o),
(230,185,o),
(139,185,c)
);
}
);
width = 245;
},
{
hints = (
{
horizontal = 1;
place = (-150,35);
type = Stem;
},
{
horizontal = 1;
place = (-5,120);
type = Stem;
},
{
place = (125,51);
type = Stem;
},
{
horizontal = 1;
place = (-5,120);
type = Stem;
},
{
place = (45,121);
type = Stem;
}
);
layerId = m003;
shapes = (
{
closed = 1;
nodes = (
(144,-10,o),
(176,16,o),
(181,50,cs),
(187,83,o),
(164,110,o),
(131,110,cs),
(97,110,o),
(67,83,o),
(61,50,cs),
(56,16,o),
(77,-10,o),
(111,-10,cs)
);
},
{
closed = 1;
nodes = (
(111,-10,l),
(124,-10,o),
(130,-21,o),
(127,-40,cs),
(123,-65,o),
(105,-81,o),
(77,-87,cs),
(59,-91,o),
(47,-100,o),
(44,-118,cs),
(44,-120,ls),
(41,-139,o),
(50,-151,o),
(70,-148,cs),
(139,-136,o),
(185,-84,o),
(198,0,cs),
(209,63,o),
(180,110,o),
(131,110,c)
);
}
);
width = 245;
}
);
note = comma;
unicode = 44;
userData = {
KernOnName = comma;
KernOnSpecialSpacing = {
L = period;
R = period;
};
};
}
{
glyphname = hyphen;
kernLeft = KO_hyphen;
kernRight = KO_hyphen;
layers = (
{
hints = (
{
horizontal = 1;
place = (-75,64);
type = Stem;
},
{
place = (39,400);
type = Stem;
}
);
layerId = m005;
shapes = (
{
closed = 1;
nodes = (
(355,256,ls),
(360,281,o),
(349,308,o),
(324,305,cs),
(249,295,o),
(175,295,o),
(101,295,cs),
(76,295,o),
(60,281,o),
(55,256,cs),
(55,254,ls),
(50,229,o),
(61,202,o),
(86,205,cs),
(161,215,o),
(235,215,o),
(309,215,cs),
(334,215,o),
(350,229,o),
(355,254,cs)
);
}
);
width = 407;
},
{
hints = (
{
horizontal = 1;
place = (-75,64);
type = Stem;
},
{
place = (39,400);
type = Stem;
}
);
layerId = m002;
shapes = (
{
closed = 1;
nodes = (
(408,261,ls),
(417,315,o),
(394,362,o),
(339,355,cs),
(260,345,o),
(182,345,o),
(105,345,cs),
(51,345,o),
(17,315,o),
(8,261,cs),
(6,249,ls),
(-3,195,o),
(20,148,o),
(75,155,cs),
(154,165,o),
(232,165,o),
(309,165,cs),
(363,165,o),
(397,195,o),
(406,249,cs)
);
}
);
width = 410;
},
{
hints = (
{
horizontal = 1;
place = (-75,64);
type = Stem;
},
{
place = (39,400);
type = Stem;
}
);
layerId = m003;
shapes = (
{
closed = 1;
nodes = (
(344,256,ls),
(348,279,o),
(341,297,o),
(323,295,cs),
(246,285,o),
(171,285,o),
(97,285,cs),
(76,285,o),
(68,277,o),
(64,256,cs),
(64,254,ls),
(60,231,o),
(67,213,o),
(85,215,cs),
(162,225,o),
(237,225,o),
(311,225,cs),
(332,225,o),
(340,233,o),
(344,254,cs)
);
}
);
width = 406;
}
);
metricLeft = "=n";
metricRight = "=n";
note = underscore;
unicode = 45;
userData = {
KernOnName = hyphen;
KernOnSpecialSpacing = {
L = hyphen;
R = hyphen;
};
};
}
{
glyphname = period;
kernLeft = KO_period;
kernRight = KO_period;
layers = (
{
hints = (
{
horizontal = 1;
place = (-5,120);
type = Stem;
},
{
place = (35,121);
type = Stem;
}
);
layerId = m005;
shapes = (
{
closed = 1;
nodes = (
(108,-10,o),
(143,20,o),
(150,60,cs),
(156,99,o),
(130,130,o),
(91,130,cs),
(51,130,o),
(16,99,o),
(10,60,cs),
(3,20,o),
(29,-10,o),
(69,-10,cs)
);
}
);
width = 220;
},
{
hints = (
{
horizontal = 1;
place = (-5,120);
type = Stem;
},
{
place = (32,121);
type = Stem;
}
);
layerId = m002;
shapes = (
{
closed = 1;
nodes = (
(126,-25,o),
(178,20,o),
(188,80,cs),
(198,139,o),
(158,185,o),
(99,185,cs),
(39,185,o),
(-12,139,o),
(-22,80,cs),
(-32,20,o),
(7,-25,o),
(67,-25,cs)
);
}
);
width = 220;
},
{
hints = (
{
horizontal = 1;
place = (-5,120);
type = Stem;
},
{
place = (37,121);
type = Stem;
}
);
layerId = m003;
shapes = (
{
closed = 1;
nodes = (
(101,-10,o),
(133,16,o),
(138,50,cs),
(143,83,o),
(121,110,o),
(88,110,cs),
(54,110,o),
(23,83,o),
(18,50,cs),
(13,16,o),
(34,-10,o),
(68,-10,cs)
);
}
);
width = 220;
}
);
note = period;
unicode = 46;
userData = {
KernOnName = period;
KernOnSpecialSpacing = {
L = period;
R = period;
};
};
}
{
glyphname = slash;
kernLeft = KO_slash;
kernRight = KO_slash;
layers = (
{
hints = (
{
horizontal = 1;
place = (0,21);
target = up;
type = BottomGhost;
},
{
place = (-38,405);
type = Stem;
}
);
layerId = m005;
shapes = (
{
closed = 1;
nodes = (
(42,-95,o),
(81,-80,o),
(92,-53,cs),
(179,175,o),
(276,402,o),
(374,630,cs),
(385,658,o),
(373,684,o),
(347,690,cs),
(321,696,o),
(285,681,o),
(274,656,cs),
(187,428,o),
(88,199,o),
(-19,-29,cs),
(-31,-55,o),
(-9,-80,o),
(16,-87,cs)
);
}
);
width = 365;
},
{
hints = (
{
horizontal = 1;
place = (0,21);
target = up;
type = BottomGhost;
},
{
place = (-38,405);
type = Stem;
}
);
layerId = m002;
shapes = (
{
closed = 1;
nodes = (
(51,-116,o),
(122,-85,o),
(144,-29,cs),
(231,198,o),
(316,354,o),
(414,582,cs),
(437,638,o),
(413,692,o),
(360,704,cs),
(308,716,o),
(244,685,o),
(222,632,cs),
(135,405,o),
(49,248,o),
(-59,21,cs),
(-84,-34,o),
(-51,-86,o),
(0,-100,cs)
);
}
);
width = 365;
},
{
hints = (
{
horizontal = 1;
place = (0,21);
target = up;
type = BottomGhost;
},
{
place = (-38,405);
type = Stem;
}
);
layerId = m003;
shapes = (
{
closed = 1;
nodes = (
(41,-94,o),
(71,-83,o),
(80,-61,cs),
(167,167,o),
(268,415,o),
(366,643,cs),
(376,666,o),
(368,685,o),
(345,690,cs),
(322,696,o),
(294,684,o),
(286,664,cs),
(199,436,o),
(97,186,o),
(-11,-42,cs),
(-21,-62,o),
(-4,-81,o),
(18,-87,cs)
);
}
);
width = 365;
}
);
note = slash;
unicode = 47;
userData = {
KernOnName = slash;
KernOnSpecialSpacing = {
L = slash;
R = slash;
};
};
}
{
glyphname = zero;
kernLeft = KO_zero;
kernRight = KO_zero;
layers = (
{
hints = (
{
horizontal = 1;
place = (-10,80);
type = Stem;
},
{
horizontal = 1;
place = (597,80);
type = Stem;
},
{
place = (-13,110);
type = Stem;
},
{
place = (377,110);
type = Stem;
}
);
layerId = m005;
shapes = (
{
closed = 1;
nodes = (
(549,510,o),
(490,620,o),
(335,610,cs),
(179,600,o),
(79,510,o),
(45,300,cs),
(11,90,o),
(81,-10,o),
(235,-10,cs),
(389,-10,o),
(501,90,o),
(525,300,cs)
);
},
{
closed = 1;
nodes = (
(171,466,o),
(225,520,o),
(322,530,cs),
(417,540,o),
(451,466,o),
(425,300,cs),
(399,134,o),
(346,90,o),
(250,80,cs),
(154,70,o),
(119,134,o),
(145,300,cs)
);
}
);
width = 570;
},
{
hints = (
{
horizontal = 1;
place = (-10,80);
type = Stem;
},
{
horizontal = 1;
place = (597,80);
type = Stem;
},
{
place = (-11,110);
type = Stem;
},
{
place = (379,110);
type = Stem;
}
);
layerId = m002;
shapes = (
{
closed = 1;
nodes = (
(592,474,o),
(521,611,o),
(332,599,cs),
(150,587,o),
(25,476,o),
(-3,300,cs),
(-35,98,o),
(52,-25,o),
(235,-25,cs),
(417,-25,o),
(560,98,o),
(577,302,cs)
);
},
{
closed = 1;
nodes = (
(206,357,o),
(235,411,o),
(311,419,cs),
(375,426,o),
(387,361,o),
(377,300,cs),
(365,220,o),
(339,173,o),
(260,165,cs),
(195,158,o),
(184,215,o),
(197,300,cs)
);
}
);
width = 570;
},
{
hints = (
{
horizontal = 1;
place = (-10,80);
type = Stem;
},
{
horizontal = 1;
place = (597,80);
type = Stem;
},
{
place = (-13,110);
type = Stem;
},
{
place = (377,110);
type = Stem;
}
);
layerId = m003;
shapes = (
{
closed = 1;
nodes = (
(539,514,o),
(484,617,o),
(335,607,cs),
(183,597,o),
(89,513,o),
(55,300,cs),
(21,87,o),
(87,-7,o),
(236,-7,cs),
(386,-7,o),
(491,87,o),
(515,300,cs)
);
},
{
closed = 1;
nodes = (
(164,478,o),
(222,536,o),
(323,547,cs),
(426,558,o),
(464,478,o),
(435,300,cs),
(406,120,o),
(349,73,o),
(248,63,cs),
(146,52,o),
(106,120,o),
(135,300,cs)
);
}
);
width = 570;
}
);
note = O;
unicode = 48;
}
{
glyphname = one;
kernLeft = KO_one;
kernRight = KO_one;
layers = (
{
hints = (
{
horizontal = 1;
place = (0,70);
type = Stem;
},
{
place = (129,107);
type = Stem;
}
);
layerId = m005;
shapes = (
{
closed = 1;
nodes = (
(114,-4,o),
(185,0,o),
(277,0,cs),
(301,0,o),
(325,3,o),
(330,37,cs),
(337,72,o),
(315,89,o),
(291,85,cs),
(265,81,o),
(238,76,o),
(212,75,cs),
(206,75,o),
(202,79,o),
(203,85,cs),
(289,560,ls),
(299,608,o),
(254,607,o),
(217,583,cs),
(174,555,o),
(133,538,o),
(82,526,cs),
(59,521,o),
(47,509,o),
(43,487,cs),
(39,465,o),
(49,435,o),
(73,435,cs),
(97,435,o),
(126,452,o),
(152,465,cs),
(160,469,o),
(164,465,o),
(163,458,cs),
(103,85,ls),
(102,79,o),
(98,75,o),
(92,75,cs),
(14,75,ls),
(-10,75,o),
(-25,62,o),
(-30,38,cs),
(-33,13,o),
(-24,-13,o),
(20,-10,cs)
);
}
);
width = 382;
},
{
hints = (
{
horizontal = 1;
place = (0,70);
type = Stem;
},
{
place = (130,107);
type = Stem;
}
);
layerId = m002;
shapes = (
{
closed = 1;
nodes = (
(165,-4,o),
(236,0,o),
(327,0,cs),
(382,0,o),
(428,27,o),
(437,87,cs),
(448,153,o),
(402,184,o),
(347,184,cs),
(345,184,o),
(344,184,o),
(342,184,cs),
(325,184,o),
(321,189,o),
(324,207,cs),
(381,514,ls),
(396,600,o),
(315,631,o),
(235,578,cs),
(199,554,o),
(166,541,o),
(121,530,cs),
(73,520,o),
(41,487,o),
(34,442,cs),
(26,391,o),
(53,340,o),
(106,340,cs),
(112,340,o),
(119,340,o),
(125,341,cs),
(137,343,o),
(142,336,o),
(140,319,cs),
(120,200,ls),
(118,184,o),
(107,175,o),
(91,175,cs),
(78,175,ls),
(26,175,o),
(-14,140,o),
(-22,88,cs),
(-31,34,o),
(-2,-15,o),
(72,-10,cs)
);
}
);
width = 464;
},
{
hints = (
{
horizontal = 1;
place = (0,70);
type = Stem;
},
{
place = (129,107);
type = Stem;
}
);
layerId = m003;
shapes = (
{
closed = 1;
nodes = (
(94,-4,o),
(167,0,o),
(259,0,cs),
(282,0,o),
(297,2,o),
(301,27,cs),
(305,57,o),
(292,68,o),
(272,65,cs),
(240,60,o),
(209,55,o),
(178,55,cs),
(173,55,o),
(171,58,o),
(171,62,cs),
(263,570,ls),
(271,608,o),
(239,607,o),
(206,585,cs),
(161,556,o),
(118,538,o),
(66,526,cs),
(46,522,o),
(39,515,o),
(36,497,cs),
(33,477,o),
(40,455,o),
(58,455,cs),
(85,455,o),
(122,480,o),
(153,493,cs),
(159,495,o),
(161,492,o),
(160,487,cs),
(91,62,ls),
(91,58,o),
(88,55,o),
(84,55,cs),
(-7,55,ls),
(-27,55,o),
(-35,48,o),
(-39,28,cs),
(-43,5,o),
(-36,-13,o),
(1,-10,cs)
);
}
);
width = 357;
}
);
metricRight = "=O/3";
note = one;
unicode = 49;
}
{
glyphname = two;
kernLeft = KO_two;
kernRight = KO_two;
layers = (
{
hints = (
{
horizontal = 1;
place = (0,70);
type = Stem;
},
{
horizontal = 1;
place = (535,75);
type = Stem;
},
{
place = (-34,118);
type = Stem;
},
{
place = (294,122);
type = Stem;
}
);
layerId = m005;
shapes = (
{
closed = 1;
nodes = (
(133,0,o),
(253,0,o),
(374,0,cs),
(398,0,o),
(423,13,o),
(427,37,cs),
(433,72,o),
(414,97,o),
(389,95,cs),
(286,85,o),
(185,76,o),
(84,75,cs),
(78,75,o),
(75,79,o),
(75,85,cs),
(87,132,o),
(125,180,o),
(215,220,cs),
(296,256,o),
(461,304,o),
(481,430,cs),
(499,546,o),
(427,610,o),
(278,610,cs),
(217,610,o),
(150,597,o),
(91,573,cs),
(67,563,o),
(48,544,o),
(49,520,cs),
(50,485,o),
(85,477,o),
(111,492,cs),
(159,520,o),
(207,535,o),
(266,535,cs),
(327,535,o),
(404,511,o),
(391,430,cs),
(377,349,o),
(274,325,o),
(182,282,cs),
(76,233,o),
(-9,163,o),
(-28,51,cs),
(-32,18,o),
(-23,-13,o),
(10,-10,cs)
);
}
);
width = 514;
},
{
hints = (
{
horizontal = 1;
place = (0,70);
type = Stem;
},
{
horizontal = 1;
place = (535,75);
type = Stem;
},
{
place = (-35,118);
type = Stem;
},
{
place = (293,122);
type = Stem;
}
);
layerId = m002;
shapes = (
{
closed = 1;
nodes = (
(185,0,o),
(303,0,o),
(424,0,cs),
(476,0,o),
(526,35,o),
(535,87,cs),
(545,152,o),
(506,199,o),
(451,195,cs),
(388,189,o),
(327,183,o),
(266,179,cs),
(240,177,o),
(235,200,o),
(258,212,cs),
(267,217,o),
(277,221,o),
(288,225,cs),
(366,255,o),
(555,270,o),
(577,413,cs),
(598,540,o),
(503,625,o),
(330,625,cs),
(263,625,o),
(188,610,o),
(122,584,cs),
(76,564,o),
(41,522,o),
(43,475,cs),
(46,406,o),
(116,381,o),
(175,415,cs),
(218,440,o),
(251,450,o),
(302,450,cs),
(356,450,o),
(392,437,o),
(387,413,cs),
(383,381,o),
(314,372,o),
(216,327,cs),
(99,273,o),
(3,238,o),
(-20,101,cs),
(-29,36,o),
(3,-16,o),
(65,-10,cs)
);
}
);
width = 564;
},
{
hints = (
{
horizontal = 1;
place = (0,70);
type = Stem;
},
{
horizontal = 1;
place = (535,75);
type = Stem;
},
{
place = (-34,118);
type = Stem;
},
{
place = (294,122);
type = Stem;
}
);
layerId = m003;
shapes = (
{
closed = 1;
nodes = (
(115,0,o),
(235,0,o),
(356,0,cs),
(377,0,o),
(394,9,o),
(397,27,cs),
(403,58,o),
(389,77,o),
(369,75,cs),
(262,65,o),
(156,54,o),
(50,55,cs),
(45,55,o),
(43,57,o),
(43,62,cs),
(51,116,o),
(91,183,o),
(195,229,cs),
(276,265,o),
(433,311,o),
(453,430,cs),
(472,551,o),
(406,610,o),
(260,610,cs),
(200,610,o),
(135,597,o),
(77,574,cs),
(55,565,o),
(42,551,o),
(43,532,cs),
(44,503,o),
(68,498,o),
(91,510,cs),
(140,539,o),
(190,555,o),
(251,555,cs),
(314,555,o),
(399,529,o),
(383,430,cs),
(369,341,o),
(257,316,o),
(166,273,cs),
(62,225,o),
(-19,149,o),
(-37,41,cs),
(-42,10,o),
(-34,-12,o),
(-9,-10,cs)
);
}
);
width = 495;
}
);
metricRight = "=O";
note = two;
unicode = 50;
}
{
glyphname = three;
kernLeft = KO_three;
kernRight = KO_three;
layers = (
{
hints = (
{
horizontal = 1;
place = (-78,70);
type = Stem;
},
{
horizontal = 1;
place = (282,64);
type = Stem;
},
{
horizontal = 1;
place = (531,69);
type = Stem;
},
{
place = (298,116);
type = Stem;
}
);
layerId = m005;
shapes = (
{
closed = 1;
nodes = (
(304,-77,o),
(411,11,o),
(432,146,cs),
(452,273,o),
(384,354,o),
(246,340,cs),
(235,339,o),
(235,345,o),
(241,351,cs),
(447,534,ls),
(483,566,o),
(465,600,o),
(421,600,cs),
(118,600,ls),
(93,600,o),
(67,586,o),
(63,561,cs),
(59,534,o),
(78,507,o),
(104,510,cs),
(176,519,o),
(243,520,o),
(313,520,cs),
(321,520,o),
(323,514,o),
(316,508,cs),
(138,335,ls),
(119,316,o),
(108,307,o),
(105,283,cs),
(100,254,o),
(137,257,o),
(201,267,cs),
(297,282,o),
(348,242,o),
(332,146,cs),
(318,54,o),
(262,13,o),
(175,13,cs),
(126,13,o),
(78,23,o),
(46,40,cs),
(11,58,o),
(-19,25,o),
(-23,-4,cs),
(-28,-29,o),
(-23,-46,o),
(0,-54,cs),
(46,-70,o),
(102,-77,o),
(161,-77,cs)
);
}
);
width = 475;
},
{
hints = (
{
horizontal = 1;
place = (-78,70);
type = Stem;
},
{
horizontal = 1;
place = (282,64);
type = Stem;
},
{
horizontal = 1;
place = (531,69);
type = Stem;
},
{
place = (298,116);
type = Stem;
}
);
layerId = m002;
shapes = (
{
closed = 1;
nodes = (
(355,-92,o),
(488,18,o),
(508,146,cs),
(525,254,o),
(488,338,o),
(407,373,cs),
(389,381,o),
(391,392,o),
(407,406,cs),
(477,464,ls),
(550,524,o),
(538,615,o),
(449,615,cs),
(146,615,ls),
(93,615,o),
(41,579,o),
(33,526,cs),
(24,469,o),
(66,419,o),
(122,425,cs),
(140,427,o),
(159,429,o),
(176,431,cs),
(200,433,o),
(201,414,o),
(180,400,cs),
(131,368,ls),
(99,347,o),
(84,320,o),
(80,281,cs),
(71,212,o),
(128,202,o),
(227,218,cs),
(303,229,o),
(314,180,o),
(308,146,cs),
(303,112,o),
(284,98,o),
(215,98,cs),
(171,98,o),
(134,106,o),
(105,120,cs),
(40,154,o),
(-31,97,o),
(-42,31,cs),
(-50,-21,o),
(-31,-53,o),
(7,-66,cs),
(59,-84,o),
(123,-92,o),
(185,-92,cs)
);
}
);
width = 526;
},
{
hints = (
{
horizontal = 1;
place = (-78,70);
type = Stem;
},
{
horizontal = 1;
place = (282,64);
type = Stem;
},
{
horizontal = 1;
place = (531,69);
type = Stem;
},
{
place = (298,116);
type = Stem;
}
);
layerId = m003;
shapes = (
{
closed = 1;
nodes = (
(295,-77,o),
(394,5,o),
(417,146,cs),
(439,280,o),
(362,357,o),
(203,324,cs),
(196,322,o),
(195,326,o),
(199,331,cs),
(438,551,ls),
(465,578,o),
(455,600,o),
(416,600,cs),
(113,600,ls),
(91,600,o),
(73,590,o),
(70,571,cs),
(66,548,o),
(81,528,o),
(101,530,cs),
(181,541,o),
(260,540,o),
(338,540,cs),
(344,540,o),
(346,535,o),
(341,531,cs),
(140,328,ls),
(121,308,o),
(112,303,o),
(110,283,cs),
(108,265,o),
(133,267,o),
(195,277,cs),
(298,293,o),
(354,249,o),
(337,146,cs),
(320,38,o),
(259,-7,o),
(167,-7,cs),
(117,-7,o),
(68,3,o),
(34,21,cs),
(5,35,o),
(-16,12,o),
(-21,-14,cs),
(-23,-37,o),
(-21,-48,o),
(-2,-55,cs),
(43,-70,o),
(98,-77,o),
(156,-77,cs)
);
}
);
width = 465;
}
);
metricLeft = "=T";
metricRight = "=S";
note = three;
unicode = 51;
}
{
glyphname = four;
kernLeft = KO_four;
kernRight = KO_four;
layers = (
{
hints = (
{
horizontal = 1;
place = (110,70);
type = Stem;
},
{
place = (273,102);
type = Stem;
}
);
layerId = m005;
shapes = (
{
closed = 1;
nodes = (
(360,-77,o),
(390,-48,o),
(388,-18,cs),
(384,17,o),
(388,50,o),
(393,85,cs),
(395,91,o),
(400,95,o),
(406,95,cs),
(453,95,ls),
(479,95,o),
(495,109,o),
(499,135,cs),
(503,161,o),
(492,185,o),
(467,185,cs),
(420,185,ls),
(414,185,o),
(411,189,o),
(411,195,cs),
(431,314,o),
(459,432,o),
(479,551,cs),
(483,582,o),
(472,600,o),
(446,600,cs),
(422,600,o),
(403,594,o),
(381,577,cs),
(227,455,o),
(102,326,o),
(22,204,cs),
(7,183,o),
(2,166,o),
(-2,143,cs),
(-7,112,o),
(5,82,o),
(37,85,cs),
(161,96,o),
(247,95,o),
(286,95,cs),
(293,95,o),
(295,91,o),
(293,85,cs),
(278,-18,ls),
(272,-49,o),
(296,-77,o),
(327,-77,cs)
);
},
{
closed = 1;
nodes = (
(119,175,o),
(116,180,o),
(120,187,cs),
(172,271,o),
(264,367,o),
(347,442,cs),
(355,449,o),
(361,447,o),
(361,438,cs),
(346,357,o),
(325,276,o),
(311,195,cs),
(310,188,o),
(307,185,o),
(300,185,cs),
(239,183,o),
(186,179,o),
(126,176,cs)
);
}
);
width = 549;
},
{
hints = (
{
horizontal = 1;
place = (110,70);
type = Stem;
},
{
place = (273,102);
type = Stem;
}
);
layerId = m002;
shapes = (
{
closed = 1;
nodes = (
(392,-92,o),
(450,-32,o),
(443,30,cs),
(442,43,o),
(442,56,o),
(443,70,cs),
(444,76,o),
(447,80,o),
(450,80,c),
(454,80,l),
(498,80,o),
(546,122,o),
(555,170,cs),
(562,220,o),
(534,270,o),
(485,270,c),
(481,270,l),
(477,270,o),
(475,274,o),
(476,280,cs),
(493,376,o),
(506,413,o),
(523,516,cs),
(533,575,o),
(502,615,o),
(448,615,cs),
(408,615,o),
(377,599,o),
(347,579,cs),
(170,454,o),
(109,389,o),
(-4,262,cs),
(-27,236,o),
(-42,207,o),
(-47,178,cs),
(-56,117,o),
(-23,64,o),
(40,70,cs),
(123,77,o),
(188,80,o),
(233,80,cs),
(240,80,o),
(243,76,o),
(241,70,cs),
(233,17,ls),
(223,-42,o),
(266,-92,o),
(325,-92,cs)
);
},
{
closed = 1;
nodes = (
(226,266,o),
(222,270,o),
(228,279,cs),
(235,289,o),
(245,301,o),
(261,308,cs),
(273,314,o),
(281,307,o),
(277,292,cs),
(277,284,o),
(277,285,o),
(276,278,cs),
(275,270,o),
(264,269,o),
(255,267,cs),
(249,266,o),
(247,266,o),
(242,266,cs)
);
}
);
width = 587;
},
{
hints = (
{
horizontal = 1;
place = (110,70);
type = Stem;
},
{
place = (273,102);
type = Stem;
}
);
layerId = m003;
shapes = (
{
closed = 1;
nodes = (
(356,-74,o),
(378,-54,o),
(374,-31,cs),
(370,10,o),
(377,49,o),
(383,88,cs),
(384,93,o),
(387,95,o),
(391,95,cs),
(451,95,ls),
(473,95,o),
(482,103,o),
(486,125,cs),
(490,148,o),
(481,165,o),
(462,165,cs),
(402,165,ls),
(398,165,o),
(396,167,o),
(397,172,cs),
(415,296,o),
(449,438,o),
(468,561,cs),
(473,589,o),
(466,600,o),
(445,600,cs),
(423,600,o),
(407,595,o),
(387,580,cs),
(233,458,o),
(105,311,o),
(27,189,cs),
(14,170,o),
(9,155,o),
(5,133,cs),
(0,105,o),
(10,83,o),
(35,85,cs),
(175,98,o),
(267,95,o),
(297,95,cs),
(302,95,o),
(304,92,o),
(303,88,cs),
(284,-28,ls),
(281,-54,o),
(298,-74,o),
(326,-74,cs)
);
},
{
closed = 1;
nodes = (
(98,154,o),
(95,157,o),
(98,162,cs),
(152,262,o),
(272,396,o),
(367,481,cs),
(372,486,o),
(376,485,o),
(376,479,cs),
(361,381,o),
(332,268,o),
(317,172,cs),
(316,167,o),
(313,165,o),
(308,165,cs),
(237,165,o),
(177,158,o),
(103,154,cs)
);
}
);
width = 542;
}
);
metricLeft = "=A.salt";
metricRight = "=F";
note = four;
unicode = 52;
}
{
glyphname = five;
kernLeft = KO_five;
kernRight = KO_five;
layers = (
{
hints = (
{
horizontal = 1;
place = (-78,70);
type = Stem;
},
{
horizontal = 1;
place = (297,72);
type = Stem;
},
{
horizontal = 1;
place = (530,70);
type = Stem;
},
{
place = (-15,97);
type = Stem;
},
{
place = (296,116);
type = Stem;
}
);
layerId = m005;
shapes = (
{
closed = 1;
nodes = (
(352,-77,o),
(460,11,o),
(481,146,cs),
(503,281,o),
(422,383,o),
(272,373,cs),
(247,371,o),
(223,369,o),
(200,366,cs),
(193,365,o),
(190,370,o),
(191,376,cs),
(211,500,ls),
(212,506,o),
(216,510,o),
(223,510,cs),
(299,513,o),
(368,515,o),
(446,510,cs),
(480,508,o),
(508,534,o),
(512,561,cs),
(519,606,o),
(479,624,o),
(453,620,cs),
(339,600,o),
(247,600,o),
(136,600,cs),
(100,600,o),
(75,586,o),
(70,561,cs),
(65,531,o),
(76,514,o),
(102,511,cs),
(110,510,o),
(112,506,o),
(111,500,cs),
(81,316,ls),
(77,289,o),
(95,274,o),
(132,282,cs),
(170,290,o),
(210,295,o),
(259,295,cs),
(353,295,o),
(396,241,o),
(381,146,cs),
(366,54,o),
(311,13,o),
(224,13,cs),
(161,13,o),
(128,22,o),
(93,38,cs),
(60,54,o),
(31,28,o),
(26,-3,cs),
(23,-26,o),
(27,-46,o),
(49,-53,cs),
(95,-69,o),
(150,-77,o),
(209,-77,cs)
);
}
);
width = 526;
},
{
hints = (
{
horizontal = 1;
place = (-78,70);
type = Stem;
},
{
horizontal = 1;
place = (297,72);
type = Stem;
},
{
horizontal = 1;
place = (530,70);
type = Stem;
},
{
place = (-15,97);
type = Stem;
},
{
place = (296,116);
type = Stem;
}
);
layerId = m002;
shapes = (
{
closed = 1;
nodes = (
(376,-102,o),
(509,8,o),
(535,171,cs),
(561,333,o),
(453,410,o),
(272,398,cs),
(267,398,o),
(263,397,o),
(258,397,cs),
(249,396,o),
(246,403,o),
(247,414,c),
(247,417,l),
(250,430,o),
(259,437,o),
(275,438,cs),
(327,439,o),
(376,438,o),
(430,435,cs),
(494,431,o),
(549,480,o),
(558,536,cs),
(570,612,o),
(506,653,o),
(448,644,cs),
(338,625,o),
(250,625,o),
(139,625,cs),
(67,625,o),
(24,583,o),
(16,536,cs),
(11,502,o),
(18,474,o),
(37,457,cs),
(46,448,o),
(51,439,o),
(49,426,cs),
(31,316,ls),
(22,258,o),
(65,218,o),
(136,233,cs),
(171,241,o),
(204,245,o),
(250,245,cs),
(323,245,o),
(342,216,o),
(335,171,cs),
(328,132,o),
(305,88,o),
(236,88,cs),
(180,88,o),
(155,94,o),
(125,109,cs),
(61,139,o),
(-9,89,o),
(-20,22,cs),
(-28,-23,o),
(-12,-62,o),
(30,-76,cs),
(79,-93,o),
(143,-102,o),
(206,-102,cs)
);
}
);
width = 552;
},
{
hints = (
{
horizontal = 1;
place = (-78,70);
type = Stem;
},
{
horizontal = 1;
place = (297,72);
type = Stem;
},
{
horizontal = 1;
place = (530,70);
type = Stem;
},
{
place = (-15,97);
type = Stem;
},
{
place = (296,116);
type = Stem;
}
);
layerId = m003;
shapes = (
{
closed = 1;
nodes = (
(348,-77,o),
(448,5,o),
(471,146,cs),
(492,277,o),
(417,373,o),
(270,363,cs),
(241,361,o),
(211,358,o),
(185,355,cs),
(180,354,o),
(178,357,o),
(178,361,cs),
(204,523,ls),
(205,527,o),
(207,530,o),
(212,530,cs),
(295,533,o),
(367,535,o),
(449,530,cs),
(479,528,o),
(501,548,o),
(504,571,cs),
(510,609,o),
(478,624,o),
(455,620,cs),
(340,600,o),
(247,600,o),
(136,600,cs),
(103,600,o),
(85,590,o),
(82,571,cs),
(77,540,o),
(88,530,o),
(118,530,cs),
(122,530,o),
(125,527,o),
(124,523,cs),
(91,316,ls),
(88,294,o),
(99,285,o),
(132,292,cs),
(170,300,o),
(210,305,o),
(260,305,cs),
(359,305,o),
(407,246,o),
(391,146,cs),
(373,38,o),
(313,-7,o),
(221,-7,cs),
(157,-7,o),
(122,3,o),
(86,19,cs),
(59,32,o),
(39,14,o),
(34,-13,cs),
(31,-34,o),
(35,-48,o),
(52,-53,cs),
(97,-69,o),
(151,-77,o),
(209,-77,cs)
);
}
);
width = 521;
}
);
metricLeft = "=O";
metricRight = "=S";
note = five;
unicode = 53;
}
{
glyphname = six;
kernLeft = KO_six;
kernRight = KO_six;
layers = (
{
hints = (
{
horizontal = 1;
place = (-10,70);
type = Stem;
},
{
horizontal = 1;
place = (340,70);
type = Stem;
},
{
horizontal = 1;
place = (612,65);
type = Stem;
},
{
place = (-30,117);
type = Stem;
},
{
place = (315,112);
type = Stem;
}
);
layerId = m005;
shapes = (
{
closed = 1;
nodes = (
(-6,83,o),
(60,-20,o),
(210,-10,cs),
(348,-1,o),
(450,73,o),
(470,200,cs),
(490,328,o),
(416,420,o),
(278,410,cs),
(247,407,o),
(206,400,o),
(171,383,cs),
(163,379,o),
(158,383,o),
(162,392,cs),
(211,511,o),
(297,583,o),
(407,599,cs),
(439,603,o),
(456,615,o),
(460,640,cs),
(465,664,o),
(449,678,o),
(416,674,cs),
(211,651,o),
(59,489,o),
(21,250,cs)
);
},
{
closed = 1;
nodes = (
(119,241,o),
(125,271,o),
(142,294,cs),
(153,310,o),
(219,335,o),
(266,335,cs),
(343,335,o),
(383,282,o),
(370,200,cs),
(357,118,o),
(301,80,o),
(223,75,cs),
(147,70,o),
(117,120,o),
(118,200,cs)
);
}
);
width = 526;
},
{
hints = (
{
horizontal = 1;
place = (-10,70);
type = Stem;
},
{
horizontal = 1;
place = (340,70);
type = Stem;
},
{
horizontal = 1;
place = (612,65);
type = Stem;
},
{
place = (-30,117);
type = Stem;
},
{
place = (315,112);
type = Stem;
}
);
layerId = m002;
shapes = (
{
closed = 1;
nodes = (
(-54,92,o),
(29,-37,o),
(211,-25,cs),
(372,-14,o),
(500,78,o),
(520,200,cs),
(545,355,o),
(445,437,o),
(276,425,cs),
(271,424,o),
(265,424,o),
(259,423,cs),
(252,422,o),
(261,445,o),
(281,462,cs),
(314,490,o),
(353,507,o),
(400,514,cs),
(454,521,o),
(496,552,o),
(505,605,cs),
(513,659,o),
(475,696,o),
(412,689,cs),
(180,663,o),
(7,478,o),
(-29,250,cs)
);
},
{
closed = 1;
nodes = (
(164,230,o),
(167,256,o),
(182,269,cs),
(197,282,o),
(220,285,o),
(257,285,cs),
(312,285,o),
(330,262,o),
(324,230,cs),
(321,203,o),
(296,164,o),
(234,160,cs),
(185,157,o),
(172,179,o),
(168,207,cs)
);
}
);
width = 536;
},
{
hints = (
{
horizontal = 1;
place = (-10,70);
type = Stem;
},
{
horizontal = 1;
place = (340,70);
type = Stem;
},
{
horizontal = 1;
place = (612,65);
type = Stem;
},
{
place = (-30,117);
type = Stem;
},
{
place = (315,112);
type = Stem;
}
);
layerId = m003;
shapes = (
{
closed = 1;
nodes = (
(3,77,o),
(65,-20,o),
(209,-10,cs),
(344,-1,o),
(439,68,o),
(460,200,cs),
(479,324,o),
(411,410,o),
(276,400,cs),
(240,397,o),
(188,386,o),
(149,360,cs),
(143,356,o),
(140,359,o),
(141,365,cs),
(189,506,o),
(286,601,o),
(409,619,cs),
(438,623,o),
(448,630,o),
(452,650,cs),
(455,669,o),
(446,678,o),
(417,674,cs),
(216,652,o),
(69,486,o),
(31,250,cs)
);
},
{
closed = 1;
nodes = (
(109,241,o),
(116,274,o),
(134,299,cs),
(149,319,o),
(217,345,o),
(267,345,cs),
(350,345,o),
(393,287,o),
(380,200,cs),
(364,102,o),
(303,60,o),
(222,55,cs),
(138,50,o),
(106,105,o),
(108,199,cs)
);
}
);
width = 526;
}
);
metricLeft = "=O";
metricRight = "=o";
note = six;
unicode = 54;
}
{
glyphname = seven;
kernLeft = KO_seven;
kernRight = KO_seven;
layers = (
{
hints = (
{
horizontal = 1;
place = (0,21);
target = up;
type = BottomGhost;
},
{
horizontal = 1;
place = (525,75);
type = Stem;
},
{
place = (51,110);
type = Stem;
}
);
layerId = m005;
shapes = (
{
closed = 1;
nodes = (
(111,-77,o),
(144,-50,o),
(150,-19,cs),
(205,226,o),
(468,534,o),
(468,534,c),
(485,555,o),
(492,600,o),
(437,600,cs),
(327,600,o),
(216,600,o),
(107,610,cs),
(82,612,o),
(54,586,o),
(51,561,cs),
(46,534,o),
(65,507,o),
(91,510,cs),
(176,519,o),
(258,520,o),
(342,520,cs),
(350,520,o),
(351,515,o),
(345,508,cs),
(298,450,o),
(99,197,o),
(41,-16,cs),
(32,-49,o),
(46,-77,o),
(78,-77,cs)
);
}
);
width = 444;
},
{
hints = (
{
horizontal = 1;
place = (0,21);
target = up;
type = BottomGhost;
},
{
horizontal = 1;
place = (525,75);
type = Stem;
},
{
place = (52,110);
type = Stem;
}
);
layerId = m002;
shapes = (
{
closed = 1;
nodes = (
(182,-92,o),
(242,-48,o),
(256,13,cs),
(293,176,o),
(421,307,o),
(549,461,cs),
(594,516,o),
(583,605,o),
(488,605,cs),
(378,605,o),
(269,605,o),
(162,615,cs),
(108,619,o),
(52,569,o),
(44,516,cs),
(35,459,o),
(76,409,o),
(133,415,cs),
(177,420,o),
(220,423,o),
(264,424,cs),
(284,425,o),
(290,412,o),
(276,394,cs),
(176,264,o),
(87,166,o),
(48,25,cs),
(31,-38,o),
(65,-92,o),
(127,-92,cs)
);
}
);
width = 538;
},
{
hints = (
{
horizontal = 1;
place = (0,21);
target = up;
type = BottomGhost;
},
{
horizontal = 1;
place = (525,75);
type = Stem;
},
{
place = (51,110);
type = Stem;
}
);
layerId = m003;
shapes = (
{
closed = 1;
nodes = (
(96,-74,o),
(121,-54,o),
(127,-28,cs),
(165,147,o),
(320,392,o),
(450,550,cs),
(465,568,o),
(470,600,o),
(425,600,cs),
(315,600,o),
(204,600,o),
(94,610,cs),
(74,612,o),
(53,592,o),
(49,571,cs),
(46,548,o),
(60,528,o),
(81,530,cs),
(175,541,o),
(264,540,o),
(356,540,cs),
(362,540,o),
(363,536,o),
(358,532,cs),
(234,381,o),
(84,145,o),
(36,-27,cs),
(29,-55,o),
(38,-74,o),
(66,-74,cs)
);
}
);
width = 425;
}
);
metricLeft = "=Z";
metricRight = "=Z";
note = seven;
unicode = 55;
}
{
glyphname = eight;
kernLeft = KO_eight;
kernRight = KO_eight;
layers = (
{
hints = (
{
horizontal = 1;
place = (-10,70);
type = Stem;
},
{
horizontal = 1;
place = (326,70);
type = Stem;
},
{
horizontal = 1;
place = (608,69);
type = Stem;
},
{
place = (-5,105);
type = Stem;
},
{
place = (310,112);
type = Stem;
},
{
place = (-30,112);
type = Stem;
},
{
place = (291,105);
type = Stem;
}
);
layerId = m005;
shapes = (
{
closed = 1;
nodes = (
(73,445,o),
(99,396,o),
(149,370,cs),
(156,366,o),
(157,362,o),
(148,358,cs),
(72,326,o),
(19,263,o),
(7,194,cs),
(-12,70,o),
(64,-10,o),
(201,-10,cs),
(338,-10,o),
(440,70,o),
(459,194,cs),
(471,264,o),
(427,322,o),
(361,355,cs),
(353,359,o),
(353,363,o),
(362,366,cs),
(431,394,o),
(474,447,o),
(482,500,cs),
(500,607,o),
(432,677,o),
(311,677,cs),
(189,677,o),
(99,607,o),
(81,500,cs)
);
},
{
closed = 1;
nodes = (
(182,562,o),
(232,602,o),
(299,602,cs),
(366,602,o),
(403,562,o),
(392,500,cs),
(383,440,o),
(340,419,o),
(274,400,cs),
(269,399,o),
(265,399,o),
(260,400,cs),
(200,419,o),
(162,440,o),
(171,500,cs)
);
},
{
closed = 1;
nodes = (
(119,269,o),
(176,296,o),
(228,321,cs),
(233,322,o),
(236,322,o),
(240,320,cs),
(301,296,o),
(371,269,o),
(359,194,cs),
(347,116,o),
(292,80,o),
(215,75,cs),
(139,70,o),
(95,116,o),
(107,194,cs)
);
}
);
width = 484;
},
{
hints = (
{
horizontal = 1;
place = (-10,70);
type = Stem;
},
{
horizontal = 1;
place = (326,70);
type = Stem;
},
{
horizontal = 1;
place = (608,69);
type = Stem;
},
{
place = (-5,105);
type = Stem;
},
{
place = (310,112);
type = Stem;
},
{
place = (-30,112);
type = Stem;
},
{
place = (291,105);
type = Stem;
}
);
layerId = m002;
shapes = (
{
closed = 1;
nodes = (
(68,456,o),
(78,416,o),
(98,383,cs),
(106,371,o),
(104,360,o),
(90,348,cs),
(42,307,o),
(10,252,o),
(0,194,cs),
(-19,76,o),
(79,-25,o),
(242,-25,cs),
(405,-25,o),
(533,76,o),
(552,194,cs),
(562,253,o),
(542,305,o),
(505,345,cs),
(496,357,o),
(497,368,o),
(511,380,cs),
(546,415,o),
(569,457,o),
(575,500,cs),
(592,601,o),
(504,692,o),
(356,692,cs),
(208,692,o),
(91,601,o),
(74,500,cs)
);
},
{
closed = 1;
nodes = (
(264,500,o),
(280,517,o),
(328,517,cs),
(375,517,o),
(385,500,o),
(384,490,cs),
(382,474,o),
(374,468,o),
(336,456,cs),
(323,451,o),
(313,451,o),
(302,456,cs),
(268,468,o),
(261,475,o),
(263,490,cs)
);
},
{
closed = 1;
nodes = (
(206,226,o),
(218,239,o),
(239,252,cs),
(261,265,o),
(276,266,o),
(288,261,cs),
(332,243,o),
(358,227,o),
(355,212,cs),
(352,194,o),
(331,164,o),
(268,160,cs),
(213,156,o),
(200,191,o),
(203,212,cs)
);
}
);
width = 570;
},
{
hints = (
{
horizontal = 1;
place = (-10,70);
type = Stem;
},
{
horizontal = 1;
place = (326,70);
type = Stem;
},
{
horizontal = 1;
place = (608,69);
type = Stem;
},
{
place = (-5,105);
type = Stem;
},
{
place = (310,112);
type = Stem;
},
{
place = (-30,112);
type = Stem;
},
{
place = (291,105);
type = Stem;
}
);
layerId = m003;
shapes = (
{
closed = 1;
nodes = (
(74,438,o),
(102,374,o),
(171,355,cs),
(177,353,o),
(178,351,o),
(171,349,cs),
(93,327,o),
(21,269,o),
(9,194,cs),
(-11,67,o),
(61,-7,o),
(194,-7,cs),
(327,-7,o),
(421,67,o),
(441,194,cs),
(453,269,o),
(397,330,o),
(317,358,cs),
(312,360,o),
(311,364,o),
(318,366,cs),
(405,396,o),
(455,442,o),
(464,500,cs),
(483,609,o),
(419,674,o),
(302,674,cs),
(184,674,o),
(102,609,o),
(83,500,cs)
);
},
{
closed = 1;
nodes = (
(165,575,o),
(222,619,o),
(294,619,cs),
(366,619,o),
(406,575,o),
(394,500,cs),
(384,432,o),
(331,412,o),
(259,385,cs),
(255,384,o),
(253,383,o),
(249,384,cs),
(186,404,o),
(143,432,o),
(153,500,cs)
);
},
{
closed = 1;
nodes = (
(103,279,o),
(169,307,o),
(223,332,cs),
(225,334,o),
(227,333,o),
(231,332,cs),
(294,308,o),
(375,279,o),
(361,194,cs),
(347,103,o),
(287,63,o),
(204,58,cs),
(123,53,o),
(75,103,o),
(89,194,cs)
);
}
);
width = 468;
}
);
metricLeft = "=|B";
metricRight = "=B";
note = eight;
unicode = 56;
}
{
glyphname = nine;
kernLeft = KO_nine;
kernRight = KO_nine;
layers = (
{
hints = (
{
horizontal = 1;
place = (610,-70);
type = Stem;
},
{
horizontal = 1;
place = (260,-70);
type = Stem;
},
{
horizontal = 1;
place = (-12,-65);
type = Stem;
},
{
place = (480,-117);
type = Stem;
},
{
place = (135,-112);
type = Stem;
}
);
layerId = m005;
shapes = (
{
closed = 1;
nodes = (
(527,517,o),
(459,609,o),
(311,610,cs),
(174,611,o),
(71,527,o),
(51,400,cs),
(31,272,o),
(105,180,o),
(243,190,cs),
(274,193,o),
(315,200,o),
(350,217,cs),
(358,221,o),
(363,217,o),
(359,208,cs),
(310,89,o),
(224,17,o),
(115,11,cs),
(85,9,o),
(65,-15,o),
(61,-40,cs),
(56,-64,o),
(73,-76,o),
(105,-74,cs),
(308,-61,o),
(462,111,o),
(500,350,cs)
);
},
{
closed = 1;
nodes = (
(402,359,o),
(396,329,o),
(379,306,cs),
(368,290,o),
(305,275,o),
(258,275,cs),
(181,275,o),
(138,318,o),
(151,400,cs),
(165,482,o),
(221,530,o),
(298,525,cs),
(373,520,o),
(404,480,o),
(403,400,cs)
);
}
);
width = 534;
},
{
layerId = m002;
shapes = (
{
closed = 1;
nodes = (
(575,508,o),
(490,624,o),
(313,625,cs),
(149,626,o),
(21,520,o),
(1,400,cs),
(-24,244,o),
(70,140,o),
(240,140,cs),
(252,140,o),
(258,141,o),
(258,141,cs),
(266,141,o),
(270,135,o),
(259,128,cs),
(244,117,o),
(217,101,o),
(126,96,cs),
(69,92,o),
(25,46,o),
(16,-5,cs),
(8,-56,o),
(41,-93,o),
(106,-89,cs),
(339,-74,o),
(514,123,o),
(550,350,cs)
);
},
{
closed = 1;
nodes = (
(359,358,o),
(353,346,o),
(339,335,cs),
(333,329,o),
(304,325,o),
(265,325,cs),
(207,325,o),
(192,341,o),
(198,383,cs),
(203,409,o),
(226,444,o),
(281,440,cs),
(336,436,o),
(348,422,o),
(353,393,cs)
);
}
);
width = 544;
},
{
hints = (
{
horizontal = 1;
place = (610,-70);
type = Stem;
},
{
horizontal = 1;
place = (260,-70);
type = Stem;
},
{
horizontal = 1;
place = (-12,-65);
type = Stem;
},
{
place = (480,-117);
type = Stem;
},
{
place = (135,-112);
type = Stem;
}
);
layerId = m003;
shapes = (
{
closed = 1;
nodes = (
(518,523,o),
(455,609,o),
(311,610,cs),
(178,611,o),
(82,533,o),
(61,400,cs),
(42,276,o),
(110,190,o),
(245,200,cs),
(274,203,o),
(321,213,o),
(364,234,cs),
(381,243,o),
(385,234,o),
(377,217,cs),
(312,67,o),
(225,-3,o),
(114,-9,cs),
(88,-11,o),
(73,-28,o),
(69,-50,cs),
(66,-69,o),
(76,-76,o),
(104,-74,cs),
(303,-61,o),
(452,114,o),
(490,350,cs)
);
},
{
closed = 1;
nodes = (
(412,359,o),
(405,326,o),
(387,301,cs),
(372,280,o),
(303,265,o),
(255,265,cs),
(173,265,o),
(127,312,o),
(141,400,cs),
(157,498,o),
(219,550,o),
(301,545,cs),
(382,540,o),
(415,496,o),
(413,401,cs)
);
}
);
width = 534;
}
);
metricLeft = six;
metricRight = six;
unicode = 57;
}
{
glyphname = colon;
kernLeft = KO_colon;
kernRight = KO_colon;
layers = (
{
hints = (
{
horizontal = 1;
place = (-5,120);
type = Stem;
},
{
place = (-8,121);
type = Stem;
},
{
horizontal = 1;
place = (375,120);
type = Stem;
},
{
place = (-8,121);
type = Stem;
},
{
horizontal = 1;
place = (-5,120);
type = Stem;
},
{
place = (-8,121);
type = Stem;
}
);
layerId = m005;
shapes = (
{
closed = 1;
nodes = (
(169,370,o),
(204,400,o),
(210,440,cs),
(217,479,o),
(190,510,o),
(151,510,cs),
(111,510,o),
(77,479,o),
(70,440,cs),
(64,400,o),
(90,370,o),
(130,370,cs)
);
},
{
closed = 1;
nodes = (
(108,-10,o),
(143,20,o),
(150,60,cs),
(156,99,o),
(129,130,o),
(90,130,cs),
(50,130,o),
(16,99,o),
(10,60,cs),
(3,20,o),
(29,-10,o),
(69,-10,cs)
);
}
);
width = 220;
},
{
hints = (
{
horizontal = 1;
place = (-5,120);
type = Stem;
},
{
place = (-8,121);
type = Stem;
},
{
horizontal = 1;
place = (335,120);
type = Stem;
},
{
place = (-8,121);
type = Stem;
},
{
horizontal = 1;
place = (-5,120);
type = Stem;
},
{
place = (-8,121);
type = Stem;
}
);
layerId = m002;
shapes = (
{
closed = 1;
nodes = (
(180,315,o),
(232,360,o),
(242,420,cs),
(252,479,o),
(213,525,o),
(154,525,cs),
(94,525,o),
(42,479,o),
(32,420,cs),
(22,360,o),
(61,315,o),
(121,315,cs)
);
},
{
closed = 1;
nodes = (
(125,-25,o),
(178,20,o),
(188,80,cs),
(197,139,o),
(158,185,o),
(99,185,cs),
(39,185,o),
(-13,139,o),
(-22,80,cs),
(-32,20,o),
(6,-25,o),
(66,-25,cs)
);
}
);
width = 220;
},
{
hints = (
{
horizontal = 1;
place = (-5,120);
type = Stem;
},
{
place = (-8,121);
type = Stem;
},
{
horizontal = 1;
place = (392,120);
type = Stem;
},
{
place = (-8,121);
type = Stem;
},
{
horizontal = 1;
place = (-2,120);
type = Stem;
},
{
place = (-8,121);
type = Stem;
}
);
layerId = m003;
shapes = (
{
closed = 1;
nodes = (
(166,387,o),
(197,413,o),
(203,447,cs),
(208,480,o),
(186,507,o),
(153,507,cs),
(119,507,o),
(88,480,o),
(83,447,cs),
(77,413,o),
(99,387,o),
(133,387,cs)
);
},
{
closed = 1;
nodes = (
(102,-7,o),
(134,19,o),
(139,53,cs),
(145,86,o),
(122,113,o),
(89,113,cs),
(55,113,o),
(25,86,o),
(19,53,cs),
(14,19,o),
(35,-7,o),
(69,-7,cs)
);
}
);
width = 222;
}
);
metricLeft = "=period";
metricRight = "=period";
note = period;
unicode = 58;
userData = {
KernOnSpecialSpacing = {
L = "spaced-off";
R = "spaced-off";
};
};
}
{
glyphname = less;
kernLeft = KO_less;
kernRight = KO_less;
layers = (
{
hints = (
{
horizontal = 1;
place = (30,440);
type = Stem;
},
{
place = (40,90);
type = Stem;
}
);
layerId = m005;
shapes = (
{
closed = 1;
nodes = (
(394,175,o),
(272,215,o),
(157,245,cs),
(148,247,o),
(150,254,o),
(160,258,cs),
(285,305,o),
(411,345,o),
(534,374,cs),
(558,380,o),
(571,397,o),
(575,421,cs),
(577,428,ls),
(580,453,o),
(566,485,o),
(535,473,cs),
(387,414,o),
(239,364,o),
(91,305,cs),
(67,295,o),
(47,281,o),
(47,257,cs),
(46,243,ls),
(46,219,o),
(51,203,o),
(73,195,cs),
(204,146,o),
(345,86,o),
(475,27,cs),
(500,15,o),
(525,50,o),
(531,79,cs),
(531,80,ls),
(535,104,o),
(527,128,o),
(506,136,cs)
);
}
);
width = 600;
},
{
hints = (
{
horizontal = 1;
place = (30,440);
type = Stem;
},
{
place = (40,90);
type = Stem;
}
);
layerId = m002;
shapes = (
{
closed = 1;
nodes = (
(428,191,o),
(333,223,o),
(240,249,cs),
(231,252,o),
(233,259,o),
(242,262,cs),
(341,297,o),
(439,327,o),
(537,350,cs),
(573,359,o),
(596,387,o),
(601,421,cs),
(603,428,ls),
(609,473,o),
(576,515,o),
(530,496,cs),
(382,437,o),
(234,387,o),
(86,328,cs),
(46,312,o),
(22,288,o),
(23,253,cs),
(23,240,ls),
(20,205,o),
(33,182,o),
(61,171,cs),
(193,123,o),
(332,63,o),
(462,4,cs),
(502,-15,o),
(549,28,o),
(557,79,cs),
(557,80,ls),
(563,118,o),
(547,149,o),
(519,160,cs)
);
}
);
width = 600;
},
{
hints = (
{
horizontal = 1;
place = (30,440);
type = Stem;
},
{
place = (40,90);
type = Stem;
}
);
layerId = m003;
shapes = (
{
closed = 1;
nodes = (
(377,169,o),
(243,213,o),
(118,245,cs),
(112,246,o),
(113,251,o),
(121,254,cs),
(258,307,o),
(397,351,o),
(532,384,cs),
(551,388,o),
(562,401,o),
(565,421,cs),
(567,428,ls),
(570,448,o),
(558,472,o),
(537,464,cs),
(389,405,o),
(241,355,o),
(93,296,cs),
(71,287,o),
(57,276,o),
(57,259,cs),
(56,244,ls),
(55,223,o),
(60,211,o),
(77,204,cs),
(209,155,o),
(349,95,o),
(478,36,cs),
(498,28,o),
(517,55,o),
(521,79,cs),
(521,80,ls),
(524,101,o),
(517,120,o),
(500,127,cs)
);
}
);
width = 600;
}
);
note = less;
unicode = 60;
userData = {
KernOnSpecialSpacing = {
L = math;
R = math;
};
};
}
{
glyphname = equal;
kernLeft = KO_equal;
kernRight = KO_equal;
layers = (
{
hints = (
{
horizontal = 1;
place = (138,65);
type = Stem;
},
{
horizontal = 1;
place = (298,65);
type = Stem;
},
{
place = (40,400);
type = Stem;
}
);
layerId = m005;
shapes = (
{
closed = 1;
nodes = (
(503,331,ls),
(506,351,o),
(497,375,o),
(478,373,cs),
(364,363,o),
(252,363,o),
(140,363,cs),
(120,363,o),
(106,351,o),
(103,331,cs),
(103,330,ls),
(100,310,o),
(108,286,o),
(128,288,cs),
(242,298,o),
(354,298,o),
(464,288,cs),
(484,286,o),
(500,310,o),
(503,330,cs)
);
},
{
closed = 1;
nodes = (
(497,171,ls),
(500,191,o),
(482,215,o),
(462,213,cs),
(338,203,o),
(228,213,o),
(116,213,cs),
(96,213,o),
(80,191,o),
(77,171,cs),
(77,170,ls),
(74,150,o),
(83,126,o),
(102,128,cs),
(216,138,o),
(338,138,o),
(448,128,cs),
(469,126,o),
(494,150,o),
(497,170,cs)
);
}
);
width = 600;
},
{
hints = (
{
horizontal = 1;
place = (138,65);
type = Stem;
},
{
horizontal = 1;
place = (298,65);
type = Stem;
},
{
place = (40,400);
type = Stem;
}
);
layerId = m002;
shapes = (
{
closed = 1;
nodes = (
(528,331,ls),
(533,365,o),
(516,402,o),
(479,398,cs),
(367,388,o),
(256,388,o),
(144,388,cs),
(110,388,o),
(83,365,o),
(78,331,cs),
(78,330,ls),
(73,296,o),
(90,259,o),
(126,263,cs),
(239,273,o),
(349,273,o),
(458,263,cs),
(494,259,o),
(523,296,o),
(528,330,cs)
);
},
{
closed = 1;
nodes = (
(522,171,ls),
(528,206,o),
(498,241,o),
(464,238,cs),
(342,228,o),
(233,238,o),
(120,238,cs),
(88,238,o),
(58,208,o),
(52,171,cs),
(52,170,ls),
(47,136,o),
(64,99,o),
(101,103,cs),
(213,113,o),
(333,113,o),
(443,103,cs),
(476,100,o),
(516,135,o),
(522,170,cs)
);
}
);
width = 600;
},
{
hints = (
{
horizontal = 1;
place = (138,65);
type = Stem;
},
{
horizontal = 1;
place = (298,65);
type = Stem;
},
{
place = (40,400);
type = Stem;
}
);
layerId = m003;
shapes = (
{
closed = 1;
nodes = (
(493,331,ls),
(496,347,o),
(489,364,o),
(477,363,cs),
(363,353,o),
(251,353,o),
(139,353,cs),
(125,353,o),
(115,345,o),
(113,331,cs),
(113,330,ls),
(110,314,o),
(117,297,o),
(129,298,cs),
(243,308,o),
(355,308,o),
(467,298,cs),
(479,297,o),
(490,314,o),
(493,330,cs)
);
},
{
closed = 1;
nodes = (
(487,171,ls),
(489,186,o),
(474,204,o),
(461,203,cs),
(337,193,o),
(226,203,o),
(114,203,cs),
(101,203,o),
(90,187,o),
(87,171,cs),
(87,170,ls),
(84,154,o),
(91,137,o),
(103,138,cs),
(217,148,o),
(339,148,o),
(451,138,cs),
(464,137,o),
(485,155,o),
(487,170,cs)
);
}
);
width = 600;
}
);
note = equal;
unicode = 61;
userData = {
KernOnSpecialSpacing = {
L = math;
R = math;
};
};
}
{
glyphname = greater;
kernLeft = KO_greater;
kernRight = KO_greater;
layers = (
{
hints = (
{
horizontal = 1;
place = (30,440);
type = Stem;
},
{
place = (450,90);
type = Stem;
}
);
layerId = m005;
shapes = (
{
closed = 1;
nodes = (
(548,250,ls),
(557,275,o),
(546,296,o),
(526,304,cs),
(393,354,o),
(269,404,o),
(139,474,cs),
(116,487,o),
(90,451,o),
(86,423,cs),
(85,419,ls),
(81,397,o),
(89,379,o),
(110,374,cs),
(224,345,o),
(326,297,o),
(439,257,cs),
(447,254,o),
(446,247,o),
(435,245,cs),
(305,214,o),
(187,174,o),
(60,126,cs),
(38,118,o),
(25,103,o),
(21,81,cs),
(20,73,ls),
(13,28,o),
(49,13,o),
(78,26,cs),
(229,96,o),
(359,146,o),
(509,196,cs),
(530,204,o),
(537,223,o),
(546,245,cs)
);
}
);
width = 600;
},
{
hints = (
{
horizontal = 1;
place = (30,440);
type = Stem;
},
{
place = (450,90);
type = Stem;
}
);
layerId = m002;
shapes = (
{
closed = 1;
nodes = (
(572,246,l),
(584,283,o),
(567,316,o),
(539,327,cs),
(405,377,o),
(283,427,o),
(153,496,cs),
(115,517,o),
(69,474,o),
(61,423,cs),
(60,419,ls),
(54,382,o),
(71,357,o),
(100,350,cs),
(188,328,o),
(270,294,o),
(353,261,cs),
(362,258,o),
(360,251,o),
(350,248,cs),
(249,221,o),
(155,187,o),
(55,149,cs),
(23,138,o),
(1,114,o),
(-4,81,cs),
(-5,73,ls),
(-15,8,o),
(40,-17,o),
(85,4,cs),
(236,73,o),
(365,123,o),
(514,173,cs),
(546,184,o),
(558,209,o),
(569,240,c)
);
}
);
width = 600;
},
{
hints = (
{
horizontal = 1;
place = (30,440);
type = Stem;
},
{
place = (450,90);
type = Stem;
}
);
layerId = m003;
shapes = (
{
closed = 1;
nodes = (
(539,252,ls),
(545,272,o),
(537,288,o),
(522,295,cs),
(388,345,o),
(263,395,o),
(134,465,cs),
(118,473,o),
(100,446,o),
(96,423,cs),
(95,419,ls),
(92,401,o),
(99,388,o),
(114,384,cs),
(243,351,o),
(356,295,o),
(482,253,cs),
(488,251,o),
(486,246,o),
(480,245,cs),
(331,214,o),
(203,170,o),
(63,117,cs),
(43,110,o),
(34,99,o),
(31,81,cs),
(30,73,ls),
(24,37,o),
(52,25,o),
(75,35,cs),
(227,105,o),
(357,155,o),
(507,205,cs),
(523,211,o),
(528,225,o),
(537,247,cs)
);
}
);
width = 600;
}
);
note = greater;
unicode = 62;
userData = {
KernOnSpecialSpacing = {
L = math;
R = math;
};
};
}
{
glyphname = question;
kernLeft = KO_question;
layers = (
{
hints = (
{
horizontal = 1;
place = (-5,120);
type = Stem;
},
{
horizontal = 1;
place = (597,70);
type = Stem;
},
{
place = (188,93);
type = Stem;
},
{
place = (313,100);
type = Stem;
},
{
place = (178,120);
type = Stem;
},
{
horizontal = 1;
place = (-10,85);
type = Stem;
},
{
horizontal = 1;
place = (597,80);
type = Stem;
},
{
place = (41,90);
type = Stem;
},
{
place = (331,110);
type = Stem;
}
);
layerId = m005;
shapes = (
{
closed = 1;
nodes = (
(158,225,o),
(193,243,o),
(195,267,cs),
(200,314,o),
(225,327,o),
(245,340,cs),
(295,369,o),
(350,411,o),
(369,499,cs),
(392,607,o),
(338,677,o),
(230,677,cs),
(183,677,o),
(142,667,o),
(104,647,cs),
(75,632,o),
(60,600,o),
(77,581,cs),
(89,568,o),
(115,559,o),
(135,569,cs),
(157,581,o),
(184,597,o),
(213,597,cs),
(269,597,o),
(293,562,o),
(279,500,cs),
(266,438,o),
(225,420,o),
(168,385,cs),
(129,361,o),
(109,323,o),
(99,262,cs),
(95,240,o),
(109,225,o),
(135,225,cs)
);
},
{
pos = (-18,0);
ref = period;
}
);
width = 344;
},
{
hints = (
{
horizontal = 1;
place = (-5,120);
type = Stem;
},
{
horizontal = 1;
place = (597,70);
type = Stem;
},
{
place = (188,93);
type = Stem;
},
{
place = (313,100);
type = Stem;
},
{
place = (178,120);
type = Stem;
},
{
horizontal = 1;
place = (-10,85);
type = Stem;
},
{
horizontal = 1;
place = (597,80);
type = Stem;
},
{
place = (41,90);
type = Stem;
},
{
place = (331,110);
type = Stem;
}
);
layerId = m002;
shapes = (
{
closed = 1;
nodes = (
(232,210,o),
(293,253,o),
(294,298,cs),
(294,312,o),
(291,320,o),
(313,334,cs),
(365,366,o),
(432,387,o),
(450,499,cs),
(466,599,o),
(390,692,o),
(254,692,cs),
(199,692,o),
(149,680,o),
(102,655,cs),
(45,623,o),
(18,551,o),
(59,509,cs),
(86,482,o),
(135,469,o),
(177,491,cs),
(198,504,o),
(212,512,o),
(226,512,cs),
(239,512,o),
(262,508,o),
(259,490,cs),
(256,468,o),
(244,464,o),
(183,426,cs),
(126,390,o),
(106,369,o),
(98,295,cs),
(92,246,o),
(126,210,o),
(179,210,cs)
);
},
{
pos = (43,0);
ref = period;
}
);
width = 400;
},
{
hints = (
{
horizontal = 1;
place = (-5,120);
type = Stem;
},
{
horizontal = 1;
place = (597,70);
type = Stem;
},
{
place = (188,93);
type = Stem;
},
{
place = (313,100);
type = Stem;
},
{
place = (178,120);
type = Stem;
},
{
horizontal = 1;
place = (-10,85);
type = Stem;
},
{
horizontal = 1;
place = (597,80);
type = Stem;
},
{
place = (41,90);
type = Stem;
},
{
place = (331,110);
type = Stem;
}
);
layerId = m003;
shapes = (
{
closed = 1;
nodes = (
(151,225,o),
(177,238,o),
(179,256,cs),
(184,309,o),
(217,335,o),
(237,348,cs),
(286,377,o),
(337,415,o),
(355,499,cs),
(379,613,o),
(330,677,o),
(226,677,cs),
(180,677,o),
(142,668,o),
(105,648,cs),
(81,635,o),
(69,613,o),
(83,598,cs),
(94,587,o),
(114,580,o),
(130,588,cs),
(151,599,o),
(181,617,o),
(213,617,cs),
(275,617,o),
(302,577,o),
(285,500,cs),
(271,432,o),
(224,411,o),
(168,377,cs),
(133,355,o),
(112,312,o),
(103,252,cs),
(100,235,o),
(109,225,o),
(131,225,cs)
);
},
{
pos = (-19,0);
ref = period;
}
);
width = 335;
}
);
metricLeft = "=S";
metricRight = "=|S";
note = question;
unicode = 63;
userData = {
KernOnSpecialSpacing = {
L = "spaced-off";
};
};
}
{
glyphname = at;
layers = (
{
hints = (
{
horizontal = 1;
place = (-107,70);
type = Stem;
},
{
horizontal = 1;
place = (0,21);
target = up;
type = BottomGhost;
},
{
horizontal = 1;
place = (87,80);
type = Stem;
},
{
horizontal = 1;
place = (347,60);
type = Stem;
},
{
horizontal = 1;
place = (532,75);
type = Stem;
},
{
place = (26,78);
type = Stem;
},
{
place = (203,90);
type = Stem;
},
{
place = (473,95);
type = Stem;
}
);
layerId = m005;
shapes = (
{
closed = 1;
nodes = (
(805,629,o),
(807,468,o),
(789,355,cs),
(765,202,o),
(695,169,o),
(664,169,cs),
(594,169,o),
(671,347,o),
(700,459,cs),
(706,487,o),
(685,505,o),
(661,515,cs),
(624,529,o),
(591,540,o),
(527,540,cs),
(377,540,o),
(289,395,o),
(275,310,cs),
(271,285,ls),
(250,155,o),
(280,70,o),
(387,70,cs),
(476,70,o),
(532,135,o),
(547,135,cs),
(556,135,o),
(578,70,o),
(648,70,cs),
(716,70,o),
(850,113,o),
(889,361,cs),
(924,574,o),
(859,710,o),
(589,710,cs),
(298,710,o),
(93,524,o),
(56,292,cs),
(20,67,o),
(97,-152,o),
(387,-152,cs),
(474,-152,o),
(581,-139,o),
(625,-111,cs),
(660,-90,o),
(669,-37,o),
(658,-17,cs),
(656,-16,ls),
(646,4,o),
(627,5,o),
(603,-7,cs),
(539,-40,o),
(466,-52,o),
(403,-52,cs),
(183,-52,o),
(136,115,o),
(163,290,cs),
(197,497,o),
(363,629,o),
(578,629,cs)
);
},
{
closed = 1;
nodes = (
(369,155,o),
(358,204,o),
(371,285,cs),
(375,310,ls),
(384,363,o),
(434,465,o),
(516,465,cs),
(552,465,o),
(575,460,o),
(591,457,cs),
(597,456,o),
(598,452,o),
(596,446,cs),
(584,394,o),
(572,352,o),
(550,280,cs),
(530,213,o),
(482,155,o),
(425,155,cs)
);
}
);
width = 919;
},
{
hints = (
{
horizontal = 1;
place = (-107,70);
type = Stem;
},
{
horizontal = 1;
place = (0,21);
target = up;
type = BottomGhost;
},
{
horizontal = 1;
place = (87,80);
type = Stem;
},
{
horizontal = 1;
place = (347,60);
type = Stem;
},
{
horizontal = 1;
place = (532,75);
type = Stem;
},
{
place = (26,78);
type = Stem;
},
{
place = (203,90);
type = Stem;
},
{
place = (473,95);
type = Stem;
}
);
layerId = m002;
shapes = (
{
closed = 1;
nodes = (
(766,604,o),
(767,464,o),
(750,355,cs),
(729,222,o),
(673,194,o),
(653,194,cs),
(622,194,o),
(682,346,o),
(711,457,cs),
(720,495,o),
(696,523,o),
(659,538,cs),
(622,553,o),
(586,565,o),
(518,565,cs),
(350,565,o),
(251,403,o),
(236,310,cs),
(232,285,ls),
(210,146,o),
(243,45,o),
(368,45,cs),
(470,45,o),
(522,110,o),
(529,110,cs),
(537,110,o),
(543,45,o),
(629,45,cs),
(704,45,o),
(857,92,o),
(900,361,cs),
(936,584,o),
(866,735,o),
(579,735,cs),
(274,735,o),
(56,538,o),
(17,292,cs),
(-24,33,o),
(61,-177,o),
(369,-177,cs),
(459,-177,o),
(571,-164,o),
(623,-132,cs),
(672,-101,o),
(682,-32,o),
(665,-1,cs),
(665,0,ls),
(649,27,o),
(620,34,o),
(581,15,cs),
(520,-16,o),
(453,-27,o),
(393,-27,cs),
(191,-27,o),
(148,123,o),
(174,290,cs),
(205,482,o),
(358,604,o),
(560,604,cs)
);
},
{
closed = 1;
nodes = (
(402,205,o),
(390,223,o),
(405,285,cs),
(411,310,ls),
(420,349,o),
(452,415,o),
(494,415,cs),
(502,415,o),
(509,415,o),
(514,413,cs),
(521,411,o),
(520,405,o),
(518,395,cs),
(515,382,o),
(509,357,o),
(487,286,cs),
(472,237,o),
(444,205,o),
(419,205,cs)
);
}
);
width = 890;
},
{
hints = (
{
horizontal = 1;
place = (-107,70);
type = Stem;
},
{
horizontal = 1;
place = (0,21);
target = up;
type = BottomGhost;
},
{
horizontal = 1;
place = (87,80);
type = Stem;
},
{
horizontal = 1;
place = (347,60);
type = Stem;
},
{
horizontal = 1;
place = (532,75);
type = Stem;
},
{
place = (26,78);
type = Stem;
},
{
place = (203,90);
type = Stem;
},
{
place = (473,95);
type = Stem;
}
);
layerId = m003;
shapes = (
{
closed = 1;
nodes = (
(817,639,o),
(818,469,o),
(800,355,cs),
(774,194,o),
(697,159,o),
(662,159,cs),
(577,159,o),
(663,349,o),
(691,460,cs),
(696,481,o),
(679,496,o),
(657,506,cs),
(620,520,o),
(589,530,o),
(527,530,cs),
(384,530,o),
(299,392,o),
(286,310,cs),
(282,285,ls),
(261,159,o),
(289,80,o),
(389,80,cs),
(495,80,o),
(537,145,o),
(550,145,cs),
(559,145,o),
(572,80,o),
(650,80,cs),
(715,80,o),
(841,121,o),
(880,361,cs),
(914,570,o),
(851,700,o),
(588,700,cs),
(303,700,o),
(103,518,o),
(67,292,cs),
(32,70,o),
(107,-142,o),
(390,-142,cs),
(476,-142,o),
(579,-129,o),
(622,-103,cs),
(650,-86,o),
(658,-40,o),
(650,-23,cs),
(649,-22,ls),
(640,-7,o),
(627,-6,o),
(607,-16,cs),
(541,-50,o),
(467,-62,o),
(403,-62,cs),
(175,-62,o),
(127,112,o),
(154,290,cs),
(189,503,o),
(361,639,o),
(581,639,cs)
);
},
{
closed = 1;
nodes = (
(361,145,o),
(348,201,o),
(362,285,cs),
(366,310,ls),
(374,365,o),
(429,475,o),
(519,475,cs),
(556,475,o),
(580,470,o),
(595,467,cs),
(605,465,o),
(610,458,o),
(607,446,cs),
(595,393,o),
(582,351,o),
(561,279,cs),
(540,208,o),
(488,145,o),
(425,145,cs)
);
}
);
width = 920;
}
);
metricLeft = "=o";
metricRight = "=o";
note = at;
unicode = 64;
userData = {
KernOnSpecialSpacing = {
L = symbols;
R = symbols;
};
};
}
{
glyphname = A;
kernLeft = KO_A;
kernRight = KO_A;
layers = (
{
anchors = (
{
name = bottom;
pos = (241,0);
},
{
name = ogonek;
pos = (462,10);
},
{
name = top;
pos = (341,625);
}
);
hints = (
{
horizontal = 1;
place = (0,21);
target = up;
type = BottomGhost;
},
{
horizontal = 1;
place = (150,75);
type = Stem;
},
{
horizontal = 1;
place = (557,110);
type = Stem;
},
{
place = (-42,516);
type = Stem;
}
);
layerId = m005;
shapes = (
{
closed = 1;
nodes = (
(76,0,o),
(98,16,o),
(109,48,cs),
(119,77,o),
(130,106,o),
(141,134,cs),
(142,140,o),
(146,143,o),
(152,143,cs),
(227,146,o),
(301,147,o),
(374,147,cs),
(380,147,o),
(384,144,o),
(384,138,cs),
(386,113,o),
(387,87,o),
(387,62,cs),
(390,21,o),
(406,0,o),
(444,0,cs),
(478,0,o),
(498,22,o),
(495,59,cs),
(479,243,o),
(449,451,o),
(408,633,cs),
(401,663,o),
(382,677,o),
(350,677,cs),
(316,677,o),
(293,663,o),
(278,633,cs),
(208,508,o),
(141,370,o),
(80,235,cs),
(79,230,o),
(74,227,o),
(68,227,cs),
(41,227,ls),
(16,227,o),
(0,213,o),
(-4,188,cs),
(-4,186,ls),
(-9,161,o),
(2,135,o),
(27,137,cs),
(29,137,o),
(31,137,o),
(33,138,cs),
(37,138,o),
(37,133,o),
(34,126,cs),
(24,103,o),
(14,81,o),
(7,59,cs),
(-8,22,o),
(6,0,o),
(43,0,cs)
);
},
{
closed = 1;
nodes = (
(180,227,o),
(178,231,o),
(181,238,cs),
(225,354,o),
(274,463,o),
(322,550,cs),
(327,558,o),
(333,558,o),
(336,550,cs),
(354,464,o),
(368,359,o),
(377,246,cs),
(378,238,o),
(375,233,o),
(367,232,cs),
(308,229,o),
(248,228,o),
(187,227,cs)
);
}
);
width = 550;
},
{
anchors = (
{
name = bottom;
pos = (271,0);
},
{
name = ogonek;
pos = (493,10);
},
{
name = top;
pos = (372,625);
}
);
hints = (
{
horizontal = 1;
place = (0,21);
target = up;
type = BottomGhost;
},
{
horizontal = 1;
place = (150,75);
type = Stem;
},
{
horizontal = 1;
place = (557,110);
type = Stem;
},
{
place = (-42,516);
type = Stem;
}
);
layerId = m002;
shapes = (
{
closed = 1;
nodes = (
(127,-25,o),
(178,8,o),
(192,64,cs),
(195,75,o),
(193,70,o),
(195,75,cs),
(200,90,o),
(215,93,o),
(227,93,cs),
(301,96,o),
(284,97,o),
(357,97,cs),
(367,97,o),
(371,91,o),
(372,84,cs),
(372,76,o),
(372,77,o),
(372,77,cs),
(368,13,o),
(412,-25,o),
(471,-25,cs),
(537,-25,o),
(585,27,o),
(580,96,cs),
(564,281,o),
(524,432,o),
(482,616,cs),
(471,665,o),
(436,692,o),
(383,692,cs),
(328,692,o),
(285,665,o),
(258,616,cs),
(189,489,o),
(155,440,o),
(94,304,cs),
(85,287,o),
(78,277,o),
(67,277,cs),
(57,277,ls),
(32,277,o),
(-15,241,o),
(-23,188,cs),
(-23,186,ls),
(-32,132,o),
(-17,134,o),
(-8,116,cs),
(-6,113,o),
(-3,111,o),
(-3,108,cs),
(-3,105,o),
(-3,105,o),
(-3,101,cs),
(-3,101,o),
(-7,95,o),
(-7,95,cs),
(-39,29,o),
(1,-25,o),
(70,-25,cs)
);
},
{
closed = 1;
nodes = (
(285,277,o),
(286,293,o),
(292,310,cs),
(302,338,o),
(308,351,o),
(325,379,cs),
(331,390,o),
(337,384,o),
(339,379,cs),
(344,356,o),
(344,334,o),
(347,307,cs),
(349,296,o),
(344,283,o),
(327,279,cs),
(315,276,o),
(308,277,o),
(296,277,cs)
);
}
);
width = 622;
},
{
anchors = (
{
name = bottom;
pos = (221,0);
},
{
name = ogonek;
pos = (442,10);
},
{
name = top;
pos = (321,625);
}
);
hints = (
{
horizontal = 1;
place = (0,21);
target = up;
type = BottomGhost;
},
{
horizontal = 1;
place = (150,75);
type = Stem;
},
{
horizontal = 1;
place = (557,110);
type = Stem;
},
{
place = (-42,516);
type = Stem;
}
);
layerId = m003;
shapes = (
{
closed = 1;
nodes = (
(52,0,o),
(69,11,o),
(79,40,cs),
(92,76,o),
(103,111,o),
(117,147,cs),
(118,151,o),
(121,153,o),
(125,153,cs),
(206,157,o),
(286,157,o),
(366,157,cs),
(370,157,o),
(372,156,o),
(372,151,cs),
(374,119,o),
(375,86,o),
(377,54,cs),
(378,16,o),
(390,0,o),
(424,0,cs),
(453,0,o),
(465,14,o),
(462,47,cs),
(447,230,o),
(421,455,o),
(379,636,cs),
(373,663,o),
(359,674,o),
(330,674,cs),
(299,674,o),
(281,663,o),
(267,636,cs),
(198,510,o),
(128,362,o),
(69,223,cs),
(67,219,o),
(63,217,o),
(59,217,cs),
(19,217,ls),
(-2,217,o),
(-10,209,o),
(-14,188,cs),
(-14,186,ls),
(-18,164,o),
(-11,145,o),
(8,147,cs),
(15,148,o),
(22,148,o),
(29,148,cs),
(34,149,o),
(35,146,o),
(33,141,cs),
(21,109,o),
(7,77,o),
(-6,47,cs),
(-19,14,o),
(-9,0,o),
(23,0,cs)
);
},
{
closed = 1;
nodes = (
(145,217,o),
(144,220,o),
(146,225,cs),
(199,362,o),
(257,493,o),
(311,590,cs),
(314,595,o),
(318,595,o),
(321,589,cs),
(343,495,o),
(356,367,o),
(367,233,cs),
(368,227,o),
(365,223,o),
(360,223,cs),
(291,219,o),
(220,218,o),
(150,217,cs)
);
}
);
width = 550;
}
);
note = A;
unicode = 65;
userData = {
KernOnName = A;
};
}
{
glyphname = B;
kernLeft = KO_D;
kernRight = KO_B;
layers = (
{
hints = (
{
horizontal = 1;
place = (0,21);
target = up;
type = BottomGhost;
},
{
horizontal = 1;
place = (282,67);
type = Stem;
},
{
horizontal = 1;
place = (598,69);
type = Stem;
},
{
place = (16,100);
type = Stem;
},
{
place = (352,99);
type = Stem;
}
);
layerId = m005;
shapes = (
{
closed = 1;
nodes = (
(227,0,ls),
(391,0,o),
(502,68,o),
(512,190,cs),
(517,257,o),
(498,307,o),
(441,336,cs),
(435,340,o),
(436,344,o),
(444,348,cs),
(500,376,o),
(535,422,o),
(544,484,cs),
(563,602,o),
(489,675,o),
(335,677,cs),
(270,678,o),
(167,673,o),
(128,667,cs),
(96,662,o),
(69,639,o),
(69,608,cs),
(69,569,o),
(117,585,o),
(117,576,cs),
(115,486,o),
(66,220,o),
(29,49,cs),
(23,18,o),
(50,0,o),
(81,0,cs)
);
},
{
closed = 1;
nodes = (
(150,90,o),
(147,94,o),
(148,100,cs),
(179,290,ls),
(179,296,o),
(184,300,o),
(190,300,cs),
(276,300,ls),
(381,300,o),
(425,265,o),
(413,190,cs),
(401,115,o),
(347,90,o),
(242,90,cs),
(156,90,ls)
);
},
{
closed = 1;
nodes = (
(198,380,o),
(194,383,o),
(195,390,cs),
(205,452,o),
(206,513,o),
(216,576,cs),
(217,583,o),
(222,587,o),
(228,587,cs),
(322,587,ls),
(417,587,o),
(457,554,o),
(445,484,cs),
(434,413,o),
(384,380,o),
(289,380,cs),
(204,380,ls)
);
}
);
width = 538;
},
{
hints = (
{
horizontal = 1;
place = (0,21);
target = up;
type = BottomGhost;
},
{
horizontal = 1;
place = (282,67);
type = Stem;
},
{
horizontal = 1;
place = (598,69);
type = Stem;
},
{
place = (16,100);
type = Stem;
},
{
place = (352,99);
type = Stem;
}
);
layerId = m002;
shapes = (
{
closed = 1;
nodes = (
(275,-15,ls),
(462,-15,o),
(607,72,o),
(619,229,cs),
(622,269,o),
(615,290,o),
(600,310,cs),
(583,335,o),
(587,355,o),
(610,381,cs),
(626,398,o),
(635,416,o),
(640,449,cs),
(663,598,o),
(564,682,o),
(387,682,cs),
(297,682,o),
(202,678,o),
(148,667,cs),
(85,655,o),
(64,612,o),
(65,578,cs),
(67,507,o),
(113,534,o),
(110,508,cs),
(96,401,o),
(66,224,o),
(37,87,cs),
(23,26,o),
(70,-15,o),
(129,-15,cs)
);
},
{
closed = 1;
nodes = (
(295,157,o),
(258,158,o),
(263,193,cs),
(267,218,ls),
(272,250,o),
(292,269,o),
(321,268,cs),
(363,266,ls),
(409,264,o),
(423,244,o),
(417,213,cs),
(412,179,o),
(377,160,o),
(354,159,cs),
(318,158,ls)
);
},
{
closed = 1;
nodes = (
(316,412,o),
(296,417,o),
(302,449,cs),
(303,461,o),
(304,455,o),
(307,480,cs),
(310,500,o),
(311,519,o),
(347,519,cs),
(386,519,ls),
(415,519,o),
(450,509,o),
(443,466,cs),
(439,435,o),
(412,412,o),
(368,412,cs),
(345,412,ls)
);
}
);
width = 632;
},
{
hints = (
{
horizontal = 1;
place = (0,21);
target = up;
type = BottomGhost;
},
{
horizontal = 1;
place = (282,67);
type = Stem;
},
{
horizontal = 1;
place = (598,69);
type = Stem;
},
{
place = (16,100);
type = Stem;
},
{
place = (352,99);
type = Stem;
}
);
layerId = m003;
shapes = (
{
closed = 1;
nodes = (
(202,0,ls),
(363,0,o),
(467,63,o),
(478,189,cs),
(482,254,o),
(466,304,o),
(411,332,cs),
(399,340,o),
(399,344,o),
(414,352,cs),
(469,378,o),
(500,425,o),
(509,484,cs),
(529,604,o),
(459,672,o),
(310,674,cs),
(245,675,o),
(144,670,o),
(104,664,cs),
(76,660,o),
(56,643,o),
(56,617,cs),
(55,574,o),
(105,609,o),
(103,584,cs),
(102,494,o),
(50,210,o),
(13,38,cs),
(7,13,o),
(28,0,o),
(56,0,cs)
);
},
{
closed = 1;
nodes = (
(116,70,o),
(110,78,o),
(111,90,cs),
(143,290,ls),
(146,302,o),
(154,310,o),
(166,310,cs),
(252,310,ls),
(362,310,o),
(411,272,o),
(399,190,cs),
(384,98,o),
(323,70,o),
(214,70,cs),
(128,70,ls)
);
},
{
closed = 1;
nodes = (
(165,370,o),
(158,377,o),
(160,390,cs),
(170,451,o),
(172,519,o),
(182,583,cs),
(184,596,o),
(194,604,o),
(206,604,cs),
(300,604,ls),
(400,604,o),
(444,567,o),
(430,484,cs),
(418,407,o),
(362,370,o),
(262,370,cs),
(177,370,ls)
);
}
);
width = 506;
}
);
note = P;
unicode = 66;
}
{
glyphname = C;
kernLeft = KO_O;
kernRight = KO_C;
layers = (
{
anchors = (
{
name = bottom;
pos = (226,0);
},
{
name = top;
pos = (327,625);
}
);
hints = (
{
horizontal = 1;
place = (-10,85);
type = Stem;
},
{
horizontal = 1;
place = (597,80);
type = Stem;
},
{
place = (-19,110);
type = Stem;
}
);
layerId = m005;
shapes = (
{
closed = 1;
nodes = (
(272,-10,o),
(324,-1,o),
(372,17,cs),
(396,26,o),
(413,45,o),
(405,69,cs),
(393,100,o),
(375,114,o),
(352,107,cs),
(317,96,o),
(277,80,o),
(239,80,cs),
(144,80,o),
(112,159,o),
(134,295,cs),
(142,347,ls),
(164,483,o),
(227,597,o),
(322,597,cs),
(349,597,o),
(370,582,o),
(387,571,cs),
(407,559,o),
(435,565,o),
(456,583,cs),
(482,605,o),
(477,627,o),
(457,643,cs),
(426,666,o),
(385,677,o),
(335,677,cs),
(181,677,o),
(71,527,o),
(42,347,cs),
(34,295,ls),
(5,115,o),
(71,-10,o),
(225,-10,cs)
);
}
);
width = 451;
},
{
anchors = (
{
name = bottom;
pos = (226,0);
},
{
name = top;
pos = (327,625);
}
);
hints = (
{
horizontal = 1;
place = (-10,85);
type = Stem;
},
{
horizontal = 1;
place = (597,80);
type = Stem;
},
{
place = (-19,110);
type = Stem;
}
);
layerId = m002;
shapes = (
{
closed = 1;
nodes = (
(275,-25,o),
(334,-15,o),
(387,6,cs),
(443,26,o),
(473,75,o),
(459,127,cs),
(443,185,o),
(396,204,o),
(350,190,cs),
(312,178,o),
(281,165,o),
(253,165,cs),
(187,165,o),
(170,207,o),
(184,295,cs),
(192,347,ls),
(207,438,o),
(248,512,o),
(309,512,cs),
(321,512,o),
(331,504,o),
(350,492,cs),
(388,469,o),
(440,479,o),
(480,513,cs),
(529,556,o),
(532,614,o),
(485,649,cs),
(446,678,o),
(396,692,o),
(337,692,cs),
(148,692,o),
(19,511,o),
(-8,347,cs),
(-16,295,ls),
(-43,128,o),
(36,-25,o),
(223,-25,cs)
);
}
);
width = 488;
},
{
anchors = (
{
name = bottom;
pos = (226,0);
},
{
name = top;
pos = (327,625);
}
);
hints = (
{
horizontal = 1;
place = (-10,85);
type = Stem;
},
{
horizontal = 1;
place = (597,80);
type = Stem;
},
{
place = (-19,110);
type = Stem;
}
);
layerId = m003;
shapes = (
{
closed = 1;
nodes = (
(272,0,o),
(322,9,o),
(369,26,cs),
(391,34,o),
(401,46,o),
(395,64,cs),
(385,93,o),
(371,103,o),
(353,97,cs),
(320,87,o),
(278,70,o),
(238,70,cs),
(136,70,o),
(101,155,o),
(124,295,cs),
(132,347,ls),
(154,486,o),
(221,607,o),
(324,607,cs),
(354,607,o),
(377,591,o),
(393,580,cs),
(410,570,o),
(431,574,o),
(451,590,cs),
(470,608,o),
(468,621,o),
(449,635,cs),
(420,657,o),
(383,667,o),
(334,667,cs),
(186,667,o),
(80,524,o),
(52,347,cs),
(44,295,ls),
(15,118,o),
(77,0,o),
(226,0,cs)
);
}
);
width = 444;
}
);
metricLeft = "=O";
metricRight = "=O/4";
note = C;
unicode = 67;
userData = {
KernOnName = C;
};
}
{
glyphname = D;
kernLeft = KO_B;
kernRight = KO_D;
layers = (
{
anchors = (
{
name = bottom;
pos = (242,0);
},
{
name = center;
pos = (147,334);
},
{
name = top;
pos = (342,625);
}
);
hints = (
{
horizontal = 1;
place = (-10,80);
type = Stem;
},
{
horizontal = 1;
place = (597,80);
type = Stem;
},
{
place = (-19,110);
type = Stem;
},
{
place = (371,110);
type = Stem;
}
);
layerId = m005;
shapes = (
{
closed = 1;
nodes = (
(231,0,ls),
(385,0,o),
(516,126,o),
(552,347,cs),
(587,571,o),
(518,677,o),
(364,677,cs),
(254,677,o),
(177,673,o),
(137,667,cs),
(105,662,o),
(68,649,o),
(71,610,cs),
(73,574,o),
(116,589,o),
(115,574,cs),
(95,399,o),
(66,224,o),
(28,49,cs),
(22,18,o),
(49,0,o),
(80,0,cs)
);
},
{
closed = 1;
nodes = (
(173,262,o),
(196,409,o),
(214,572,cs),
(213,578,o),
(218,582,o),
(224,582,cs),
(349,582,ls),
(444,582,o),
(480,526,o),
(452,347,cs),
(423,171,o),
(340,90,o),
(245,90,cs),
(145,90,ls),
(139,90,o),
(136,94,o),
(137,100,cs)
);
}
);
width = 590;
},
{
anchors = (
{
name = bottom;
pos = (267,0);
},
{
name = center;
pos = (160,334);
},
{
name = top;
pos = (368,625);
}
);
hints = (
{
horizontal = 1;
place = (-10,80);
type = Stem;
},
{
horizontal = 1;
place = (597,80);
type = Stem;
},
{
place = (-19,110);
type = Stem;
},
{
place = (371,110);
type = Stem;
}
);
layerId = m002;
shapes = (
{
closed = 1;
nodes = (
(279,-25,ls),
(462,-25,o),
(617,124,o),
(653,347,cs),
(689,573,o),
(601,692,o),
(418,692,cs),
(290,692,o),
(237,688,o),
(190,677,cs),
(129,663,o),
(64,639,o),
(65,580,cs),
(67,522,o),
(110,540,o),
(106,503,cs),
(89,347,o),
(71,242,o),
(34,77,cs),
(22,16,o),
(69,-25,o),
(128,-25,cs)
);
},
{
closed = 1;
nodes = (
(270,275,o),
(285,380,o),
(289,408,cs),
(298,464,o),
(295,507,o),
(334,507,cs),
(389,507,ls),
(459,507,o),
(474,480,o),
(453,347,cs),
(432,215,o),
(381,165,o),
(309,165,cs),
(264,165,ls),
(251,165,o),
(245,175,o),
(249,188,cs)
);
}
);
width = 641;
},
{
anchors = (
{
name = bottom;
pos = (228,0);
},
{
name = center;
pos = (140,334);
},
{
name = top;
pos = (328,625);
}
);
hints = (
{
horizontal = 1;
place = (-10,80);
type = Stem;
},
{
horizontal = 1;
place = (597,80);
type = Stem;
},
{
place = (-19,110);
type = Stem;
},
{
place = (371,110);
type = Stem;
}
);
layerId = m003;
shapes = (
{
closed = 1;
nodes = (
(205,0,ls),
(355,0,o),
(479,120,o),
(515,347,cs),
(552,574,o),
(487,674,o),
(338,674,cs),
(228,674,o),
(153,670,o),
(113,664,cs),
(81,659,o),
(55,650,o),
(56,619,cs),
(58,583,o),
(103,609,o),
(100,582,cs),
(80,406,o),
(48,214,o),
(11,38,cs),
(5,13,o),
(26,0,o),
(54,0,cs)
);
},
{
closed = 1;
nodes = (
(135,252,o),
(162,416,o),
(178,578,c),
(179,590,o),
(184,599,o),
(196,599,cs),
(326,599,ls),
(427,599,o),
(466,539,o),
(435,347,cs),
(405,154,o),
(316,70,o),
(216,70,cs),
(111,70,ls),
(99,70,o),
(97,79,o),
(101,91,c)
);
}
);
width = 563;
}
);
metricRight = "=O";
note = O;
unicode = 68;
}
{
glyphname = E;
kernLeft = KO_E;
kernRight = KO_E;
layers = (
{
anchors = (
{
name = bottom;
pos = (219,0);
},
{
name = ogonek;
pos = (417,10);
},
{
name = top;
pos = (320,625);
},
{
name = topleft;
pos = (102,667);
}
);
hints = (
{
horizontal = 1;
place = (0,75);
type = Stem;
},
{
horizontal = 1;
place = (305,74);
type = Stem;
},
{
horizontal = 1;
place = (592,75);
type = Stem;
},
{
place = (16,100);
type = Stem;
}
);
layerId = m005;
shapes = (
{
closed = 1;
nodes = (
(534,653,o),
(523,667,o),
(498,667,cs),
(181,667,ls),
(156,667,o),
(126,653,o),
(126,628,cs),
(114,432,o),
(82,235,o),
(30,39,cs),
(24,14,o),
(48,0,o),
(73,0,cs),
(395,0,ls),
(420,0,o),
(437,14,o),
(440,39,cs),
(445,66,o),
(436,93,o),
(410,90,cs),
(325,81,o),
(241,80,o),
(157,80,cs),
(144,80,o),
(140,87,o),
(142,100,cs),
(159,159,o),
(168,213,o),
(178,272,cs),
(180,284,o),
(187,291,o),
(199,292,cs),
(265,300,o),
(330,300,o),
(394,300,cs),
(419,300,o),
(435,314,o),
(439,339,cs),
(443,366,o),
(434,394,o),
(408,390,cs),
(344,380,o),
(280,380,o),
(214,373,cs),
(201,371,o),
(195,377,o),
(197,390,cs),
(206,447,o),
(216,510,o),
(219,567,cs),
(218,580,o),
(226,587,o),
(239,587,cs),
(319,587,o),
(407,586,o),
(483,577,cs),
(507,574,o),
(526,601,o),
(530,626,cs)
);
}
);
width = 505;
},
{
anchors = (
{
name = bottom;
pos = (242,0);
},
{
name = ogonek;
pos = (440,10);
},
{
name = top;
pos = (343,625);
},
{
name = topleft;
pos = (125,667);
}
);
hints = (
{
horizontal = 1;
place = (0,75);
type = Stem;
},
{
horizontal = 1;
place = (305,74);
type = Stem;
},
{
horizontal = 1;
place = (592,75);
type = Stem;
},
{
place = (16,100);
type = Stem;
}
);
layerId = m002;
shapes = (
{
closed = 1;
nodes = (
(608,656,o),
(577,692,o),
(524,692,cs),
(207,692,ls),
(151,692,o),
(96,653,o),
(93,597,cs),
(82,404,o),
(60,263,o),
(9,70,cs),
(-6,14,o),
(37,-25,o),
(93,-25,cs),
(415,-25,ls),
(468,-25,o),
(509,11,o),
(518,64,cs),
(527,122,o),
(496,171,o),
(439,165,cs),
(357,156,o),
(330,155,o),
(247,155,cs),
(234,155,o),
(223,156,o),
(227,170,cs),
(232,193,o),
(236,211,o),
(240,222,cs),
(244,235,o),
(255,240,o),
(270,242,cs),
(301,246,o),
(344,250,o),
(408,250,cs),
(461,250,o),
(503,286,o),
(512,339,cs),
(522,398,o),
(489,448,o),
(430,439,cs),
(371,430,o),
(336,427,o),
(288,423,cs),
(279,422,o),
(269,427,o),
(272,445,cs),
(273,453,o),
(276,468,o),
(279,488,cs),
(281,502,o),
(287,512,o),
(300,512,cs),
(380,512,o),
(415,511,o),
(488,502,cs),
(543,496,o),
(590,545,o),
(599,601,cs)
);
}
);
width = 566;
},
{
anchors = (
{
name = bottom;
pos = (217,0);
},
{
name = ogonek;
pos = (415,10);
},
{
name = top;
pos = (318,625);
},
{
name = topleft;
pos = (100,667);
}
);
hints = (
{
horizontal = 1;
place = (0,75);
type = Stem;
},
{
horizontal = 1;
place = (305,74);
type = Stem;
},
{
horizontal = 1;
place = (592,75);
type = Stem;
},
{
place = (16,100);
type = Stem;
}
);
layerId = m003;
shapes = (
{
closed = 1;
nodes = (
(523,659,o),
(517,667,o),
(496,667,cs),
(179,667,ls),
(156,667,o),
(136,657,o),
(135,639,cs),
(123,443,o),
(89,224,o),
(37,28,cs),
(32,10,o),
(48,0,o),
(71,0,cs),
(393,0,ls),
(414,0,o),
(424,8,o),
(427,29,cs),
(432,54,o),
(424,72,o),
(406,70,cs),
(321,61,o),
(236,60,o),
(152,60,cs),
(133,60,o),
(125,72,o),
(129,91,cs),
(146,150,o),
(156,213,o),
(166,272,cs),
(169,289,o),
(181,301,o),
(198,302,cs),
(263,310,o),
(329,310,o),
(393,310,cs),
(414,310,o),
(424,318,o),
(427,339,cs),
(430,364,o),
(424,383,o),
(407,380,cs),
(341,370,o),
(277,370,o),
(211,363,cs),
(193,360,o),
(182,371,o),
(185,390,cs),
(194,447,o),
(204,519,o),
(208,576,cs),
(208,595,o),
(221,607,o),
(240,607,cs),
(320,607,o),
(409,606,o),
(485,597,cs),
(503,595,o),
(515,613,o),
(519,636,cs)
);
}
);
width = 498;
}
);
note = E;
unicode = 69;
}
{
glyphname = F;
kernLeft = KO_F;
kernRight = KO_F;
layers = (
{
hints = (
{
horizontal = 1;
place = (0,75);
type = Stem;
},
{
horizontal = 1;
place = (305,74);
type = Stem;
},
{
horizontal = 1;
place = (592,75);
type = Stem;
},
{
place = (16,100);
type = Stem;
}
);
layerId = m005;
shapes = (
{
closed = 1;
nodes = (
(534,653,o),
(523,667,o),
(498,667,cs),
(181,667,ls),
(156,667,o),
(128,653,o),
(126,628,cs),
(104,432,o),
(72,235,o),
(30,39,cs),
(26,14,o),
(48,0,o),
(73,0,cs),
(120,0,o),
(150,14,o),
(150,39,cs),
(154,123,o),
(166,197,o),
(180,281,cs),
(180,287,o),
(184,290,o),
(190,291,cs),
(259,300,o),
(327,300,o),
(394,300,cs),
(419,300,o),
(435,314,o),
(439,339,cs),
(443,366,o),
(434,394,o),
(408,390,cs),
(340,380,o),
(273,380,o),
(206,380,cs),
(199,380,o),
(196,383,o),
(197,390,cs),
(207,452,o),
(217,514,o),
(218,576,cs),
(219,583,o),
(223,587,o),
(230,587,cs),
(312,587,o),
(404,587,o),
(483,577,cs),
(507,574,o),
(526,601,o),
(530,626,cs)
);
}
);
width = 502;
},
{
hints = (
{
horizontal = 1;
place = (0,75);
type = Stem;
},
{
horizontal = 1;
place = (305,74);
type = Stem;
},
{
horizontal = 1;
place = (592,75);
type = Stem;
},
{
place = (16,100);
type = Stem;
}
);
layerId = m002;
shapes = (
{
closed = 1;
nodes = (
(608,656,o),
(577,692,o),
(524,692,cs),
(207,692,ls),
(153,692,o),
(100,655,o),
(94,601,cs),
(72,406,o),
(50,261,o),
(8,66,cs),
(-2,12,o),
(39,-25,o),
(93,-25,cs),
(171,-25,o),
(226,14,o),
(229,70,cs),
(232,151,o),
(234,162,o),
(243,221,cs),
(245,236,o),
(251,240,o),
(263,242,cs),
(298,248,o),
(341,250,o),
(408,250,cs),
(461,250,o),
(503,286,o),
(512,339,cs),
(522,398,o),
(489,448,o),
(430,439,cs),
(367,430,o),
(314,430,o),
(287,430,cs),
(276,430,o),
(272,441,o),
(273,450,cs),
(273,465,o),
(273,455,o),
(275,475,cs),
(277,492,o),
(283,512,o),
(311,512,cs),
(393,512,o),
(412,512,o),
(488,502,cs),
(543,496,o),
(590,545,o),
(599,601,cs)
);
}
);
width = 562;
},
{
hints = (
{
horizontal = 1;
place = (0,75);
type = Stem;
},
{
horizontal = 1;
place = (305,74);
type = Stem;
},
{
horizontal = 1;
place = (592,75);
type = Stem;
},
{
place = (16,100);
type = Stem;
}
);
layerId = m003;
shapes = (
{
closed = 1;
nodes = (
(523,659,o),
(517,667,o),
(496,667,cs),
(179,667,ls),
(157,667,o),
(137,657,o),
(135,638,cs),
(113,442,o),
(79,225,o),
(37,29,cs),
(33,10,o),
(49,0,o),
(71,0,cs),
(116,0,o),
(136,10,o),
(137,28,cs),
(141,112,o),
(154,197,o),
(168,281,cs),
(169,292,o),
(178,299,o),
(189,301,cs),
(257,310,o),
(326,310,o),
(393,310,cs),
(414,310,o),
(424,318,o),
(427,339,cs),
(430,364,o),
(424,383,o),
(407,380,cs),
(337,370,o),
(269,370,o),
(202,370,cs),
(189,370,o),
(183,377,o),
(185,390,cs),
(195,452,o),
(206,524,o),
(207,585,c),
(209,598,o),
(218,607,o),
(231,607,cs),
(313,607,o),
(406,607,o),
(485,597,cs),
(503,595,o),
(515,613,o),
(519,636,cs)
);
}
);
width = 494;
}
);
note = E;
unicode = 70;
userData = {
KernOnName = F;
};
}
{
glyphname = G;
kernLeft = KO_O;
kernRight = KO_G;
layers = (
{
anchors = (
{
name = bottom;
pos = (226,0);
},
{
name = top;
pos = (327,625);
}
);
hints = (
{
horizontal = 1;
place = (-10,85);
type = Stem;
},
{
horizontal = 1;
place = (597,80);
type = Stem;
},
{
place = (-19,110);
type = Stem;
},
{
horizontal = 1;
place = (-10,85);
type = Stem;
},
{
horizontal = 1;
place = (597,80);
type = Stem;
},
{
place = (-19,110);
type = Stem;
}
);
layerId = m005;
shapes = (
{
closed = 1;
nodes = (
(272,-10,o),
(324,-1,o),
(372,17,cs),
(375,18,o),
(377,20,o),
(381,21,cs),
(423,40,ls),
(450,52,o),
(466,71,o),
(467,98,cs),
(471,181,o),
(485,263,o),
(500,300,cs),
(514,331,ls),
(530,361,o),
(495,380,o),
(464,380,cs),
(327,380,ls),
(302,380,o),
(275,366,o),
(271,339,cs),
(267,314,o),
(286,286,o),
(312,290,cs),
(340,294,o),
(366,297,o),
(392,298,cs),
(399,299,o),
(402,295,o),
(401,288,cs),
(388,153,o),
(393,123,o),
(352,107,cs),
(318,94,o),
(277,80,o),
(239,80,cs),
(144,80,o),
(112,159,o),
(134,295,cs),
(142,347,ls),
(164,483,o),
(227,597,o),
(322,597,cs),
(349,597,o),
(370,582,o),
(387,571,cs),
(407,559,o),
(435,565,o),
(456,583,cs),
(458,585,ls),
(482,605,o),
(477,627,o),
(457,643,cs),
(426,666,o),
(385,677,o),
(335,677,cs),
(181,677,o),
(71,527,o),
(42,347,cs),
(34,295,ls),
(5,115,o),
(71,-10,o),
(225,-10,cs)
);
}
);
width = 556;
},
{
anchors = (
{
name = bottom;
pos = (225,0);
},
{
name = top;
pos = (333,667);
}
);
hints = (
{
horizontal = 1;
place = (-10,85);
type = Stem;
},
{
horizontal = 1;
place = (597,80);
type = Stem;
},
{
place = (-19,110);
type = Stem;
}
);
layerId = m002;
shapes = (
{
closed = 1;
nodes = (
(275,-25,o),
(334,-15,o),
(388,6,cs),
(393,8,o),
(395,8,o),
(397,9,cs),
(443,30,ls),
(491,51,o),
(521,90,o),
(524,139,cs),
(526,217,o),
(529,255,o),
(545,287,cs),
(560,315,ls),
(591,375,o),
(544,430,o),
(472,430,cs),
(335,430,ls),
(282,430,o),
(230,394,o),
(221,339,cs),
(212,283,o),
(214,232,o),
(272,241,cs),
(300,245,o),
(312,248,o),
(329,248,cs),
(349,248,o),
(345,227,o),
(341,203,cs),
(339,194,o),
(340,186,o),
(321,177,cs),
(297,165,o),
(282,165,o),
(253,165,cs),
(187,165,o),
(170,207,o),
(184,295,cs),
(192,347,ls),
(213,473,o),
(248,512,o),
(309,512,cs),
(321,512,o),
(331,504,o),
(350,492,cs),
(388,469,o),
(440,479,o),
(480,513,cs),
(482,515,ls),
(529,556,o),
(532,614,o),
(485,649,cs),
(446,678,o),
(396,692,o),
(337,692,cs),
(148,692,o),
(19,511,o),
(-8,347,cs),
(-16,295,ls),
(-43,128,o),
(36,-25,o),
(223,-25,cs)
);
}
);
width = 557;
},
{
anchors = (
{
name = bottom;
pos = (226,0);
},
{
name = top;
pos = (327,625);
}
);
hints = (
{
horizontal = 1;
place = (-10,85);
type = Stem;
},
{
horizontal = 1;
place = (597,80);
type = Stem;
},
{
place = (-19,110);
type = Stem;
}
);
layerId = m003;
shapes = (
{
closed = 1;
nodes = (
(272,-7,o),
(314,-2,o),
(368,19,cs),
(369,20,o),
(374,22,o),
(377,23,cs),
(419,42,ls),
(443,53,o),
(455,67,o),
(456,90,cs),
(459,173,o),
(472,265,o),
(491,303,cs),
(505,334,ls),
(516,356,o),
(491,370,o),
(462,370,cs),
(325,370,ls),
(303,370,o),
(285,360,o),
(281,339,cs),
(278,318,o),
(292,297,o),
(312,300,cs),
(341,304,o),
(367,308,o),
(393,308,cs),
(404,308,o),
(413,302,o),
(412,289,cs),
(398,148,o),
(403,110,o),
(353,91,cs),
(319,78,o),
(277,63,o),
(237,63,cs),
(135,63,o),
(101,148,o),
(124,295,cs),
(132,347,ls),
(156,493,o),
(222,614,o),
(325,614,cs),
(355,614,o),
(377,598,o),
(395,587,cs),
(411,577,o),
(433,581,o),
(451,597,cs),
(453,599,ls),
(472,615,o),
(470,628,o),
(451,642,cs),
(421,664,o),
(383,674,o),
(334,674,cs),
(186,674,o),
(82,531,o),
(52,347,cs),
(44,295,ls),
(15,111,o),
(77,-7,o),
(226,-7,cs)
);
}
);
width = 556;
}
);
metricLeft = "=O";
metricRight = "=O";
note = C;
unicode = 71;
}
{
glyphname = H;
kernLeft = KO_H;
kernRight = KO_H;
layers = (
{
hints = (
{
horizontal = 1;
place = (0,21);
target = up;
type = BottomGhost;
},
{
horizontal = 1;
place = (305,75);
type = Stem;
},
{
place = (17,100);
type = Stem;
},
{
place = (377,100);
type = Stem;
}
);
layerId = m005;
shapes = (
{
closed = 1;
nodes = (
(114,0,o),
(149,18,o),
(150,49,cs),
(151,84,o),
(163,173,o),
(178,273,cs),
(181,289,o),
(185,297,o),
(192,297,cs),
(268,300,o),
(342,300,o),
(418,300,cs),
(424,300,o),
(427,296,o),
(426,290,cs),
(408,185,o),
(391,86,o),
(380,49,cs),
(371,18,o),
(400,0,o),
(433,0,cs),
(464,0,o),
(497,18,o),
(500,49,cs),
(520,239,o),
(550,428,o),
(590,618,cs),
(597,649,o),
(570,667,o),
(539,667,cs),
(506,667,o),
(485,649,o),
(480,618,cs),
(475,585,o),
(461,497,o),
(444,398,cs),
(443,391,o),
(440,388,o),
(432,387,cs),
(357,383,o),
(282,381,o),
(205,380,cs),
(199,380,o),
(196,384,o),
(197,390,cs),
(213,492,o),
(231,584,o),
(240,618,cs),
(249,649,o),
(220,667,o),
(187,667,cs),
(156,667,o),
(123,649,o),
(120,618,cs),
(112,542,o),
(103,466,o),
(92,390,cs),
(91,384,o),
(86,380,o),
(80,380,cs),
(46,380,o),
(30,366,o),
(26,341,cs),
(26,339,ls),
(20,304,o),
(32,290,o),
(67,291,cs),
(73,291,o),
(77,288,o),
(76,281,cs),
(64,204,o),
(52,127,o),
(40,49,cs),
(35,18,o),
(50,0,o),
(81,0,cs)
);
}
);
width = 595;
},
{
hints = (
{
horizontal = 1;
place = (0,21);
target = up;
type = BottomGhost;
},
{
horizontal = 1;
place = (305,75);
type = Stem;
},
{
place = (17,100);
type = Stem;
},
{
place = (377,100);
type = Stem;
}
);
layerId = m002;
shapes = (
{
closed = 1;
nodes = (
(191,-25,o),
(253,19,o),
(255,80,cs),
(255,100,o),
(265,152,o),
(269,200,cs),
(271,227,o),
(292,249,o),
(325,249,cs),
(340,249,o),
(354,250,o),
(369,250,cs),
(402,250,o),
(419,242,o),
(414,218,cs),
(400,153,o),
(392,105,o),
(385,80,cs),
(367,19,o),
(415,-25,o),
(479,-25,cs),
(538,-25,o),
(599,16,o),
(604,77,cs),
(624,265,o),
(646,402,o),
(686,590,cs),
(699,651,o),
(652,692,o),
(593,692,cs),
(532,692,o),
(485,652,o),
(476,593,cs),
(469,548,o),
(464,519,o),
(457,474,cs),
(452,442,o),
(434,434,o),
(402,433,cs),
(386,432,o),
(371,432,o),
(355,432,cs),
(321,431,o),
(305,439,o),
(311,473,cs),
(321,532,o),
(329,565,o),
(335,587,cs),
(353,648,o),
(305,692,o),
(241,692,cs),
(182,692,o),
(121,651,o),
(116,590,cs),
(110,541,o),
(109,515,o),
(102,466,cs),
(99,438,o),
(81,424,o),
(59,404,cs),
(42,388,o),
(30,366,o),
(26,341,cs),
(26,339,ls),
(21,311,o),
(27,284,o),
(42,265,cs),
(57,246,o),
(69,232,o),
(65,205,cs),
(56,153,o),
(52,126,o),
(44,74,cs),
(35,15,o),
(68,-25,o),
(127,-25,cs)
);
}
);
width = 670;
},
{
hints = (
{
horizontal = 1;
place = (0,21);
target = up;
type = BottomGhost;
},
{
horizontal = 1;
place = (305,75);
type = Stem;
},
{
place = (17,100);
type = Stem;
},
{
place = (377,100);
type = Stem;
}
);
layerId = m003;
shapes = (
{
closed = 1;
nodes = (
(86,0,o),
(112,13,o),
(113,38,cs),
(115,73,o),
(129,183,o),
(145,283,cs),
(149,306,o),
(151,307,o),
(159,307,cs),
(234,307,o),
(328,310,o),
(404,310,cs),
(412,310,o),
(414,307,o),
(413,300,cs),
(396,195,o),
(374,75,o),
(363,38,cs),
(356,13,o),
(378,0,o),
(408,0,cs),
(436,0,o),
(461,13,o),
(463,38,cs),
(483,229,o),
(517,438,o),
(557,629,cs),
(563,654,o),
(542,667,o),
(514,667,cs),
(485,667,o),
(471,655,o),
(467,628,cs),
(461,595,o),
(443,487,o),
(428,388,cs),
(427,381,o),
(424,378,o),
(417,377,cs),
(340,371,o),
(245,370,o),
(169,370,cs),
(161,370,o),
(159,373,o),
(160,380,cs),
(177,482,o),
(197,595,o),
(207,629,cs),
(214,654,o),
(192,667,o),
(162,667,cs),
(134,667,o),
(109,654,o),
(107,629,cs),
(99,552,o),
(87,456,o),
(75,380,cs),
(74,373,o),
(71,370,o),
(64,370,cs),
(34,370,o),
(15,362,o),
(11,341,cs),
(11,339,ls),
(6,308,o),
(23,301,o),
(54,301,cs),
(61,301,o),
(64,299,o),
(62,291,cs),
(50,214,o),
(36,117,o),
(23,39,cs),
(19,12,o),
(29,0,o),
(56,0,cs)
);
}
);
width = 570;
}
);
note = H;
unicode = 72;
userData = {
KernOnName = H;
};
}
{
glyphname = I;
kernLeft = KO_I;
kernRight = KO_I;
layers = (
{
anchors = (
{
name = bottom;
pos = (116,0);
},
{
name = ogonek;
pos = (206,10);
},
{
name = top;
pos = (217,625);
},
{
name = topleft;
pos = (133,667);
}
);
hints = (
{
horizontal = 1;
place = (0,21);
target = up;
type = BottomGhost;
},
{
place = (16,100);
type = Stem;
}
);
layerId = m005;
shapes = (
{
closed = 1;
nodes = (
(86,-5,o),
(146,-5,o),
(208,5,cs),
(234,9,o),
(259,19,o),
(264,44,cs),
(269,81,o),
(248,99,o),
(222,95,cs),
(213,94,o),
(203,92,o),
(192,90,cs),
(185,89,o),
(182,92,o),
(182,99,cs),
(260,581,ls),
(261,587,o),
(265,591,o),
(272,590,cs),
(282,589,o),
(292,588,o),
(302,587,cs),
(326,583,o),
(343,601,o),
(347,626,cs),
(351,653,o),
(340,665,o),
(314,667,cs),
(254,672,o),
(194,672,o),
(132,667,cs),
(108,665,o),
(91,653,o),
(88,628,cs),
(83,601,o),
(92,573,o),
(118,577,cs),
(128,578,o),
(139,580,o),
(149,582,cs),
(156,583,o),
(160,580,o),
(158,573,cs),
(82,91,ls),
(80,85,o),
(75,81,o),
(70,82,cs),
(59,83,o),
(49,84,o),
(39,85,cs),
(15,89,o),
(-2,71,o),
(-6,44,cs),
(-11,19,o),
(0,-5,o),
(25,-5,cs)
);
}
);
width = 350;
},
{
anchors = (
{
name = bottom;
pos = (116,0);
},
{
name = ogonek;
pos = (206,10);
},
{
name = top;
pos = (217,625);
},
{
name = topleft;
pos = (133,667);
}
);
hints = (
{
horizontal = 1;
place = (0,21);
target = up;
type = BottomGhost;
},
{
place = (16,100);
type = Stem;
}
);
layerId = m002;
shapes = (
{
closed = 1;
nodes = (
(93,-25,o),
(157,-25,o),
(223,-14,cs),
(283,-5,o),
(321,28,o),
(329,74,cs),
(339,141,o),
(326,175,o),
(299,175,cs),
(287,175,o),
(274,169,o),
(267,169,cs),
(259,169,o),
(256,180,o),
(259,199,cs),
(303,481,ls),
(306,493,o),
(309,510,o),
(318,510,cs),
(329,510,o),
(333,508,o),
(338,507,cs),
(363,502,o),
(393,541,o),
(402,596,cs),
(411,651,o),
(380,683,o),
(331,687,cs),
(269,692,o),
(205,692,o),
(141,687,cs),
(92,683,o),
(51,651,o),
(42,596,cs),
(33,540,o),
(25,489,o),
(61,497,cs),
(70,499,o),
(81,500,o),
(90,500,cs),
(101,500,o),
(105,490,o),
(103,473,cs),
(57,191,ls),
(55,179,o),
(52,163,o),
(39,162,c),
(28,163,o),
(21,166,o),
(8,165,cs),
(-14,163,o),
(-32,135,o),
(-41,74,cs),
(-50,21,o),
(-21,-25,o),
(32,-25,cs)
);
}
);
width = 350;
},
{
anchors = (
{
name = bottom;
pos = (117,0);
},
{
name = ogonek;
pos = (206,10);
},
{
name = top;
pos = (217,625);
},
{
name = topleft;
pos = (134,667);
}
);
hints = (
{
horizontal = 1;
place = (0,21);
target = up;
type = BottomGhost;
},
{
place = (17,100);
type = Stem;
}
);
layerId = m003;
shapes = (
{
closed = 1;
nodes = (
(87,-2,o),
(146,-2,o),
(207,8,cs),
(231,12,o),
(250,19,o),
(253,37,cs),
(258,69,o),
(242,81,o),
(221,78,cs),
(210,77,o),
(202,75,o),
(191,73,cs),
(177,71,o),
(169,79,o),
(171,92,cs),
(252,591,ls),
(253,603,o),
(264,612,o),
(276,610,cs),
(286,609,o),
(296,608,o),
(306,607,cs),
(325,604,o),
(334,614,o),
(338,636,cs),
(342,658,o),
(335,665,o),
(314,667,cs),
(254,672,o),
(194,672,o),
(134,667,cs),
(111,665,o),
(102,658,o),
(98,636,cs),
(94,613,o),
(101,594,o),
(120,597,cs),
(130,598,o),
(139,600,o),
(150,602,cs),
(164,604,o),
(172,596,o),
(170,583,cs),
(90,84,ls),
(88,72,o),
(76,63,o),
(66,65,cs),
(55,66,o),
(45,67,o),
(35,68,cs),
(16,71,o),
(6,61,o),
(3,37,cs),
(-1,15,o),
(7,-2,o),
(26,-2,cs)
);
}
);
width = 350;
}
);
note = I;
unicode = 73;
userData = {
KernOnName = I;
};
}
{
glyphname = J;
kernLeft = KO_J;
kernRight = KO_J;
layers = (
{
anchors = (
{
name = bottom;
pos = (214,0);
},
{
name = top;
pos = (314,625);
}
);
hints = (
{
horizontal = 1;
place = (-10,85);
type = Stem;
},
{
horizontal = 1;
place = (597,80);
type = Stem;
},
{
place = (-18,110);
type = Stem;
}
);
layerId = m005;
shapes = (
{
closed = 1;
nodes = (
(283,-10,o),
(384,90,o),
(414,270,cs),
(463,576,ls),
(464,582,o),
(469,586,o),
(475,586,cs),
(487,586,ls),
(508,587,o),
(527,603,o),
(530,625,cs),
(534,650,o),
(520,667,o),
(497,667,cs),
(261,667,ls),
(236,667,o),
(214,648,o),
(210,622,cs),
(206,597,o),
(222,575,o),
(249,579,cs),
(285,584,o),
(320,586,o),
(355,586,cs),
(361,586,o),
(364,582,o),
(363,576,cs),
(314,270,ls),
(292,134,o),
(238,80,o),
(143,80,cs),
(109,80,o),
(76,93,o),
(50,101,cs),
(22,109,o),
(-6,83,o),
(-17,67,cs),
(-33,42,o),
(-27,13,o),
(-3,6,cs),
(39,-7,o),
(85,-10,o),
(129,-10,cs)
);
}
);
width = 524;
},
{
anchors = (
{
name = bottom;
pos = (245,0);
},
{
name = top;
pos = (345,625);
}
);
hints = (
{
horizontal = 1;
place = (-10,85);
type = Stem;
},
{
horizontal = 1;
place = (597,80);
type = Stem;
},
{
place = (-16,110);
type = Stem;
}
);
layerId = m002;
shapes = (
{
closed = 1;
nodes = (
(347,-25,o),
(474,100,o),
(507,305,cs),
(530,451,ls),
(532,463,o),
(535,486,o),
(554,486,cs),
(568,486,ls),
(601,486,o),
(627,526,o),
(635,575,cs),
(643,628,o),
(611,667,o),
(560,667,cs),
(299,667,ls),
(246,667,o),
(198,626,o),
(189,572,cs),
(180,516,o),
(219,471,o),
(278,480,cs),
(297,483,o),
(315,486,o),
(325,486,cs),
(335,486,o),
(332,462,o),
(329,450,cs),
(307,305,ls),
(288,187,o),
(266,165,o),
(194,165,cs),
(169,165,o),
(143,176,o),
(114,184,cs),
(64,198,o),
(11,165,o),
(-17,122,cs),
(-50,72,o),
(-35,9,o),
(18,-7,cs),
(65,-22,o),
(118,-25,o),
(163,-25,cs)
);
}
);
width = 587;
},
{
anchors = (
{
name = bottom;
pos = (215,0);
},
{
name = top;
pos = (316,625);
}
);
hints = (
{
horizontal = 1;
place = (-10,85);
type = Stem;
},
{
horizontal = 1;
place = (597,80);
type = Stem;
},
{
place = (-18,110);
type = Stem;
}
);
layerId = m003;
shapes = (
{
closed = 1;
nodes = (
(271,-7,o),
(367,87,o),
(396,263,cs),
(447,591,ls),
(449,600,o),
(457,606,o),
(466,606,cs),
(483,606,ls),
(501,606,o),
(512,617,o),
(515,635,cs),
(518,656,o),
(509,667,o),
(490,667,cs),
(254,667,ls),
(233,667,o),
(218,654,o),
(214,632,cs),
(211,611,o),
(223,596,o),
(244,599,cs),
(280,604,o),
(321,606,o),
(356,606,cs),
(365,606,o),
(369,600,o),
(367,591,cs),
(316,263,ls),
(293,121,o),
(233,63,o),
(133,63,cs),
(97,63,o),
(63,76,o),
(37,84,cs),
(15,91,o),
(-7,70,o),
(-19,54,cs),
(-31,34,o),
(-26,14,o),
(-6,9,cs),
(34,-4,o),
(78,-7,o),
(122,-7,cs)
);
}
);
width = 517;
}
);
metricLeft = "=O/4";
metricRight = "=I";
note = C;
unicode = 74;
userData = {
KernOnName = J;
};
}
{
glyphname = K;
kernLeft = KO_N;
kernRight = KO_K;
layers = (
{
anchors = (
{
name = bottom;
pos = (196,0);
},
{
name = top;
pos = (296,625);
}
);
hints = (
{
horizontal = 1;
place = (0,21);
target = up;
type = BottomGhost;
},
{
horizontal = 1;
place = (282,67);
type = Stem;
},
{
horizontal = 1;
place = (598,69);
type = Stem;
},
{
place = (16,100);
type = Stem;
},
{
place = (352,99);
type = Stem;
}
);
layerId = m005;
shapes = (
{
closed = 1;
nodes = (
(61,0,o),
(98,20,o),
(100,49,cs),
(106,107,o),
(114,165,o),
(121,223,cs),
(122,228,o),
(123,232,o),
(127,236,cs),
(147,259,o),
(167,281,o),
(188,303,cs),
(193,308,o),
(197,309,o),
(202,305,cs),
(230,286,o),
(323,209,o),
(322,40,cs),
(322,16,o),
(347,0,o),
(372,0,cs),
(405,0,o),
(443,28,o),
(441,62,cs),
(426,238,o),
(307,339,o),
(264,369,cs),
(259,373,o),
(259,378,o),
(265,383,cs),
(331,452,o),
(398,517,o),
(473,592,cs),
(502,621,o),
(494,652,o),
(478,665,cs),
(457,681,o),
(427,675,o),
(395,640,cs),
(317,553,o),
(235,465,o),
(156,378,cs),
(148,371,o),
(143,373,o),
(145,382,cs),
(182,618,ls),
(187,647,o),
(169,667,o),
(138,667,cs),
(110,667,o),
(75,646,o),
(71,618,cs),
(50,428,o),
(20,239,o),
(-20,49,cs),
(-25,21,o),
(3,0,o),
(31,0,cs)
);
}
);
width = 488;
},
{
anchors = (
{
name = bottom;
pos = (242,0);
},
{
name = top;
pos = (342,625);
}
);
hints = (
{
horizontal = 1;
place = (0,21);
target = up;
type = BottomGhost;
},
{
horizontal = 1;
place = (282,67);
type = Stem;
},
{
horizontal = 1;
place = (598,69);
type = Stem;
},
{
place = (16,100);
type = Stem;
},
{
place = (352,99);
type = Stem;
}
);
layerId = m002;
shapes = (
{
closed = 1;
nodes = (
(135,-25,o),
(198,18,o),
(204,77,cs),
(210,134,o),
(208,136,o),
(215,194,cs),
(215,191,o),
(218,209,o),
(221,220,cs),
(224,226,o),
(228,233,o),
(236,237,cs),
(244,241,o),
(251,241,o),
(268,226,c),
(285,206,o),
(329,162,o),
(325,57,cs),
(322,-3,o),
(367,-25,o),
(417,-25,cs),
(482,-25,o),
(549,33,o),
(545,99,cs),
(528,293,o),
(433,350,o),
(400,373,cs),
(394,377,o),
(386,386,o),
(397,399,cs),
(437,447,o),
(475,459,o),
(551,535,cs),
(603,586,o),
(597,651,o),
(557,681,cs),
(517,711,o),
(458,703,o),
(406,645,cs),
(326,559,o),
(299,535,o),
(278,516,cs),
(266,506,o),
(265,516,o),
(266,525,cs),
(278,593,ls),
(287,650,o),
(250,692,o),
(194,692,cs),
(134,692,o),
(73,648,o),
(66,591,cs),
(46,402,o),
(24,265,o),
(-16,76,cs),
(-27,19,o),
(19,-25,o),
(76,-25,cs)
);
}
);
width = 580;
},
{
anchors = (
{
name = bottom;
pos = (256,0);
},
{
name = top;
pos = (356,625);
}
);
hints = (
{
horizontal = 1;
place = (0,21);
target = up;
type = BottomGhost;
},
{
horizontal = 1;
place = (282,67);
type = Stem;
},
{
horizontal = 1;
place = (598,69);
type = Stem;
},
{
place = (16,100);
type = Stem;
},
{
place = (352,99);
type = Stem;
}
);
layerId = m003;
shapes = (
{
closed = 1;
nodes = (
(109,0,o),
(138,15,o),
(139,38,cs),
(146,97,o),
(154,165,o),
(162,223,cs),
(163,229,o),
(166,236,o),
(171,242,cs),
(192,265,o),
(219,295,o),
(240,318,cs),
(244,322,o),
(249,322,o),
(255,318,cs),
(285,299,o),
(382,204,o),
(381,32,cs),
(381,12,o),
(401,0,o),
(421,0,cs),
(452,0,o),
(483,22,o),
(480,50,cs),
(466,222,o),
(339,337,o),
(298,368,cs),
(292,372,o),
(294,375,o),
(299,380,cs),
(360,448,o),
(445,534,o),
(519,608,cs),
(543,633,o),
(538,655,o),
(523,667,cs),
(506,680,o),
(484,676,o),
(455,644,cs),
(376,557,o),
(278,444,o),
(198,357,cs),
(183,342,o),
(180,351,o),
(183,369,cs),
(225,628,ls),
(228,653,o),
(216,667,o),
(189,667,cs),
(164,667,o),
(137,651,o),
(134,628,cs),
(113,438,o),
(80,229,o),
(40,39,cs),
(35,16,o),
(57,0,o),
(82,0,cs)
);
}
);
width = 531;
}
);
note = P;
unicode = 75;
}
{
glyphname = L;
kernLeft = KO_L;
kernRight = KO_L;
layers = (
{
anchors = (
{
name = bottom;
pos = (139,0);
},
{
name = center;
pos = (193,334);
},
{
name = top;
pos = (240,625);
},
{
name = topright;
pos = (339,667);
}
);
hints = (
{
horizontal = 1;
place = (0,75);
type = Stem;
},
{
horizontal = 1;
place = (305,74);
type = Stem;
},
{
horizontal = 1;
place = (592,75);
type = Stem;
},
{
place = (16,100);
type = Stem;
}
);
layerId = m005;
shapes = (
{
closed = 1;
nodes = (
(282,0,ls),
(317,0,o),
(344,19,o),
(348,44,cs),
(353,71,o),
(334,104,o),
(298,100,cs),
(231,92,o),
(161,81,o),
(94,80,cs),
(88,80,o),
(85,84,o),
(86,90,cs),
(115,266,o),
(142,442,o),
(180,618,cs),
(187,649,o),
(171,667,o),
(138,667,cs),
(107,667,o),
(73,649,o),
(70,618,cs),
(50,428,o),
(20,239,o),
(-20,49,cs),
(-27,18,o),
(-1,0,o),
(30,0,cs)
);
}
);
width = 385;
},
{
anchors = (
{
name = bottom;
pos = (175,0);
},
{
name = center;
pos = (229,334);
},
{
name = top;
pos = (275,625);
},
{
name = topright;
pos = (374,667);
}
);
hints = (
{
horizontal = 1;
place = (0,75);
type = Stem;
},
{
horizontal = 1;
place = (305,74);
type = Stem;
},
{
horizontal = 1;
place = (592,75);
type = Stem;
},
{
place = (14,100);
type = Stem;
}
);
layerId = m002;
shapes = (
{
closed = 1;
nodes = (
(331,-13,ls),
(395,-10,o),
(449,41,o),
(457,94,cs),
(466,151,o),
(425,207,o),
(359,200,cs),
(323,196,o),
(279,191,o),
(244,187,cs),
(210,183,o),
(204,201,o),
(210,235,cs),
(230,365,o),
(245,448,o),
(276,590,cs),
(289,650,o),
(253,692,o),
(193,692,cs),
(132,692,o),
(72,651,o),
(66,590,cs),
(46,402,o),
(24,265,o),
(-15,77,cs),
(-29,16,o),
(18,-28,o),
(77,-25,cs)
);
}
);
width = 498;
},
{
anchors = (
{
name = bottom;
pos = (128,0);
},
{
name = center;
pos = (181,334);
},
{
name = top;
pos = (228,625);
},
{
name = topright;
pos = (327,667);
}
);
hints = (
{
horizontal = 1;
place = (0,75);
type = Stem;
},
{
horizontal = 1;
place = (305,74);
type = Stem;
},
{
horizontal = 1;
place = (592,75);
type = Stem;
},
{
place = (16,100);
type = Stem;
}
);
layerId = m003;
shapes = (
{
closed = 1;
nodes = (
(259,0,ls),
(291,0,o),
(310,14,o),
(314,34,cs),
(318,58,o),
(302,83,o),
(272,80,cs),
(201,72,o),
(127,60,o),
(55,60,cs),
(50,60,o),
(48,62,o),
(49,67,cs),
(78,247,o),
(111,455,o),
(150,636,cs),
(156,662,o),
(144,674,o),
(115,674,cs),
(87,674,o),
(62,661,o),
(60,636,cs),
(39,445,o),
(5,229,o),
(-36,38,cs),
(-42,13,o),
(-21,0,o),
(7,0,cs)
);
}
);
width = 362;
}
);
note = E;
unicode = 76;
userData = {
KernOnName = L;
};
}
{
glyphname = M;
kernLeft = KO_M;
kernRight = KO_M;
layers = (
{
hints = (
{
horizontal = 1;
place = (0,21);
target = up;
type = BottomGhost;
},
{
place = (-19,724);
type = Stem;
},
{
horizontal = 1;
place = (0,150);
type = Stem;
}
);
layerId = m005;
shapes = (
{
closed = 1;
nodes = (
(260,274,o),
(272,120,o),
(273,48,cs),
(273,19,o),
(292,0,o),
(321,0,cs),
(352,0,o),
(377,19,o),
(388,48,cs),
(418,137,o),
(486,306,o),
(585,534,cs),
(587,540,o),
(596,540,o),
(596,535,cs),
(601,440,o),
(588,246,o),
(557,52,cs),
(551,19,o),
(580,0,o),
(613,0,cs),
(644,0,o),
(674,19,o),
(676,52,cs),
(686,290,o),
(678,503,o),
(666,622,cs),
(662,650,o),
(637,667,o),
(609,667,cs),
(579,667,o),
(544,649,o),
(534,621,cs),
(468,449,o),
(402,293,o),
(356,178,cs),
(354,173,o),
(346,173,o),
(346,178,cs),
(336,293,o),
(322,449,o),
(310,621,cs),
(308,649,o),
(281,667,o),
(251,667,cs),
(223,667,o),
(190,650,o),
(178,622,cs),
(128,503,o),
(52,290,o),
(-14,52,cs),
(-24,19,o),
(0,0,o),
(32,0,cs),
(64,0,o),
(97,17,o),
(101,48,cs),
(138,268,o),
(183,441,o),
(220,537,cs),
(223,543,o),
(230,542,o),
(231,536,cs)
);
}
);
width = 731;
},
{
hints = (
{
horizontal = 1;
place = (0,21);
target = up;
type = BottomGhost;
},
{
place = (-19,724);
type = Stem;
},
{
horizontal = 1;
place = (0,150);
type = Stem;
}
);
layerId = m002;
shapes = (
{
closed = 1;
nodes = (
(217,160,o),
(216,108,o),
(217,64,cs),
(218,12,o),
(255,-25,o),
(308,-25,cs),
(363,-25,o),
(410,11,o),
(430,63,cs),
(447,111,o),
(463,166,o),
(509,255,cs),
(518,271,o),
(524,268,o),
(523,255,cs),
(518,198,o),
(512,146,o),
(500,77,cs),
(492,16,o),
(539,-25,o),
(600,-25,cs),
(661,-25,o),
(717,20,o),
(721,83,cs),
(731,323,o),
(715,490,o),
(703,610,cs),
(696,660,o),
(652,692,o),
(602,692,cs),
(548,692,o),
(492,658,o),
(473,607,cs),
(440,521,o),
(420,459,o),
(380,388,cs),
(376,382,o),
(370,382,o),
(370,388,cs),
(352,459,o),
(352,521,o),
(347,607,cs),
(344,658,o),
(298,692,o),
(244,692,cs),
(194,692,o),
(140,660,o),
(119,610,cs),
(67,490,o),
(-1,323,o),
(-69,83,cs),
(-87,20,o),
(-43,-25,o),
(19,-25,cs),
(79,-25,o),
(136,14,o),
(146,73,cs),
(159,153,o),
(171,207,o),
(184,268,cs),
(188,280,o),
(196,280,o),
(197,268,cs)
);
}
);
width = 731;
},
{
hints = (
{
horizontal = 1;
place = (0,21);
target = up;
type = BottomGhost;
},
{
place = (-19,724);
type = Stem;
},
{
horizontal = 1;
place = (0,150);
type = Stem;
}
);
layerId = m003;
shapes = (
{
closed = 1;
nodes = (
(259,291,o),
(270,116,o),
(272,40,cs),
(272,14,o),
(286,0,o),
(311,0,cs),
(338,0,o),
(358,14,o),
(367,40,cs),
(400,134,o),
(477,337,o),
(585,586,cs),
(587,591,o),
(593,592,o),
(594,587,cs),
(606,515,o),
(591,269,o),
(555,42,cs),
(551,15,o),
(573,0,o),
(603,0,cs),
(631,0,o),
(653,14,o),
(654,41,cs),
(664,278,o),
(660,511,o),
(648,629,cs),
(644,653,o),
(624,667,o),
(597,667,cs),
(572,667,o),
(544,653,o),
(536,629,cs),
(460,435,o),
(379,247,o),
(339,125,cs),
(336,117,o),
(326,117,o),
(327,125,cs),
(327,247,o),
(306,435,o),
(292,629,cs),
(290,653,o),
(268,667,o),
(241,667,cs),
(216,667,o),
(190,653,o),
(180,629,cs),
(130,511,o),
(50,278,o),
(-16,41,cs),
(-23,14,o),
(-7,0,o),
(22,0,cs),
(51,0,o),
(76,13,o),
(79,38,cs),
(122,291,o),
(178,500,o),
(220,588,cs),
(221,593,o),
(228,592,o),
(229,587,cs)
);
}
);
width = 731;
}
);
metricLeft = "=V";
metricRight = "=V";
note = W;
unicode = 77;
userData = {
KernOnName = M;
};
}
{
glyphname = N;
kernLeft = KO_N;
kernRight = KO_N;
layers = (
{
anchors = (
{
name = bottom;
pos = (221,0);
},
{
name = top;
pos = (321,625);
}
);
hints = (
{
horizontal = 1;
place = (0,21);
target = up;
type = BottomGhost;
},
{
place = (16,100);
type = Stem;
},
{
place = (399,97.5);
type = Stem;
}
);
layerId = m005;
shapes = (
{
closed = 1;
nodes = (
(405,0,o),
(437,28,o),
(443,67,cs),
(473,251,o),
(503,444,o),
(544,628,cs),
(549,656,o),
(520,677,o),
(490,677,cs),
(462,677,o),
(425,656,o),
(424,628,cs),
(409,484,o),
(392,373,o),
(370,234,cs),
(368,223,o),
(361,221,o),
(359,232,cs),
(328,386,o),
(255,555,o),
(210,626,cs),
(191,655,o),
(171,667,o),
(145,667,cs),
(114,667,o),
(73,639,o),
(69,600,cs),
(49,416,o),
(21,233,o),
(-20,49,cs),
(-25,21,o),
(4,0,o),
(32,0,cs),
(62,0,o),
(99,21,o),
(100,49,cs),
(115,200,o),
(135,331,o),
(160,481,cs),
(160,486,o),
(167,488,o),
(169,484,cs),
(212,401,o),
(236,341,o),
(313,39,cs),
(319,15,o),
(338,0,o),
(363,0,cs)
);
}
);
width = 547;
},
{
anchors = (
{
name = bottom;
pos = (258,0);
},
{
name = top;
pos = (365,667);
}
);
hints = (
{
horizontal = 1;
place = (0,21);
target = up;
type = BottomGhost;
},
{
place = (16,100);
type = Stem;
},
{
place = (399,97.5);
type = Stem;
}
);
layerId = m002;
shapes = (
{
closed = 1;
nodes = (
(479,-25,o),
(536,25,o),
(548,92,cs),
(577,276,o),
(600,418,o),
(639,600,cs),
(652,658,o),
(603,702,o),
(544,702,cs),
(487,702,o),
(424,658,o),
(419,600,cs),
(413,544,o),
(410,492,o),
(402,443,cs),
(400,432,o),
(393,435,o),
(391,440,cs),
(359,521,o),
(326,591,o),
(300,632,cs),
(272,677,o),
(235,692,o),
(198,692,cs),
(138,692,o),
(72,640,o),
(65,572,cs),
(45,390,o),
(24,259,o),
(-15,77,cs),
(-28,19,o),
(21,-25,o),
(78,-25,cs),
(137,-25,o),
(200,19,o),
(205,77,cs),
(213,157,o),
(222,233,o),
(234,308,cs),
(235,320,o),
(243,319,o),
(245,311,cs),
(265,254,o),
(286,169,o),
(318,45,cs),
(329,2,o),
(364,-25,o),
(409,-25,cs)
);
}
);
width = 621;
},
{
anchors = (
{
name = bottom;
pos = (283,0);
},
{
name = top;
pos = (390,667);
}
);
hints = (
{
horizontal = 1;
place = (0,21);
target = up;
type = BottomGhost;
},
{
place = (16,100);
type = Stem;
},
{
place = (399,97.5);
type = Stem;
}
);
layerId = m003;
shapes = (
{
closed = 1;
nodes = (
(451,0,o),
(477,22,o),
(482,57,cs),
(512,241,o),
(545,451,o),
(585,636,cs),
(590,658,o),
(567,674,o),
(540,674,cs),
(515,674,o),
(486,658,o),
(485,636,cs),
(469,467,o),
(447,339,o),
(419,162,cs),
(418,152,o),
(409,149,o),
(406,160,cs),
(371,329,o),
(295,548,o),
(253,630,cs),
(237,659,o),
(219,667,o),
(195,667,cs),
(167,667,o),
(134,644,o),
(131,611,cs),
(111,426,o),
(79,223,o),
(39,38,cs),
(34,16,o),
(57,0,o),
(82,0,cs),
(109,0,o),
(138,16,o),
(139,38,cs),
(154,200,o),
(180,358,o),
(206,521,cs),
(207,526,o),
(215,529,o),
(217,524,cs),
(265,415,o),
(306,285,o),
(371,33,cs),
(377,11,o),
(391,0,o),
(413,0,cs)
);
}
);
width = 596;
}
);
note = N;
unicode = 78;
userData = {
KernOnName = N;
};
}
{
glyphname = O;
kernLeft = KO_O;
kernRight = KO_O;
layers = (
{
anchors = (
{
name = bottom;
pos = (231,0);
},
{
name = center;
pos = (285,334);
},
{
name = ogonek;
pos = (461,10);
},
{
name = top;
pos = (332,625);
},
{
name = topleft;
pos = (74,667);
},
{
name = topright;
pos = (604,667);
}
);
hints = (
{
horizontal = 1;
place = (-10,80);
type = Stem;
},
{
horizontal = 1;
place = (597,80);
type = Stem;
},
{
place = (-19,110);
type = Stem;
},
{
place = (371,110);
type = Stem;
}
);
layerId = m005;
shapes = (
{
closed = 1;
nodes = (
(532,347,cs),
(562,530,o),
(494,677,o),
(340,677,cs),
(186,677,o),
(73,539,o),
(42,347,cs),
(5,110,o),
(55,-21,o),
(240,-10,cs),
(405,0,o),
(495,110,o)
);
},
{
closed = 1;
nodes = (
(142,347,ls),
(164,483,o),
(232,597,o),
(327,597,cs),
(422,597,o),
(454,483,o),
(432,347,cs),
(428,320,ls),
(403,163,o),
(341,90,o),
(244,80,cs),
(149,70,o),
(113,163,o),
(138,320,cs)
);
}
);
width = 570;
},
{
anchors = (
{
name = bottom;
pos = (231,0);
},
{
name = center;
pos = (285,334);
},
{
name = ogonek;
pos = (461,10);
},
{
name = top;
pos = (332,625);
},
{
name = topleft;
pos = (74,667);
},
{
name = topright;
pos = (604,667);
}
);
hints = (
{
horizontal = 1;
place = (-10,80);
type = Stem;
},
{
horizontal = 1;
place = (597,80);
type = Stem;
},
{
place = (-19,110);
type = Stem;
},
{
place = (371,110);
type = Stem;
}
);
layerId = m002;
shapes = (
{
closed = 1;
nodes = (
(582,347,cs),
(609,516,o),
(530,690,o),
(345,692,cs),
(159,694,o),
(22,529,o),
(-8,347,cs),
(-44,123,o),
(17,-38,o),
(241,-25,cs),
(437,-13,o),
(547,124,o)
);
},
{
closed = 1;
nodes = (
(192,347,ls),
(207,438,o),
(252,512,o),
(314,512,cs),
(376,512,o),
(397,438,o),
(382,347,cs),
(378,320,ls),
(360,213,o),
(326,172,o),
(253,165,cs),
(191,158,o),
(170,211,o),
(188,320,cs)
);
}
);
width = 570;
},
{
anchors = (
{
name = bottom;
pos = (231,0);
},
{
name = center;
pos = (285,334);
},
{
name = ogonek;
pos = (461,10);
},
{
name = top;
pos = (332,625);
},
{
name = topleft;
pos = (74,667);
},
{
name = topright;
pos = (604,667);
}
);
hints = (
{
horizontal = 1;
place = (-10,80);
type = Stem;
},
{
horizontal = 1;
place = (597,80);
type = Stem;
},
{
place = (-19,110);
type = Stem;
},
{
place = (371,110);
type = Stem;
}
);
layerId = m003;
shapes = (
{
closed = 1;
nodes = (
(522,347,cs),
(552,534,o),
(487,674,o),
(338,674,cs),
(190,674,o),
(84,543,o),
(52,347,cs),
(14,106,o),
(60,-18,o),
(240,-7,cs),
(400,3,o),
(484,106,o)
);
},
{
closed = 1;
nodes = (
(132,347,ls),
(156,493,o),
(227,614,o),
(330,614,cs),
(433,614,o),
(466,493,o),
(442,347,cs),
(438,320,ls),
(410,152,o),
(346,74,o),
(243,63,cs),
(139,52,o),
(101,151,o),
(128,320,cs)
);
}
);
width = 570;
}
);
note = O;
unicode = 79;
userData = {
KernOnName = O;
};
}
{
glyphname = P;
kernLeft = KO_N;
kernRight = KO_P;
layers = (
{
hints = (
{
horizontal = 1;
place = (0,21);
target = up;
type = BottomGhost;
},
{
horizontal = 1;
place = (282,67);
type = Stem;
},
{
horizontal = 1;
place = (598,69);
type = Stem;
},
{
place = (16,100);
type = Stem;
},
{
place = (352,99);
type = Stem;
}
);
layerId = m005;
shapes = (
{
closed = 1;
nodes = (
(62,0,o),
(101,21,o),
(101,50,cs),
(104,125,o),
(114,199,o),
(126,274,cs),
(128,281,o),
(135,286,o),
(141,284,cs),
(157,282,o),
(185,277,o),
(211,277,cs),
(375,277,o),
(489,355,o),
(508,477,cs),
(527,599,o),
(448,677,o),
(285,677,cs),
(209,677,o),
(169,673,o),
(139,667,cs),
(112,662,o),
(73,646,o),
(70,617,cs),
(50,428,o),
(19,239,o),
(-20,50,cs),
(-25,21,o),
(3,0,o),
(32,0,cs)
);
},
{
closed = 1;
nodes = (
(208,597,o),
(241,597,o),
(273,597,cs),
(378,597,o),
(421,552,o),
(409,477,cs),
(397,402,o),
(339,357,o),
(235,357,cs),
(195,357,o),
(162,363,o),
(149,365,cs),
(144,366,o),
(141,370,o),
(142,375,cs),
(153,442,o),
(164,511,o),
(165,578,cs),
(165,584,o),
(169,588,o),
(174,589,cs)
);
}
);
width = 488;
},
{
hints = (
{
horizontal = 1;
place = (0,21);
target = up;
type = BottomGhost;
},
{
horizontal = 1;
place = (282,67);
type = Stem;
},
{
horizontal = 1;
place = (598,69);
type = Stem;
},
{
place = (16,100);
type = Stem;
},
{
place = (352,99);
type = Stem;
}
);
layerId = m002;
shapes = (
{
closed = 1;
nodes = (
(140,-25,o),
(206,21,o),
(208,82,cs),
(208,128,o),
(212,158,o),
(218,200,cs),
(219,217,o),
(234,228,o),
(249,227,cs),
(251,227,o),
(253,227,o),
(255,227,cs),
(443,227,o),
(587,334,o),
(607,460,cs),
(634,627,o),
(527,692,o),
(339,692,cs),
(260,692,o),
(216,687,o),
(183,681,cs),
(130,671,o),
(71,636,o),
(66,579,cs),
(46,392,o),
(25,265,o),
(-15,77,cs),
(-26,19,o),
(22,-25,o),
(80,-25,cs)
);
},
{
closed = 1;
nodes = (
(295,512,o),
(303,512,o),
(312,512,cs),
(398,512,o),
(411,478,o),
(408,460,cs),
(405,435,o),
(380,407,o),
(295,407,cs),
(287,407,o),
(279,407,o),
(271,408,cs),
(258,409,o),
(251,419,o),
(253,433,cs),
(255,452,o),
(256,464,o),
(258,483,cs),
(259,499,o),
(272,512,o),
(286,512,cs)
);
}
);
width = 583;
},
{
hints = (
{
horizontal = 1;
place = (0,21);
target = up;
type = BottomGhost;
},
{
horizontal = 1;
place = (282,67);
type = Stem;
},
{
horizontal = 1;
place = (598,69);
type = Stem;
},
{
place = (16,100);
type = Stem;
},
{
place = (352,99);
type = Stem;
}
);
layerId = m003;
shapes = (
{
closed = 1;
nodes = (
(110,0,o),
(140,16,o),
(141,39,cs),
(142,120,o),
(158,209,o),
(170,290,cs),
(171,295,o),
(176,298,o),
(180,297,cs),
(203,292,o),
(237,287,o),
(264,287,cs),
(425,287,o),
(532,364,o),
(550,481,cs),
(570,605,o),
(495,674,o),
(336,674,cs),
(261,674,o),
(222,670,o),
(192,664,cs),
(165,659,o),
(135,647,o),
(133,625,cs),
(113,435,o),
(79,229,o),
(40,40,cs),
(35,16,o),
(57,0,o),
(83,0,cs)
);
},
{
closed = 1;
nodes = (
(253,614,o),
(291,614,o),
(327,614,cs),
(438,614,o),
(485,568,o),
(471,481,cs),
(458,400,o),
(393,347,o),
(284,347,cs),
(244,347,o),
(206,353,o),
(185,358,cs),
(183,359,o),
(181,361,o),
(182,364,cs),
(194,440,o),
(206,521,o),
(208,595,cs),
(208,599,o),
(210,602,o),
(214,603,cs)
);
}
);
width = 531;
}
);
note = P;
unicode = 80;
userData = {
KernOnName = P;
};
}
{
glyphname = Q;
kernLeft = KO_O;
kernRight = KO_O;
layers = (
{
anchors = (
{
name = bottom;
pos = (232,0);
},
{
name = center;
pos = (285,334);
},
{
name = ogonek;
pos = (461,10);
},
{
name = top;
pos = (332,625);
},
{
name = topleft;
pos = (74,667);
},
{
name = topright;
pos = (604,667);
}
);
hints = (
{
horizontal = 1;
place = (-200,70);
type = Stem;
},
{
horizontal = 1;
place = (-7,21);
target = up;
type = BottomGhost;
},
{
horizontal = 1;
place = (597,80);
type = Stem;
},
{
place = (-3,110);
type = Stem;
},
{
place = (387,110);
type = Stem;
},
{
horizontal = 1;
place = (-7,77);
type = Stem;
},
{
horizontal = 1;
place = (-10,80);
type = Stem;
},
{
horizontal = 1;
place = (597,80);
type = Stem;
},
{
place = (-3,110);
type = Stem;
},
{
place = (387,110);
type = Stem;
}
);
layerId = m005;
shapes = (
{
closed = 1;
nodes = (
(532,347,cs),
(562,530,o),
(494,677,o),
(340,677,cs),
(186,677,o),
(73,539,o),
(42,347,cs),
(8,138,o),
(45,22,o),
(177,-4,cs),
(183,-6,o),
(185,-9,o),
(184,-15,cs),
(174,-116,o),
(230,-184,o),
(331,-198,cs),
(353,-200,o),
(371,-184,o),
(374,-163,cs),
(378,-143,o),
(366,-131,o),
(349,-127,cs),
(296,-117,o),
(269,-80,o),
(274,-18,cs),
(275,-11,o),
(278,-8,o),
(285,-7,cs),
(421,14,o),
(498,132,o)
);
},
{
closed = 1;
nodes = (
(142,347,ls),
(164,483,o),
(232,597,o),
(327,597,cs),
(422,597,o),
(454,483,o),
(432,347,cs),
(428,320,ls),
(403,163,o),
(341,90,o),
(244,80,cs),
(149,70,o),
(113,163,o),
(138,320,cs)
);
}
);
width = 570;
},
{
anchors = (
{
name = bottom;
pos = (232,0);
},
{
name = center;
pos = (285,334);
},
{
name = ogonek;
pos = (461,10);
},
{
name = top;
pos = (332,625);
},
{
name = topleft;
pos = (74,667);
},
{
name = topright;
pos = (604,667);
}
);
hints = (
{
horizontal = 1;
place = (-200,70);
type = Stem;
},
{
horizontal = 1;
place = (-7,21);
target = up;
type = BottomGhost;
},
{
horizontal = 1;
place = (597,80);
type = Stem;
},
{
place = (0,110);
type = Stem;
},
{
place = (390,110);
type = Stem;
},
{
horizontal = 1;
place = (-7,77);
type = Stem;
},
{
horizontal = 1;
place = (-10,80);
type = Stem;
},
{
horizontal = 1;
place = (597,80);
type = Stem;
},
{
place = (0,110);
type = Stem;
},
{
place = (390,110);
type = Stem;
}
);
layerId = m002;
shapes = (
{
closed = 1;
nodes = (
(582,347,cs),
(610,516,o),
(530,690,o),
(345,692,cs),
(159,694,o),
(22,529,o),
(-8,347,cs),
(-37,166,o),
(-1,35,o),
(127,-9,cs),
(132,-10,o),
(134,-14,o),
(134,-20,cs),
(122,-147,o),
(197,-234,o),
(325,-250,cs),
(374,-256,o),
(417,-214,o),
(424,-165,cs),
(432,-113,o),
(400,-88,o),
(355,-77,cs),
(329,-71,o),
(322,-56,o),
(324,-23,cs),
(323,-17,o),
(327,-13,o),
(334,-11,cs),
(472,30,o),
(552,161,o)
);
},
{
closed = 1;
nodes = (
(192,347,ls),
(207,438,o),
(252,512,o),
(314,512,cs),
(376,512,o),
(397,438,o),
(382,347,cs),
(378,320,ls),
(360,213,o),
(327,172,o),
(253,165,cs),
(191,159,o),
(171,211,o),
(188,320,cs)
);
}
);
width = 570;
},
{
anchors = (
{
name = bottom;
pos = (231,0);
},
{
name = center;
pos = (284,334);
},
{
name = ogonek;
pos = (460,10);
},
{
name = top;
pos = (331,625);
},
{
name = topleft;
pos = (73,667);
},
{
name = topright;
pos = (603,667);
}
);
hints = (
{
horizontal = 1;
place = (-200,70);
type = Stem;
},
{
horizontal = 1;
place = (-7,21);
target = up;
type = BottomGhost;
},
{
horizontal = 1;
place = (597,80);
type = Stem;
},
{
place = (-4,110);
type = Stem;
},
{
place = (386,110);
type = Stem;
},
{
horizontal = 1;
place = (-7,77);
type = Stem;
},
{
horizontal = 1;
place = (-10,80);
type = Stem;
},
{
horizontal = 1;
place = (597,80);
type = Stem;
},
{
place = (-4,110);
type = Stem;
},
{
place = (386,110);
type = Stem;
}
);
layerId = m003;
shapes = (
{
closed = 1;
nodes = (
(522,347,cs),
(552,534,o),
(487,674,o),
(338,674,cs),
(190,674,o),
(83,543,o),
(52,347,cs),
(17,129,o),
(53,16,o),
(191,-3,cs),
(195,-4,o),
(196,-6,o),
(196,-10,cs),
(189,-115,o),
(240,-176,o),
(333,-188,cs),
(348,-190,o),
(362,-178,o),
(364,-163,cs),
(367,-149,o),
(359,-140,o),
(347,-138,cs),
(291,-128,o),
(262,-88,o),
(266,-13,cs),
(266,-8,o),
(268,-6,o),
(273,-5,cs),
(411,11,o),
(486,124,o)
);
},
{
closed = 1;
nodes = (
(132,347,ls),
(155,493,o),
(227,614,o),
(330,614,cs),
(433,614,o),
(465,493,o),
(442,347,cs),
(437,320,ls),
(411,152,o),
(343,64,o),
(242,63,cs),
(139,62,o),
(100,151,o),
(127,320,cs)
);
}
);
width = 570;
}
);
metricLeft = "=O";
metricRight = "=O";
note = Q;
unicode = 81;
}
{
glyphname = R;
kernLeft = KO_N;
kernRight = KO_R;
layers = (
{
anchors = (
{
name = bottom;
pos = (203,0);
},
{
name = top;
pos = (302,625);
}
);
hints = (
{
horizontal = 1;
place = (0,21);
target = up;
type = BottomGhost;
},
{
horizontal = 1;
place = (282,67);
type = Stem;
},
{
horizontal = 1;
place = (598,69);
type = Stem;
},
{
place = (16,100);
type = Stem;
},
{
place = (352,99);
type = Stem;
}
);
layerId = m005;
shapes = (
{
closed = 1;
nodes = (
(62,0,o),
(99,21,o),
(100,49,cs),
(103,129,o),
(116,208,o),
(129,288,cs),
(129,295,o),
(135,299,o),
(142,298,cs),
(161,295,o),
(201,290,o),
(224,290,cs),
(231,290,o),
(233,289,o),
(234,288,cs),
(259,258,o),
(314,178,o),
(322,40,cs),
(323,16,o),
(349,0,o),
(372,0,cs),
(406,0,o),
(444,29,o),
(440,65,cs),
(429,205,o),
(363,274,o),
(333,298,cs),
(330,301,o),
(331,304,o),
(335,305,cs),
(425,334,o),
(481,398,o),
(495,484,cs),
(513,602,o),
(440,682,o),
(286,682,cs),
(214,682,o),
(162,673,o),
(138,667,cs),
(111,660,o),
(75,646,o),
(71,618,cs),
(50,428,o),
(20,239,o),
(-20,49,cs),
(-25,21,o),
(4,0,o),
(32,0,cs)
);
},
{
closed = 1;
nodes = (
(193,370,o),
(163,375,o),
(151,378,cs),
(147,379,o),
(145,383,o),
(146,387,cs),
(155,451,o),
(166,514,o),
(167,577,c),
(167,583,o),
(172,588,o),
(178,589,cs),
(196,591,o),
(237,597,o),
(274,597,cs),
(369,597,o),
(407,554,o),
(396,484,cs),
(384,413,o),
(332,370,o),
(237,370,cs)
);
}
);
width = 503;
},
{
anchors = (
{
name = bottom;
pos = (246,0);
},
{
name = top;
pos = (347,625);
}
);
hints = (
{
horizontal = 1;
place = (0,21);
target = up;
type = BottomGhost;
},
{
horizontal = 1;
place = (282,67);
type = Stem;
},
{
horizontal = 1;
place = (598,69);
type = Stem;
},
{
place = (16,100);
type = Stem;
},
{
place = (352,99);
type = Stem;
}
);
layerId = m002;
shapes = (
{
closed = 1;
nodes = (
(138,-25,o),
(202,21,o),
(205,80,cs),
(207,132,o),
(211,166,o),
(217,213,cs),
(219,223,o),
(223,232,o),
(229,237,cs),
(234,240,o),
(238,241,o),
(243,241,cs),
(248,240,o),
(252,238,o),
(254,235,cs),
(300,179,o),
(322,131,o),
(326,55,cs),
(328,7,o),
(371,-25,o),
(418,-25,cs),
(485,-25,o),
(552,35,o),
(546,102,cs),
(540,178,o),
(517,232,o),
(488,273,cs),
(481,285,o),
(484,300,o),
(497,310,cs),
(549,350,o),
(582,403,o),
(592,464,cs),
(613,590,o),
(520,692,o),
(338,692,cs),
(262,692,o),
(202,682,o),
(177,675,cs),
(126,662,o),
(71,632,o),
(65,576,cs),
(44,387,o),
(25,265,o),
(-16,76,cs),
(-27,19,o),
(21,-25,o),
(78,-25,cs)
);
},
{
closed = 1;
nodes = (
(288,420,o),
(280,420,o),
(273,421,cs),
(260,421,o),
(253,432,o),
(255,446,cs),
(256,457,o),
(257,467,o),
(258,478,cs),
(259,493,o),
(269,505,o),
(285,506,cs),
(293,507,o),
(302,507,o),
(310,507,cs),
(385,507,o),
(398,493,o),
(393,464,cs),
(388,434,o),
(370,420,o),
(295,420,cs)
);
}
);
width = 591;
},
{
anchors = (
{
name = bottom;
pos = (264,0);
},
{
name = top;
pos = (363,625);
}
);
hints = (
{
horizontal = 1;
place = (0,21);
target = up;
type = BottomGhost;
},
{
horizontal = 1;
place = (282,67);
type = Stem;
},
{
horizontal = 1;
place = (598,69);
type = Stem;
},
{
place = (16,100);
type = Stem;
},
{
place = (352,99);
type = Stem;
}
);
layerId = m003;
shapes = (
{
closed = 1;
nodes = (
(110,0,o),
(138,16,o),
(140,38,cs),
(143,123,o),
(158,217,o),
(172,303,cs),
(173,308,o),
(178,311,o),
(182,310,cs),
(213,305,o),
(253,300,o),
(276,300,cs),
(287,300,o),
(289,299,o),
(290,298,cs),
(314,271,o),
(373,179,o),
(381,32,cs),
(382,12,o),
(403,0,o),
(423,0,cs),
(453,0,o),
(483,23,o),
(480,53,cs),
(468,208,o),
(387,281,o),
(362,301,cs),
(360,303,o),
(361,307,o),
(365,308,cs),
(463,334,o),
(523,400,o),
(536,489,cs),
(557,613,o),
(487,682,o),
(337,682,cs),
(266,682,o),
(215,673,o),
(192,667,cs),
(165,661,o),
(136,649,o),
(134,628,cs),
(114,438,o),
(80,229,o),
(40,39,cs),
(35,16,o),
(58,0,o),
(83,0,cs)
);
},
{
closed = 1;
nodes = (
(241,360,o),
(205,366,o),
(188,372,c),
(186,372,o),
(184,375,o),
(185,378,cs),
(196,448,o),
(209,528,o),
(211,598,cs),
(209,602,o),
(213,606,o),
(217,606,c),
(246,611,o),
(292,617,o),
(329,617,cs),
(429,617,o),
(472,575,o),
(457,489,cs),
(445,412,o),
(387,360,o),
(287,360,cs)
);
}
);
width = 549;
}
);
note = P;
unicode = 82;
userData = {
KernOnName = R;
};
}
{
glyphname = S;
kernLeft = KO_S;
kernRight = KO_S;
layers = (
{
anchors = (
{
name = bottom;
pos = (142,0);
},
{
name = top;
pos = (252,625);
}
);
hints = (
{
horizontal = 1;
place = (-10,85);
type = Stem;
},
{
horizontal = 1;
place = (597,80);
type = Stem;
},
{
place = (-13,90);
type = Stem;
},
{
place = (277,110);
type = Stem;
}
);
layerId = m005;
shapes = (
{
closed = 1;
nodes = (
(423,298,o),
(363,369,o),
(237,400,cs),
(167,416,o),
(137,448,o),
(145,500,cs),
(156,562,o),
(192,597,o),
(248,597,cs),
(276,597,o),
(297,582,o),
(314,571,cs),
(333,558,o),
(361,565,o),
(381,582,cs),
(387,587,ls),
(409,606,o),
(404,627,o),
(385,642,cs),
(352,665,o),
(312,677,o),
(261,677,cs),
(153,677,o),
(73,607,o),
(55,499,cs),
(41,408,o),
(89,340,o),
(192,310,cs),
(274,286,o),
(315,246,o),
(308,200,cs),
(294,116,o),
(241,80,o),
(155,80,cs),
(118,80,o),
(84,96,o),
(55,116,cs),
(37,129,o),
(-9,99,o),
(-15,67,cs),
(-20,45,o),
(-17,26,o),
(6,16,cs),
(47,-1,o),
(94,-10,o),
(141,-10,cs),
(282,-10,o),
(388,73,o),
(408,200,cs)
);
}
);
width = 443;
},
{
anchors = (
{
name = bottom;
pos = (168,0);
},
{
name = top;
pos = (278,625);
}
);
hints = (
{
horizontal = 1;
place = (-10,85);
type = Stem;
},
{
horizontal = 1;
place = (597,80);
type = Stem;
},
{
place = (-13,90);
type = Stem;
},
{
place = (277,110);
type = Stem;
}
);
layerId = m002;
shapes = (
{
closed = 1;
nodes = (
(503,324,o),
(427,413,o),
(282,449,cs),
(234,460,o),
(219,470,o),
(220,490,cs),
(222,504,o),
(237,512,o),
(261,512,cs),
(274,512,o),
(283,505,o),
(302,493,cs),
(339,468,o),
(391,478,o),
(431,512,cs),
(436,517,ls),
(483,557,o),
(484,614,o),
(438,649,cs),
(399,677,o),
(349,692,o),
(289,692,cs),
(153,692,o),
(53,634,o),
(31,499,cs),
(13,385,o),
(73,298,o),
(197,262,cs),
(267,242,o),
(288,227,o),
(284,200,cs),
(279,174,o),
(257,165,o),
(210,165,cs),
(168,165,o),
(145,175,o),
(119,193,cs),
(70,228,o),
(-23,171,o),
(-34,102,cs),
(-41,59,o),
(-31,23,o),
(10,5,cs),
(56,-15,o),
(112,-25,o),
(165,-25,cs),
(332,-25,o),
(458,44,o),
(484,200,cs)
);
}
);
width = 494;
},
{
anchors = (
{
name = bottom;
pos = (137,0);
},
{
name = top;
pos = (247,625);
}
);
hints = (
{
horizontal = 1;
place = (-10,85);
type = Stem;
},
{
horizontal = 1;
place = (597,80);
type = Stem;
},
{
place = (-13,90);
type = Stem;
},
{
place = (277,110);
type = Stem;
}
);
layerId = m003;
shapes = (
{
closed = 1;
nodes = (
(408,294,o),
(351,360,o),
(227,390,cs),
(154,407,o),
(121,443,o),
(130,500,cs),
(142,567,o),
(184,614,o),
(246,614,cs),
(277,614,o),
(299,598,o),
(317,587,cs),
(333,576,o),
(354,581,o),
(371,596,cs),
(377,601,ls),
(393,615,o),
(392,628,o),
(373,641,cs),
(343,663,o),
(305,674,o),
(255,674,cs),
(151,674,o),
(77,603,o),
(60,499,cs),
(47,412,o),
(90,349,o),
(191,320,cs),
(276,295,o),
(321,252,o),
(313,200,cs),
(298,110,o),
(239,63,o),
(148,63,cs),
(109,63,o),
(71,80,o),
(43,101,cs),
(29,110,o),
(-6,87,o),
(-11,60,cs),
(-15,39,o),
(-14,26,o),
(5,18,cs),
(45,2,o),
(91,-7,o),
(137,-7,cs),
(274,-7,o),
(372,77,o),
(393,200,cs)
);
}
);
width = 433;
}
);
metricLeft = "=O/2";
metricRight = "=O/2";
note = S;
unicode = 83;
userData = {
KernOnName = S;
};
}
{
glyphname = T;
kernLeft = KO_T;
kernRight = KO_T;
layers = (
{
anchors = (
{
name = bottom;
pos = (198,0);
},
{
name = center;
pos = (252,334);
},
{
name = top;
pos = (299,625);
}
);
hints = (
{
horizontal = 1;
place = (0,21);
target = up;
type = BottomGhost;
},
{
place = (16,100);
type = Stem;
}
);
layerId = m005;
shapes = (
{
closed = 1;
nodes = (
(284,217,o),
(312,395,o),
(340,574,cs),
(341,580,o),
(346,584,o),
(352,584,cs),
(394,583,o),
(436,581,o),
(477,577,cs),
(501,575,o),
(520,601,o),
(524,626,cs),
(528,653,o),
(518,679,o),
(493,677,cs),
(368,667,o),
(242,657,o),
(120,667,cs),
(94,669,o),
(78,653,o),
(74,626,cs),
(70,601,o),
(79,575,o),
(105,577,cs),
(148,581,o),
(190,583,o),
(232,584,cs),
(238,584,o),
(241,580,o),
(240,574,cs),
(212,394,o),
(183,221,o),
(144,39,cs),
(139,8,o),
(165,-10,o),
(198,-10,cs),
(229,-10,o),
(261,8,o),
(264,39,cs)
);
}
);
width = 491;
},
{
anchors = (
{
name = bottom;
pos = (222,0);
},
{
name = center;
pos = (276,334);
},
{
name = top;
pos = (323,625);
}
);
hints = (
{
horizontal = 1;
place = (0,21);
target = up;
type = BottomGhost;
},
{
place = (16,100);
type = Stem;
}
);
layerId = m002;
shapes = (
{
closed = 1;
nodes = (
(360,221,o),
(372,311,o),
(394,445,cs),
(399,479,o),
(420,497,o),
(453,495,cs),
(463,494,o),
(473,493,o),
(483,492,cs),
(537,488,o),
(583,536,o),
(593,591,cs),
(602,648,o),
(570,696,o),
(514,692,cs),
(389,682,o),
(268,672,o),
(150,682,cs),
(96,686,o),
(52,647,o),
(43,591,cs),
(33,536,o),
(64,488,o),
(120,492,cs),
(133,493,o),
(147,494,o),
(160,495,cs),
(187,497,o),
(198,479,o),
(193,445,cs),
(171,312,o),
(156,225,o),
(125,76,cs),
(113,16,o),
(158,-25,o),
(220,-25,cs),
(279,-25,o),
(336,16,o),
(344,76,cs)
);
}
);
width = 541;
},
{
anchors = (
{
name = bottom;
pos = (194,0);
},
{
name = center;
pos = (247,334);
},
{
name = top;
pos = (294,625);
}
);
hints = (
{
horizontal = 1;
place = (0,21);
target = up;
type = BottomGhost;
},
{
place = (17,100);
type = Stem;
}
);
layerId = m003;
shapes = (
{
closed = 1;
nodes = (
(268,214,o),
(300,414,o),
(329,597,cs),
(329,602,o),
(332,604,o),
(337,604,cs),
(382,603,o),
(430,601,o),
(476,597,cs),
(493,595,o),
(506,614,o),
(510,636,cs),
(514,660,o),
(507,679,o),
(489,677,cs),
(364,667,o),
(236,657,o),
(114,667,cs),
(93,669,o),
(84,659,o),
(80,636,cs),
(76,614,o),
(83,595,o),
(102,597,cs),
(149,601,o),
(197,603,o),
(242,604,cs),
(247,604,o),
(250,602,o),
(248,597,cs),
(219,413,o),
(186,218,o),
(149,32,cs),
(143,6,o),
(163,-7,o),
(193,-7,cs),
(221,-7,o),
(245,6,o),
(249,32,cs)
);
}
);
width = 481;
}
);
metricLeft = "=O/2";
metricRight = "=O/2";
note = I;
unicode = 84;
userData = {
KernOnName = T;
};
}
{
glyphname = U;
kernLeft = KO_U;
kernRight = KO_U;
layers = (
{
anchors = (
{
name = bottom;
pos = (206,0);
},
{
name = ogonek;
pos = (320,10);
},
{
name = top;
pos = (307,625);
},
{
name = topright;
pos = (579,667);
}
);
hints = (
{
horizontal = 1;
place = (-10,85);
type = Stem;
},
{
place = (-4,105);
type = Stem;
},
{
place = (361,105);
type = Stem;
}
);
layerId = m005;
shapes = (
{
closed = 1;
nodes = (
(110,667,o),
(73,646,o),
(70,617,cs),
(62,501,o),
(43,386,o),
(25,270,cs),
(-4,90,o),
(62,-1,o),
(205,-10,cs),
(359,-20,o),
(446,90,o),
(475,270,cs),
(493,386,o),
(514,511,o),
(542,627,cs),
(549,656,o),
(519,677,o),
(490,677,cs),
(461,677,o),
(425,656,o),
(422,627,cs),
(414,511,o),
(393,386,o),
(375,270,cs),
(353,134,o),
(304,80,o),
(219,80,cs),
(134,80,o),
(103,134,o),
(125,270,cs),
(143,386,o),
(162,501,o),
(180,617,cs),
(185,646,o),
(168,667,o),
(139,667,cs)
);
}
);
width = 545;
},
{
anchors = (
{
name = bottom;
pos = (257,0);
},
{
name = ogonek;
pos = (412,10);
},
{
name = top;
pos = (357,625);
},
{
name = topright;
pos = (629,667);
}
);
hints = (
{
horizontal = 1;
place = (-10,85);
type = Stem;
},
{
place = (-4,105);
type = Stem;
},
{
place = (361,105);
type = Stem;
}
);
layerId = m002;
shapes = (
{
closed = 1;
nodes = (
(134,692,o),
(72,648,o),
(66,588,cs),
(58,474,o),
(50,421,o),
(31,305,cs),
(-3,100,o),
(79,-14,o),
(250,-25,cs),
(436,-37,o),
(547,100,o),
(581,305,cs),
(600,421,o),
(609,484,o),
(637,598,cs),
(651,658,o),
(602,702,o),
(544,702,cs),
(486,702,o),
(423,658,o),
(417,598,cs),
(409,484,o),
(400,421,o),
(381,305,cs),
(366,216,o),
(343,165,o),
(283,165,cs),
(223,165,o),
(216,216,o),
(231,305,cs),
(250,421,o),
(258,476,o),
(277,592,cs),
(286,649,o),
(249,692,o),
(192,692,cs)
);
}
);
width = 619;
},
{
anchors = (
{
name = bottom;
pos = (180,0);
},
{
name = ogonek;
pos = (293,10);
},
{
name = top;
pos = (281,625);
},
{
name = topright;
pos = (553,667);
}
);
hints = (
{
horizontal = 1;
place = (-10,85);
type = Stem;
},
{
place = (-4,105);
type = Stem;
},
{
place = (361,105);
type = Stem;
}
);
layerId = m003;
shapes = (
{
closed = 1;
nodes = (
(87,667,o),
(58,651,o),
(57,628,cs),
(48,511,o),
(26,376,o),
(7,260,cs),
(-21,84,o),
(41,-1,o),
(180,-10,cs),
(328,-20,o),
(409,83,o),
(437,260,cs),
(456,376,o),
(479,521,o),
(508,638,cs),
(514,661,o),
(490,677,o),
(464,677,cs),
(438,677,o),
(410,661,o),
(408,638,cs),
(399,521,o),
(376,376,o),
(357,260,cs),
(334,118,o),
(281,60,o),
(190,60,cs),
(99,60,o),
(64,118,o),
(87,260,cs),
(106,376,o),
(128,511,o),
(146,627,cs),
(150,652,o),
(138,667,o),
(113,667,cs)
);
}
);
width = 519;
}
);
note = U;
unicode = 85;
}
{
glyphname = V;
kernLeft = KO_V;
kernRight = KO_V;
layers = (
{
hints = (
{
horizontal = 1;
place = (0,21);
target = up;
type = BottomGhost;
},
{
horizontal = 1;
place = (150,75);
type = Stem;
},
{
horizontal = 1;
place = (557,110);
type = Stem;
},
{
place = (-42,516);
type = Stem;
}
);
layerId = m005;
shapes = (
{
closed = 1;
nodes = (
(204,255,o),
(185,428,o),
(180,612,cs),
(179,645,o),
(162,667,o),
(124,667,cs),
(94,667,o),
(59,633,o),
(64,594,cs),
(89,419,o),
(119,215,o),
(159,45,cs),
(166,17,o),
(189,0,o),
(221,0,cs),
(251,0,o),
(280,17,o),
(295,45,cs),
(389,215,o),
(485,419,o),
(566,594,cs),
(585,633,o),
(575,677,o),
(519,677,cs),
(493,677,o),
(458,650,o),
(450,624,cs),
(395,436,o),
(318,258,o),
(243,121,cs),
(242,117,o),
(236,117,o),
(235,121,cs)
);
}
);
width = 549;
},
{
hints = (
{
horizontal = 1;
place = (0,21);
target = up;
type = BottomGhost;
},
{
horizontal = 1;
place = (150,75);
type = Stem;
},
{
horizontal = 1;
place = (557,110);
type = Stem;
},
{
place = (-42,516);
type = Stem;
}
);
layerId = m002;
shapes = (
{
closed = 1;
nodes = (
(239,403,o),
(231,474,o),
(227,596,cs),
(226,653,o),
(189,692,o),
(127,692,cs),
(63,692,o),
(-1,625,o),
(10,554,cs),
(35,379,o),
(63,223,o),
(113,52,cs),
(126,6,o),
(165,-25,o),
(217,-25,cs),
(267,-25,o),
(314,6,o),
(343,52,cs),
(447,223,o),
(527,379,o),
(608,554,cs),
(643,629,o),
(609,702,o),
(523,702,cs),
(472,702,o),
(413,657,o),
(398,606,cs),
(361,481,o),
(330,406,o),
(276,304,cs),
(271,298,o),
(263,297,o),
(262,304,cs)
);
}
);
width = 549;
},
{
hints = (
{
horizontal = 1;
place = (0,21);
target = up;
type = BottomGhost;
},
{
horizontal = 1;
place = (150,75);
type = Stem;
},
{
horizontal = 1;
place = (557,110);
type = Stem;
},
{
place = (-42,516);
type = Stem;
}
);
layerId = m003;
shapes = (
{
closed = 1;
nodes = (
(196,222,o),
(176,425,o),
(171,620,cs),
(171,650,o),
(158,667,o),
(124,667,cs),
(99,667,o),
(70,641,o),
(76,607,cs),
(101,432,o),
(127,208,o),
(167,39,cs),
(173,14,o),
(192,0,o),
(221,0,cs),
(248,0,o),
(271,14,o),
(285,39,cs),
(379,208,o),
(477,432,o),
(558,607,cs),
(575,643,o),
(568,677,o),
(519,677,cs),
(497,677,o),
(467,655,o),
(462,633,cs),
(402,433,o),
(316,225,o),
(237,83,cs),
(235,79,o),
(231,79,o),
(229,83,cs)
);
}
);
width = 549;
}
);
note = A;
unicode = 86;
userData = {
KernOnName = V;
};
}
{
glyphname = W;
kernLeft = KO_W;
kernRight = KO_W;
layers = (
{
anchors = (
{
name = bottom;
pos = (324,0);
},
{
name = top;
pos = (424,625);
}
);
hints = (
{
horizontal = 1;
place = (0,21);
target = up;
type = BottomGhost;
},
{
place = (-19,724);
type = Stem;
},
{
horizontal = 1;
place = (0,150);
type = Stem;
}
);
layerId = m005;
shapes = (
{
closed = 1;
nodes = (
(195,0,o),
(235,17,o),
(244,46,cs),
(284,161,o),
(344,307,o),
(395,458,cs),
(397,461,o),
(399,461,o),
(399,458,cs),
(402,307,o),
(414,161,o),
(418,46,cs),
(419,17,o),
(453,0,o),
(482,0,cs),
(511,0,o),
(549,17,o),
(560,45,cs),
(635,235,o),
(723,458,o),
(791,625,cs),
(804,658,o),
(778,677,o),
(745,677,cs),
(713,677,o),
(685,662,o),
(676,632,cs),
(633,479,o),
(576,291,o),
(503,117,cs),
(501,114,o),
(499,114,o),
(499,117,cs),
(481,290,o),
(473,468,o),
(478,621,cs),
(479,651,o),
(465,667,o),
(427,667,cs),
(397,667,o),
(377,651,o),
(368,621,cs),
(325,468,o),
(261,290,o),
(187,117,cs),
(185,114,o),
(183,114,o),
(183,117,cs),
(164,291,o),
(167,469,o),
(172,622,cs),
(174,652,o),
(150,667,o),
(120,667,cs),
(84,667,o),
(65,648,o),
(66,615,cs),
(69,448,o),
(87,235,o),
(102,45,cs),
(105,17,o),
(137,0,o),
(166,0,cs)
);
}
);
width = 766;
},
{
anchors = (
{
name = bottom;
pos = (325,0);
},
{
name = top;
pos = (425,625);
}
);
hints = (
{
horizontal = 1;
place = (0,21);
target = up;
type = BottomGhost;
},
{
place = (-19,724);
type = Stem;
},
{
horizontal = 1;
place = (0,150);
type = Stem;
}
);
layerId = m002;
shapes = (
{
closed = 1;
nodes = (
(219,-25,o),
(279,9,o),
(296,62,cs),
(313,108,o),
(332,160,o),
(353,215,cs),
(357,225,o),
(365,225,o),
(365,215,cs),
(368,160,o),
(371,108,o),
(372,62,cs),
(373,9,o),
(423,-25,o),
(480,-25,cs),
(532,-25,o),
(590,8,o),
(612,58,cs),
(698,249,o),
(768,421,o),
(835,588,cs),
(861,655,o),
(813,702,o),
(750,702,cs),
(693,702,o),
(641,669,o),
(624,613,cs),
(600,528,o),
(577,454,o),
(545,362,cs),
(541,352,o),
(532,352,o),
(532,362,cs),
(527,450,o),
(523,519,o),
(526,602,cs),
(527,657,o),
(494,692,o),
(431,692,cs),
(376,692,o),
(333,657,o),
(316,602,cs),
(293,519,o),
(266,449,o),
(234,360,cs),
(228,350,o),
(220,350,o),
(221,360,cs),
(217,449,o),
(217,519,o),
(220,603,cs),
(221,659,o),
(179,692,o),
(124,692,cs),
(57,692,o),
(10,645,o),
(12,581,cs),
(16,412,o),
(32,248,o),
(56,58,cs),
(62,8,o),
(110,-25,o),
(162,-25,cs)
);
}
);
width = 767;
},
{
anchors = (
{
name = bottom;
pos = (325,0);
},
{
name = top;
pos = (425,625);
}
);
hints = (
{
horizontal = 1;
place = (0,21);
target = up;
type = BottomGhost;
},
{
place = (-19,724);
type = Stem;
},
{
horizontal = 1;
place = (0,150);
type = Stem;
}
);
layerId = m003;
shapes = (
{
closed = 1;
nodes = (
(194,0,o),
(226,14,o),
(234,38,cs),
(280,167,o),
(352,355,o),
(407,526,cs),
(408,529,o),
(410,529,o),
(411,526,cs),
(412,355,o),
(424,167,o),
(428,38,cs),
(428,14,o),
(456,0,o),
(484,0,cs),
(510,0,o),
(540,14,o),
(550,37,cs),
(625,227,o),
(716,470,o),
(783,637,cs),
(795,664,o),
(776,677,o),
(744,677,cs),
(717,677,o),
(696,666,o),
(688,641,cs),
(642,477,o),
(577,253,o),
(496,69,cs),
(494,66,o),
(492,66,o),
(492,69,cs),
(470,253,o),
(464,466,o),
(471,630,cs),
(471,656,o),
(462,667,o),
(428,667,cs),
(402,667,o),
(387,656,o),
(381,630,cs),
(334,466,o),
(260,253,o),
(180,69,cs),
(178,66,o),
(176,66,o),
(176,69,cs),
(153,255,o),
(158,467,o),
(165,631,cs),
(165,656,o),
(148,667,o),
(121,667,cs),
(90,667,o),
(77,655,o),
(78,627,cs),
(83,460,o),
(97,227,o),
(112,37,cs),
(114,14,o),
(140,0,o),
(166,0,cs)
);
}
);
width = 767;
}
);
metricLeft = "=V";
metricRight = "=V";
note = W;
unicode = 87;
userData = {
KernOnName = W;
};
}
{
glyphname = X;
kernLeft = KO_X;
kernRight = KO_X;
layers = (
{
hints = (
{
horizontal = 1;
place = (0,21);
target = up;
type = BottomGhost;
},
{
place = (-33,498);
type = Stem;
}
);
layerId = m005;
shapes = (
{
closed = 1;
nodes = (
(35,0,o),
(70,12,o),
(85,39,cs),
(131,119,o),
(184,204,o),
(255,281,cs),
(256,283,o),
(258,283,o),
(259,281,cs),
(303,194,o),
(332,129,o),
(352,49,cs),
(360,22,o),
(389,0,o),
(420,0,cs),
(449,0,o),
(474,23,o),
(463,57,cs),
(433,149,o),
(381,254,o),
(328,338,cs),
(327,339,o),
(328,341,o),
(329,342,cs),
(408,423,o),
(484,522,o),
(541,610,cs),
(561,642,o),
(546,677,o),
(517,677,cs),
(482,677,o),
(449,645,o),
(433,618,cs),
(390,541,o),
(347,471,o),
(277,397,cs),
(276,395,o),
(274,395,o),
(273,397,cs),
(227,471,o),
(205,533,o),
(186,608,cs),
(173,660,o),
(152,667,o),
(124,667,cs),
(92,667,o),
(78,644,o),
(89,610,cs),
(116,522,o),
(152,423,o),
(205,342,cs),
(206,341,o),
(205,339,o),
(204,338,cs),
(124,254,o),
(39,149,o),
(-21,57,cs),
(-42,23,o),
(-25,0,o),
(4,0,cs)
);
}
);
width = 520;
},
{
hints = (
{
horizontal = 1;
place = (0,21);
target = up;
type = BottomGhost;
},
{
place = (-33,498);
type = Stem;
}
);
layerId = m002;
shapes = (
{
closed = 1;
nodes = (
(102,-25,o),
(157,-1,o),
(182,45,cs),
(213,100,o),
(248,155,o),
(284,187,cs),
(290,192,o),
(295,192,o),
(298,188,cs),
(327,156,o),
(349,111,o),
(358,55,cs),
(367,-1,o),
(415,-25,o),
(466,-25,cs),
(532,-25,o),
(587,36,o),
(565,104,cs),
(540,186,o),
(491,255,o),
(444,333,cs),
(441,338,o),
(442,342,o),
(447,347,cs),
(517,421,o),
(578,485,o),
(628,564,cs),
(670,629,o),
(637,702,o),
(571,702,cs),
(514,702,o),
(462,658,o),
(437,612,cs),
(407,558,o),
(391,533,o),
(346,488,cs),
(341,482,o),
(336,482,o),
(332,488,cs),
(303,531,o),
(294,551,o),
(281,602,cs),
(265,669,o),
(229,692,o),
(177,692,cs),
(111,692,o),
(63,635,o),
(86,564,cs),
(110,487,o),
(146,423,o),
(189,347,cs),
(192,342,o),
(191,338,o),
(186,333,cs),
(114,256,o),
(45,186,o),
(-9,104,cs),
(-51,36,o),
(-16,-25,o),
(53,-25,cs)
);
}
);
width = 611;
},
{
hints = (
{
horizontal = 1;
place = (0,21);
target = up;
type = BottomGhost;
},
{
place = (-33,498);
type = Stem;
}
);
layerId = m003;
shapes = (
{
closed = 1;
nodes = (
(19,0,o),
(47,10,o),
(61,33,cs),
(109,117,o),
(168,217,o),
(244,298,cs),
(246,300,o),
(248,300,o),
(248,298,cs),
(296,205,o),
(326,127,o),
(346,43,cs),
(353,19,o),
(378,0,o),
(403,0,cs),
(431,0,o),
(446,15,o),
(437,43,cs),
(407,136,o),
(356,253,o),
(301,338,cs),
(300,339,o),
(301,341,o),
(302,342,cs),
(383,424,o),
(463,534,o),
(520,624,cs),
(538,652,o),
(526,677,o),
(503,677,cs),
(473,677,o),
(445,650,o),
(430,624,cs),
(385,544,o),
(338,460,o),
(261,381,cs),
(260,379,o),
(258,379,o),
(257,381,cs),
(207,460,o),
(184,535,o),
(165,614,cs),
(153,662,o),
(137,667,o),
(110,667,cs),
(85,667,o),
(76,654,o),
(86,624,cs),
(115,534,o),
(149,423,o),
(204,342,cs),
(205,341,o),
(204,339,o),
(203,338,cs),
(121,253,o),
(33,136,o),
(-29,43,cs),
(-46,15,o),
(-35,0,o),
(-7,0,cs)
);
}
);
width = 499;
}
);
note = X;
unicode = 88;
}
{
glyphname = Y;
kernLeft = KO_Y;
kernRight = KO_Y;
layers = (
{
anchors = (
{
name = bottom;
pos = (211,0);
},
{
name = top;
pos = (311,625);
},
{
name = topleft;
pos = (71,667);
}
);
hints = (
{
horizontal = 1;
place = (0,21);
target = up;
type = BottomGhost;
},
{
place = (163,100);
type = Stem;
}
);
layerId = m005;
shapes = (
{
closed = 1;
nodes = (
(250,0,o),
(285,18,o),
(285,49,cs),
(287,120,o),
(298,190,o),
(309,260,cs),
(310,265,o),
(312,268,o),
(315,273,cs),
(400,375,o),
(487,501,o),
(561,610,cs),
(583,643,o),
(571,677,o),
(537,677,cs),
(509,677,o),
(476,654,o),
(461,617,cs),
(422,518,o),
(348,428,o),
(273,336,cs),
(272,334,o),
(270,334,o),
(269,336,cs),
(224,428,o),
(201,530,o),
(183,627,cs),
(178,654,o),
(152,667,o),
(117,667,cs),
(87,667,o),
(71,644,o),
(81,610,cs),
(109,501,o),
(156,375,o),
(207,273,cs),
(210,268,o),
(210,265,o),
(209,260,cs),
(198,190,o),
(187,120,o),
(165,49,cs),
(157,18,o),
(186,0,o),
(219,0,cs)
);
}
);
width = 533;
},
{
anchors = (
{
name = bottom;
pos = (208,0);
},
{
name = top;
pos = (308,625);
},
{
name = topleft;
pos = (60,667);
}
);
hints = (
{
horizontal = 1;
place = (0,21);
target = up;
type = BottomGhost;
},
{
place = (163,100);
type = Stem;
}
);
layerId = m002;
shapes = (
{
closed = 1;
nodes = (
(267,-25,o),
(329,19,o),
(330,81,cs),
(332,140,o),
(336,177,o),
(345,235,cs),
(348,247,o),
(351,256,o),
(360,266,cs),
(442,364,o),
(529,460,o),
(587,562,cs),
(627,632,o),
(603,702,o),
(531,702,cs),
(480,702,o),
(431,661,o),
(400,604,cs),
(365,538,o),
(344,499,o),
(287,438,cs),
(282,432,o),
(276,432,o),
(273,438,cs),
(241,502,o),
(232,549,o),
(218,618,cs),
(211,664,o),
(168,692,o),
(117,692,cs),
(45,692,o),
(-1,634,o),
(17,565,cs),
(45,462,o),
(91,364,o),
(142,266,cs),
(145,256,o),
(148,247,o),
(145,235,cs),
(136,177,o),
(128,140,o),
(110,81,cs),
(93,19,o),
(141,-25,o),
(205,-25,cs)
);
}
);
width = 531;
},
{
anchors = (
{
name = bottom;
pos = (209,0);
},
{
name = top;
pos = (309,625);
},
{
name = topleft;
pos = (61,667);
}
);
hints = (
{
horizontal = 1;
place = (0,21);
target = up;
type = BottomGhost;
},
{
place = (163,100);
type = Stem;
}
);
layerId = m003;
shapes = (
{
closed = 1;
nodes = (
(238,0,o),
(264,13,o),
(265,38,cs),
(266,110,o),
(280,192,o),
(291,265,cs),
(292,269,o),
(294,271,o),
(295,274,cs),
(381,377,o),
(471,514,o),
(545,625,cs),
(565,653,o),
(556,677,o),
(528,677,cs),
(503,677,o),
(477,658,o),
(464,625,cs),
(421,519,o),
(340,414,o),
(262,318,cs),
(260,316,o),
(258,316,o),
(258,318,cs),
(208,415,o),
(184,532,o),
(167,634,cs),
(162,657,o),
(141,667,o),
(115,667,cs),
(84,667,o),
(74,654,o),
(83,624,cs),
(111,513,o),
(157,377,o),
(209,274,cs),
(212,271,o),
(212,269,o),
(211,265,cs),
(200,192,o),
(186,110,o),
(165,38,cs),
(158,13,o),
(180,0,o),
(210,0,cs)
);
}
);
width = 536;
}
);
metricLeft = "=V";
metricRight = "=V";
note = Y;
unicode = 89;
userData = {
KernOnName = Y;
};
}
{
glyphname = Z;
kernLeft = KO_Z;
kernRight = KO_Z;
layers = (
{
anchors = (
{
name = bottom;
pos = (201,0);
},
{
name = center;
pos = (255,334);
},
{
name = top;
pos = (302,625);
}
);
hints = (
{
horizontal = 1;
place = (0,85);
type = Stem;
},
{
horizontal = 1;
place = (587,80);
type = Stem;
},
{
place = (-24,475);
type = Stem;
}
);
layerId = m005;
shapes = (
{
closed = 1;
nodes = (
(89,626,cs),
(85,601,o),
(104,574,o),
(130,577,cs),
(220,586,o),
(299,587,o),
(385,587,cs),
(394,587,o),
(395,581,o),
(389,575,cs),
(0,108,ls),
(-16,88,o),
(-25,70,o),
(-29,46,cs),
(-34,14,o),
(-13,0,o),
(12,0,cs),
(143,0,o),
(263,0,o),
(393,-10,cs),
(418,-12,o),
(446,14,o),
(449,39,cs),
(457,86,o),
(426,102,o),
(400,100,cs),
(300,90,o),
(211,90,o),
(113,90,cs),
(104,90,o),
(103,96,o),
(108,102,cs),
(526,607,ls),
(544,628,o),
(549,666,o),
(514,667,cs),
(388,670,o),
(260,664,o),
(136,677,cs),
(112,680,o),
(93,653,o)
);
}
);
width = 498;
},
{
anchors = (
{
name = bottom;
pos = (251,0);
},
{
name = center;
pos = (305,334);
},
{
name = top;
pos = (352,625);
}
);
hints = (
{
horizontal = 1;
place = (0,85);
type = Stem;
},
{
horizontal = 1;
place = (587,80);
type = Stem;
},
{
place = (-24,475);
type = Stem;
}
);
layerId = m002;
shapes = (
{
closed = 1;
nodes = (
(81,576,cs),
(72,521,o),
(114,471,o),
(169,477,cs),
(223,483,o),
(272,486,o),
(323,487,cs),
(332,487,o),
(332,480,o),
(327,474,cs),
(42,196,ls),
(15,169,o),
(-15,130,o),
(-21,96,cs),
(-30,36,o),
(7,-13,o),
(60,-13,cs),
(191,-13,o),
(309,-15,o),
(437,-25,cs),
(491,-29,o),
(550,36,o),
(558,89,cs),
(570,165,o),
(517,204,o),
(463,200,cs),
(396,194,o),
(336,191,o),
(274,190,cs),
(266,190,o),
(265,196,o),
(271,202,cs),
(606,529,ls),
(661,583,o),
(641,681,o),
(566,681,cs),
(440,681,o),
(313,681,o),
(188,692,cs),
(136,697,o),
(89,631,o)
);
}
);
width = 593;
},
{
anchors = (
{
name = bottom;
pos = (186,0);
},
{
name = center;
pos = (240,334);
},
{
name = top;
pos = (287,625);
}
);
hints = (
{
horizontal = 1;
place = (0,85);
type = Stem;
},
{
horizontal = 1;
place = (587,80);
type = Stem;
},
{
place = (-24,475);
type = Stem;
}
);
layerId = m003;
shapes = (
{
closed = 1;
nodes = (
(85,636,cs),
(82,615,o),
(97,595,o),
(117,597,cs),
(216,608,o),
(300,607,o),
(397,607,cs),
(403,607,o),
(404,603,o),
(400,599,cs),
(-9,92,ls),
(-24,74,o),
(-33,58,o),
(-35,36,cs),
(-40,10,o),
(-25,-5,o),
(-3,-4,cs),
(128,0,o),
(249,3,o),
(380,-7,cs),
(399,-9,o),
(420,8,o),
(424,31,cs),
(430,70,o),
(406,82,o),
(383,80,cs),
(274,69,o),
(179,70,o),
(71,70,cs),
(65,70,o),
(64,74,o),
(67,78,cs),
(506,623,ls),
(519,641,o),
(524,667,o),
(499,667,cs),
(373,667,o),
(246,667,o),
(120,674,cs),
(100,675,o),
(89,659,o)
);
}
);
width = 477;
}
);
note = Z;
unicode = 90;
userData = {
KernOnName = Z;
};
}
{
glyphname = bracketleft;
kernRight = KO_bracketleft;
layers = (
{
hints = (
{
horizontal = 1;
place = (-71,70);
type = Stem;
},
{
horizontal = 1;
place = (667,70);
type = Stem;
},
{
place = (27,80);
type = Stem;
}
);
layerId = m005;
shapes = (
{
closed = 1;
nodes = (
(177,-91,ls),
(198,-89,o),
(222,-79,o),
(225,-58,cs),
(227,-49,ls),
(231,-18,o),
(222,-6,o),
(191,-6,cs),
(124,-6,ls),
(118,-6,o),
(114,-2,o),
(115,4,cs),
(161,230,o),
(196,445,o),
(222,671,cs),
(223,678,o),
(228,682,o),
(234,681,cs),
(299,672,ls),
(319,669,o),
(336,694,o),
(339,715,cs),
(340,724,ls),
(344,745,o),
(334,757,o),
(313,757,cs),
(179,757,ls),
(158,757,o),
(132,745,o),
(130,724,cs),
(109,463,o),
(67,203,o),
(5,-58,cs),
(0,-79,o),
(20,-103,o),
(41,-101,cs)
);
}
);
width = 301;
},
{
hints = (
{
horizontal = 1;
place = (-71,70);
type = Stem;
},
{
horizontal = 1;
place = (667,70);
type = Stem;
},
{
place = (27,80);
type = Stem;
}
);
layerId = m002;
shapes = (
{
closed = 1;
nodes = (
(175,-141,ls),
(227,-136,o),
(270,-103,o),
(277,-58,cs),
(279,-49,ls),
(288,10,o),
(260,44,o),
(201,44,cs),
(186,44,ls),
(180,44,o),
(177,48,o),
(177,54,cs),
(214,243,o),
(244,425,o),
(267,614,cs),
(268,621,o),
(272,624,o),
(280,623,cs),
(287,622,ls),
(337,615,o),
(382,662,o),
(391,715,cs),
(392,724,ls),
(401,773,o),
(372,807,o),
(323,807,cs),
(189,807,ls),
(138,807,o),
(85,771,o),
(81,720,cs),
(60,461,o),
(19,205,o),
(-42,-54,cs),
(-55,-105,o),
(-14,-155,o),
(39,-151,cs)
);
}
);
width = 328;
},
{
hints = (
{
horizontal = 1;
place = (-71,70);
type = Stem;
},
{
horizontal = 1;
place = (667,70);
type = Stem;
},
{
place = (27,80);
type = Stem;
}
);
layerId = m003;
shapes = (
{
closed = 1;
nodes = (
(176,-81,ls),
(194,-79,o),
(212,-72,o),
(214,-58,cs),
(216,-49,ls),
(219,-24,o),
(213,-16,o),
(188,-16,cs),
(108,-16,ls),
(104,-16,o),
(102,-13,o),
(102,-9,cs),
(150,227,o),
(186,450,o),
(212,685,cs),
(213,690,o),
(218,693,o),
(221,692,cs),
(300,682,ls),
(314,680,o),
(326,698,o),
(328,715,cs),
(329,724,ls),
(331,739,o),
(325,747,o),
(310,747,cs),
(176,747,ls),
(159,747,o),
(141,738,o),
(139,725,cs),
(118,463,o),
(76,203,o),
(14,-59,cs),
(11,-74,o),
(26,-92,o),
(41,-91,cs)
);
}
);
width = 295;
}
);
metricLeft = "=n";
metricRight = "=n/2";
note = bracketleft;
unicode = 91;
userData = {
KernOnSpecialSpacing = {
L = NoKerning;
R = parenthesis;
};
};
}
{
glyphname = bracketright;
kernLeft = KO_bracketright;
layers = (
{
hints = (
{
horizontal = 1;
place = (-71,70);
type = Stem;
},
{
horizontal = 1;
place = (667,70);
type = Stem;
},
{
place = (26,80);
type = Stem;
},
{
horizontal = 1;
origin = (0,35);
place = (-91,70);
type = Stem;
},
{
horizontal = 1;
origin = (0,35);
place = (-91,70);
type = Stem;
},
{
origin = (0,35);
place = (155,80);
type = Stem;
}
);
layerId = m005;
shapes = (
{
closed = 1;
nodes = (
(176,-91,o),
(202,-79,o),
(203,-58,cs),
(225,203,o),
(277,463,o),
(339,724,cs),
(344,745,o),
(312,757,o),
(291,757,cs),
(157,757,ls),
(136,757,o),
(122,745,o),
(119,724,cs),
(117,715,ls),
(114,694,o),
(122,670,o),
(143,672,cs),
(221,681,ls),
(227,682,o),
(231,678,o),
(230,671,cs),
(184,445,o),
(139,230,o),
(113,4,cs),
(113,-2,o),
(108,-6,o),
(102,-6,cs),
(35,-6,ls),
(4,-6,o),
(-11,-18,o),
(-15,-49,cs),
(-17,-58,ls),
(-20,-79,o),
(0,-91,o),
(21,-91,cs),
(155,-91,ls)
);
}
);
width = 329;
},
{
hints = (
{
horizontal = 1;
place = (-71,70);
type = Stem;
},
{
horizontal = 1;
place = (667,70);
type = Stem;
},
{
place = (26,80);
type = Stem;
},
{
horizontal = 1;
origin = (0,35);
place = (-141,70);
type = Stem;
},
{
horizontal = 1;
origin = (0,35);
place = (-141,70);
type = Stem;
},
{
origin = (0,35);
place = (168,80);
type = Stem;
}
);
layerId = m002;
shapes = (
{
closed = 1;
nodes = (
(220,-141,o),
(276,-105,o),
(279,-54,cs),
(301,205,o),
(351,461,o),
(413,720,cs),
(426,771,o),
(375,807,o),
(324,807,cs),
(190,807,ls),
(141,807,o),
(102,773,o),
(94,724,cs),
(92,715,ls),
(84,662,o),
(115,619,o),
(167,622,cs),
(185,623,ls),
(192,623,o),
(195,621,o),
(194,614,cs),
(157,425,o),
(118,243,o),
(95,54,cs),
(93,48,o),
(89,44,o),
(83,44,cs),
(68,44,ls),
(9,44,o),
(-31,10,o),
(-40,-49,cs),
(-42,-58,ls),
(-49,-103,o),
(-18,-141,o),
(34,-141,cs),
(168,-141,ls)
);
}
);
width = 353;
},
{
hints = (
{
horizontal = 1;
place = (-71,70);
type = Stem;
},
{
horizontal = 1;
place = (667,70);
type = Stem;
},
{
place = (26,80);
type = Stem;
},
{
horizontal = 1;
origin = (0,35);
place = (-81,70);
type = Stem;
},
{
horizontal = 1;
origin = (0,35);
place = (-81,70);
type = Stem;
},
{
origin = (0,35);
place = (154,80);
type = Stem;
}
);
layerId = m003;
shapes = (
{
closed = 1;
nodes = (
(169,-81,o),
(187,-74,o),
(190,-59,cs),
(211,203,o),
(263,463,o),
(324,725,cs),
(328,738,o),
(302,747,o),
(285,747,cs),
(151,747,ls),
(136,747,o),
(127,739,o),
(125,724,cs),
(123,715,ls),
(121,698,o),
(127,681,o),
(140,682,cs),
(232,692,ls),
(236,692,o),
(240,690,o),
(240,685,cs),
(191,450,o),
(145,227,o),
(117,-9,cs),
(116,-13,o),
(113,-16,o),
(109,-16,cs),
(29,-16,ls),
(4,-16,o),
(-5,-24,o),
(-9,-49,cs),
(-11,-58,ls),
(-13,-72,o),
(2,-81,o),
(20,-81,cs),
(154,-81,ls)
);
}
);
width = 324;
}
);
metricLeft = "=n/2";
metricRight = "=n";
note = bracketleft;
unicode = 93;
userData = {
KernOnSpecialSpacing = {
L = parenthesis;
R = NoKerning;
};
};
}
{
glyphname = asciicircum;
kernLeft = KO_asciicircum;
kernRight = KO_asciicircum;
layers = (
{
hints = (
{
horizontal = 1;
place = (500,300);
type = Stem;
},
{
place = (-23,351);
type = Stem;
}
);
layerId = m005;
shapes = (
{
closed = 1;
nodes = (
(102,490,ls),
(125,490,o),
(145,498,o),
(155,521,cs),
(182,579,o),
(221,647,o),
(258,706,cs),
(262,713,o),
(268,713,o),
(272,706,cs),
(289,647,o),
(308,589,o),
(317,531,cs),
(320,508,o),
(348,500,o),
(371,500,cs),
(373,500,ls),
(394,500,o),
(415,521,o),
(403,549,cs),
(370,622,o),
(347,696,o),
(325,769,cs),
(318,791,o),
(304,800,o),
(281,800,cs),
(280,800,ls),
(257,800,o),
(239,791,o),
(226,769,cs),
(180,696,o),
(133,622,o),
(88,549,cs),
(69,519,o),
(80,490,o),
(101,490,cs)
);
}
);
width = 511;
},
{
hints = (
{
horizontal = 1;
place = (500,300);
type = Stem;
},
{
place = (-23,351);
type = Stem;
}
);
layerId = m002;
shapes = (
{
closed = 1;
nodes = (
(94,440,ls),
(139,440,o),
(180,462,o),
(200,506,cs),
(211,529,o),
(225,561,o),
(238,584,cs),
(244,593,o),
(250,593,o),
(252,584,cs),
(257,561,o),
(263,539,o),
(267,516,cs),
(273,474,o),
(313,450,o),
(363,450,cs),
(365,450,ls),
(425,450,o),
(477,514,o),
(450,575,cs),
(418,646,o),
(395,717,o),
(373,790,cs),
(361,829,o),
(331,850,o),
(289,850,cs),
(288,850,ls),
(246,850,o),
(208,829,o),
(184,790,cs),
(138,717,o),
(92,643,o),
(46,570,cs),
(4,505,o),
(34,440,o),
(93,440,cs)
);
}
);
width = 511;
},
{
background = {
shapes = (
{
closed = 1;
nodes = (
(255,800,ls),
(232,800,o),
(216,791,o),
(206,769,cs),
(172,696,o),
(137,622,o),
(103,549,cs),
(89,519,o),
(95,490,o),
(116,490,cs),
(117,490,ls),
(140,490,o),
(168,508,o),
(175,531,cs),
(195,594,o),
(225,657,o),
(255,720,c),
(285,657,o),
(315,594,o),
(335,531,cs),
(342,508,o),
(371,500,o),
(394,500,cs),
(396,500,ls),
(417,500,o),
(435,521,o),
(418,549,cs),
(374,622,o),
(339,696,o),
(305,769,cs),
(295,791,o),
(279,800,o),
(256,800,cs)
);
}
);
};
layerId = m003;
shapes = (
{
closed = 1;
nodes = (
(103,493,ls),
(125,493,o),
(143,500,o),
(152,522,cs),
(182,584,o),
(222,655,o),
(261,717,cs),
(265,722,o),
(269,722,o),
(271,717,cs),
(290,655,o),
(310,594,o),
(320,532,cs),
(323,511,o),
(349,503,o),
(371,503,cs),
(373,503,ls),
(392,503,o),
(411,522,o),
(399,547,cs),
(367,621,o),
(344,695,o),
(322,768,cs),
(316,789,o),
(302,797,o),
(280,797,cs),
(279,797,ls),
(257,797,o),
(241,789,o),
(229,768,cs),
(183,695,o),
(136,621,o),
(90,548,cs),
(72,519,o),
(84,493,o),
(102,493,cs)
);
}
);
width = 511;
}
);
note = asciicircum;
unicode = 94;
userData = {
KernOnSpecialSpacing = {
L = math;
R = math;
};
};
}
{
glyphname = underscore;
kernLeft = KO_underscore;
kernRight = KO_underscore;
layers = (
{
hints = (
{
horizontal = 1;
place = (-75,64);
type = Stem;
},
{
place = (93,400);
type = Stem;
}
);
layerId = m005;
shapes = (
{
closed = 1;
nodes = (
(392,-79,ls),
(397,-54,o),
(386,-28,o),
(361,-30,cs),
(256,-40,o),
(152,-40,o),
(49,-30,cs),
(24,-28,o),
(7,-54,o),
(2,-79,cs),
(2,-81,ls),
(-3,-106,o),
(9,-120,o),
(34,-120,cs),
(138,-120,o),
(242,-120,o),
(345,-130,cs),
(370,-132,o),
(387,-106,o),
(392,-81,cs)
);
}
);
width = 497;
},
{
hints = (
{
horizontal = 1;
place = (-75,64);
type = Stem;
},
{
place = (93,400);
type = Stem;
}
);
layerId = m002;
shapes = (
{
closed = 1;
nodes = (
(444,-79,ls),
(453,-24,o),
(423,24,o),
(367,20,cs),
(263,10,o),
(163,10,o),
(63,20,cs),
(9,24,o),
(-37,-24,o),
(-46,-79,cs),
(-46,-81,ls),
(-54,-134,o),
(-24,-170,o),
(29,-170,cs),
(133,-170,o),
(235,-170,o),
(335,-180,cs),
(389,-184,o),
(435,-136,o),
(444,-81,cs)
);
}
);
width = 500;
},
{
hints = (
{
horizontal = 1;
place = (-75,64);
type = Stem;
},
{
place = (93,400);
type = Stem;
}
);
layerId = m003;
shapes = (
{
closed = 1;
nodes = (
(381,-79,ls),
(385,-58,o),
(377,-39,o),
(360,-40,cs),
(252,-50,o),
(148,-50,o),
(46,-40,cs),
(29,-39,o),
(15,-58,o),
(11,-79,cs),
(11,-81,ls),
(8,-100,o),
(17,-110,o),
(36,-110,cs),
(140,-110,o),
(244,-110,o),
(346,-120,cs),
(363,-121,o),
(377,-102,o),
(381,-81,cs)
);
}
);
width = 496;
}
);
metricLeft = "=n";
metricRight = "=n";
note = underscore;
unicode = 95;
userData = {
KernOnName = underscore;
KernOnSpecialSpacing = {
L = underscore;
R = underscore;
};
};
}
{
glyphname = grave;
layers = (
{
anchors = (
{
name = _top;
pos = (224,500);
},
{
name = top;
pos = (263,740);
}
);
hints = (
{
horizontal = 1;
place = (575,165);
type = Stem;
},
{
place = (42,205);
type = Stem;
}
);
layerId = m005;
shapes = (
{
closed = 1;
nodes = (
(290,673,o),
(265,688,o),
(223,732,cs),
(210,746,o),
(189,729,o),
(176,711,cs),
(170,703,ls),
(157,685,o),
(154,656,o),
(174,649,cs),
(210,636,o),
(245,614,o),
(282,591,cs),
(297,580,o),
(322,575,o),
(335,593,cs),
(336,595,ls),
(349,612,o),
(340,638,o),
(325,649,cs)
);
}
);
width = 500;
},
{
anchors = (
{
name = _top;
pos = (224,500);
},
{
name = top;
pos = (263,740);
}
);
hints = (
{
horizontal = 1;
place = (575,165);
type = Stem;
},
{
place = (42,205);
type = Stem;
}
);
layerId = m002;
shapes = (
{
closed = 1;
nodes = (
(323,717,o),
(301,729,o),
(263,768,cs),
(231,805,o),
(174,786,o),
(138,737,cs),
(131,729,ls),
(99,685,o),
(99,621,o),
(150,601,cs),
(183,590,o),
(215,570,o),
(248,548,cs),
(290,521,o),
(344,525,o),
(376,569,cs),
(377,571,ls),
(406,612,o),
(393,666,o),
(358,691,cs)
);
}
);
width = 500;
},
{
anchors = (
{
name = _top;
pos = (224,500);
},
{
name = top;
pos = (263,740);
}
);
hints = (
{
horizontal = 1;
place = (575,165);
type = Stem;
},
{
place = (42,205);
type = Stem;
}
);
layerId = m003;
shapes = (
{
closed = 1;
nodes = (
(287,670,o),
(264,686,o),
(221,730,cs),
(211,742,o),
(190,727,o),
(179,709,cs),
(173,701,ls),
(160,685,o),
(158,658,o),
(174,652,cs),
(212,639,o),
(247,617,o),
(283,594,cs),
(299,583,o),
(322,579,o),
(332,594,cs),
(334,596,ls),
(345,612,o),
(337,636,o),
(322,646,cs)
);
}
);
width = 500;
}
);
note = grave;
unicode = 96;
}
{
glyphname = a;
kernLeft = KO_a;
kernRight = KO_a;
layers = (
{
anchors = (
{
name = bottom;
pos = (218,0);
},
{
name = ogonek;
pos = (398,10);
},
{
name = top;
pos = (298,500);
}
);
hints = (
{
horizontal = 1;
place = (0,21);
target = up;
type = BottomGhost;
},
{
horizontal = 1;
place = (435,75);
type = Stem;
},
{
place = (0,100);
type = Stem;
},
{
place = (290,95);
type = Stem;
},
{
horizontal = 1;
place = (-10,80);
type = Stem;
}
);
layerId = m005;
shapes = (
{
closed = 1;
nodes = (
(248,-10,o),
(304,55,o),
(319,55,cs),
(328,55,o),
(332,46,o),
(332,32,cs),
(334,11,o),
(342,0,o),
(366,0,cs),
(388,0,o),
(413,12,o),
(415,34,cs),
(420,124,o),
(448,297,o),
(479,429,cs),
(485,457,o),
(464,475,o),
(440,485,cs),
(403,499,o),
(360,510,o),
(296,510,cs),
(136,510,o),
(66,355,o),
(50,250,cs),
(46,225,ls),
(22,75,o),
(52,-10,o),
(159,-10,cs)
);
},
{
closed = 1;
nodes = (
(141,75,o),
(130,124,o),
(146,225,cs),
(150,250,ls),
(162,323,o),
(192,435,o),
(284,435,cs),
(320,435,o),
(354,430,o),
(370,427,cs),
(375,426,o),
(378,422,o),
(375,416,cs),
(360,344,o),
(344,272,o),
(332,200,cs),
(321,132,o),
(254,75,o),
(197,75,cs)
);
}
);
width = 515;
},
{
anchors = (
{
name = bottom;
pos = (223,0);
},
{
name = ogonek;
pos = (435,10);
},
{
name = top;
pos = (303,500);
}
);
hints = (
{
horizontal = 1;
place = (0,21);
target = up;
type = BottomGhost;
},
{
horizontal = 1;
place = (435,75);
type = Stem;
},
{
place = (0,100);
type = Stem;
},
{
place = (290,95);
type = Stem;
},
{
horizontal = 1;
place = (-10,80);
type = Stem;
}
);
layerId = m002;
shapes = (
{
closed = 1;
nodes = (
(283,-25,o),
(308,40,o),
(326,40,cs),
(338,40,o),
(335,26,o),
(344,8,cs),
(350,-6,o),
(362,-15,o),
(374,-15,cs),
(426,-15,o),
(478,21,o),
(482,74,cs),
(486,162,o),
(501,260,o),
(533,390,cs),
(545,442,o),
(513,479,o),
(469,497,cs),
(430,512,o),
(380,525,o),
(309,525,cs),
(108,525,o),
(29,367,o),
(10,250,cs),
(6,225,ls),
(-21,57,o),
(22,-25,o),
(166,-25,cs)
);
},
{
closed = 1;
nodes = (
(191,160,o),
(199,186,o),
(206,225,cs),
(210,250,ls),
(215,281,o),
(234,350,o),
(281,350,cs),
(288,350,o),
(295,350,o),
(302,349,cs),
(316,349,o),
(319,330,o),
(311,298,cs),
(303,254,o),
(299,244,o),
(292,200,cs),
(288,176,o),
(247,160,o),
(221,160,cs)
);
}
);
width = 525;
},
{
anchors = (
{
name = bottom;
pos = (218,0);
},
{
name = ogonek;
pos = (393,10);
},
{
name = top;
pos = (298,500);
}
);
hints = (
{
horizontal = 1;
place = (0,21);
target = up;
type = BottomGhost;
},
{
horizontal = 1;
place = (435,75);
type = Stem;
},
{
place = (0,100);
type = Stem;
},
{
place = (290,95);
type = Stem;
},
{
horizontal = 1;
place = (-10,80);
type = Stem;
}
);
layerId = m003;
shapes = (
{
closed = 1;
nodes = (
(246,-7,o),
(295,58,o),
(319,58,cs),
(333,58,o),
(341,47,o),
(342,27,cs),
(343,9,o),
(346,3,o),
(366,3,cs),
(386,3,o),
(403,11,o),
(404,26,cs),
(409,116,o),
(438,304,o),
(470,437,cs),
(475,459,o),
(458,473,o),
(437,483,cs),
(399,496,o),
(360,507,o),
(297,507,cs),
(145,507,o),
(77,354,o),
(60,250,cs),
(56,225,ls),
(32,77,o),
(57,-7,o),
(158,-7,cs)
);
},
{
closed = 1;
nodes = (
(130,58,o),
(120,121,o),
(136,225,cs),
(140,250,ls),
(152,324,o),
(185,452,o),
(287,452,cs),
(324,452,o),
(359,447,o),
(374,444,cs),
(385,442,o),
(390,433,o),
(387,422,c),
(371,350,o),
(353,271,o),
(342,200,cs),
(330,127,o),
(257,58,o),
(194,58,cs)
);
}
);
width = 515;
}
);
metricLeft = "=o";
metricRight = "=|n";
note = d;
unicode = 97;
}
{
glyphname = b;
kernLeft = KO_h;
kernRight = KO_p;
layers = (
{
hints = (
{
horizontal = 1;
place = (-10,70);
type = Stem;
},
{
horizontal = 1;
place = (430,80);
type = Stem;
},
{
place = (4,95);
type = Stem;
},
{
place = (289,100);
type = Stem;
},
{
horizontal = 1;
place = (0,21);
target = up;
type = BottomGhost;
}
);
layerId = m005;
shapes = (
{
closed = 1;
nodes = (
(377,-10,o),
(447,145,o),
(464,250,cs),
(468,275,ls),
(492,425,o),
(463,510,o),
(356,510,cs),
(267,510,o),
(227,461,o),
(218,461,cs),
(209,461,o),
(209,469,o),
(214,500,cs),
(223,550,o),
(236,611,o),
(250,661,cs),
(258,692,o),
(230,710,o),
(199,710,cs),
(166,710,o),
(145,692,o),
(140,661,cs),
(107,460,o),
(74,249,o),
(32,48,cs),
(24,17,o),
(51,0,o),
(81,-2,cs),
(120,-5,o),
(155,-10,o),
(217,-10,cs)
);
},
{
closed = 1;
nodes = (
(201,80,o),
(172,83,o),
(154,88,cs),
(151,89,o),
(148,93,o),
(150,99,cs),
(182,300,ls),
(193,368,o),
(262,435,o),
(319,435,cs),
(375,435,o),
(385,376,o),
(368,275,cs),
(364,250,ls),
(352,177,o),
(324,80,o),
(232,80,cs)
);
}
);
width = 514;
},
{
hints = (
{
horizontal = 1;
place = (-10,70);
type = Stem;
},
{
horizontal = 1;
place = (430,80);
type = Stem;
},
{
place = (4,95);
type = Stem;
},
{
place = (289,100);
type = Stem;
},
{
horizontal = 1;
place = (0,21);
target = up;
type = BottomGhost;
}
);
layerId = m002;
shapes = (
{
closed = 1;
nodes = (
(416,-25,o),
(501,168,o),
(514,250,cs),
(518,275,ls),
(545,443,o),
(502,525,o),
(368,525,cs),
(338,525,o),
(301,513,o),
(283,506,cs),
(275,503,o),
(264,502,o),
(266,514,cs),
(271,542,o),
(280,571,o),
(294,621,cs),
(310,682,o),
(262,725,o),
(201,725,cs),
(140,725,o),
(93,685,o),
(85,626,cs),
(52,425,o),
(29,285,o),
(-12,86,cs),
(-24,32,o),
(11,-13,o),
(75,-17,cs),
(111,-20,o),
(150,-25,o),
(215,-25,cs)
);
},
{
closed = 1;
nodes = (
(239,165,o),
(230,164,o),
(223,171,cs),
(217,177,o),
(214,184,o),
(217,204,cs),
(226,265,ls),
(234,314,o),
(271,350,o),
(305,350,cs),
(325,350,o),
(327,329,o),
(318,275,cs),
(314,250,ls),
(308,215,o),
(294,165,o),
(246,165,cs)
);
}
);
width = 524;
},
{
hints = (
{
horizontal = 1;
place = (-10,70);
type = Stem;
},
{
horizontal = 1;
place = (430,80);
type = Stem;
},
{
place = (4,95);
type = Stem;
},
{
place = (289,100);
type = Stem;
},
{
horizontal = 1;
place = (0,21);
target = up;
type = BottomGhost;
}
);
layerId = m003;
shapes = (
{
closed = 1;
nodes = (
(372,-7,o),
(440,146,o),
(456,250,cs),
(460,275,ls),
(485,430,o),
(458,507,o),
(357,507,cs),
(274,507,o),
(233,458,o),
(219,458,cs),
(203,458,o),
(201,468,o),
(207,507,cs),
(215,557,o),
(230,619,o),
(243,669,cs),
(249,694,o),
(228,707,o),
(200,707,cs),
(171,707,o),
(157,695,o),
(153,668,cs),
(121,467,o),
(85,242,o),
(42,40,cs),
(37,16,o),
(56,3,o),
(85,1,cs),
(122,-2,o),
(159,-7,o),
(220,-7,cs)
);
},
{
closed = 1;
nodes = (
(199,63,o),
(170,66,o),
(152,71,cs),
(143,73,o),
(139,81,o),
(141,92,cs),
(175,307,ls),
(186,379,o),
(260,452,o),
(324,452,cs),
(388,452,o),
(398,386,o),
(380,275,cs),
(376,250,ls),
(364,176,o),
(332,63,o),
(231,63,cs)
);
}
);
width = 516;
}
);
metricLeft = "=n";
metricRight = "=o";
note = b;
unicode = 98;
}
{
glyphname = c;
kernLeft = KO_e;
kernRight = KO_c;
layers = (
{
anchors = (
{
name = bottom;
pos = (215,0);
},
{
name = top;
pos = (295,500);
}
);
hints = (
{
horizontal = 1;
place = (-10,80);
type = Stem;
},
{
horizontal = 1;
place = (435,75);
type = Stem;
},
{
place = (0,100);
type = Stem;
}
);
layerId = m005;
shapes = (
{
closed = 1;
nodes = (
(261,-10,o),
(311,5,o),
(336,16,cs),
(346,20,o),
(363,33,o),
(361,60,cs),
(357,83,o),
(336,107,o),
(312,99,cs),
(291,92,o),
(260,65,o),
(226,65,cs),
(136,65,o),
(135,157,o),
(146,225,cs),
(150,250,ls),
(160,318,o),
(194,435,o),
(284,435,cs),
(303,435,o),
(319,432,o),
(332,426,cs),
(350,418,o),
(363,416,o),
(381,430,cs),
(395,441,ls),
(415,458,o),
(420,479,o),
(398,490,cs),
(374,503,o),
(339,510,o),
(296,510,cs),
(136,510,o),
(66,355,o),
(50,250,cs),
(46,225,ls),
(29,120,o),
(54,-10,o),
(214,-10,cs)
);
}
);
width = 406;
},
{
anchors = (
{
name = bottom;
pos = (225,0);
},
{
name = top;
pos = (305,500);
}
);
hints = (
{
horizontal = 1;
place = (-10,80);
type = Stem;
},
{
horizontal = 1;
place = (435,75);
type = Stem;
},
{
place = (0,100);
type = Stem;
}
);
layerId = m002;
shapes = (
{
closed = 1;
nodes = (
(277,-25,o),
(335,-7,o),
(366,5,cs),
(399,19,o),
(432,58,o),
(426,110,cs),
(418,160,o),
(372,199,o),
(318,181,cs),
(296,173,o),
(264,150,o),
(249,150,cs),
(202,150,o),
(202,196,o),
(206,225,cs),
(210,250,ls),
(221,315,o),
(235,350,o),
(281,350,cs),
(295,350,o),
(301,349,o),
(309,345,cs),
(348,328,o),
(383,333,o),
(413,358,cs),
(427,369,ls),
(480,411,o),
(482,474,o),
(432,500,cs),
(401,516,o),
(358,525,o),
(309,525,cs),
(108,525,o),
(29,367,o),
(10,250,cs),
(6,225,ls),
(-13,108,o),
(21,-25,o),
(221,-25,cs)
);
}
);
width = 455;
},
{
anchors = (
{
name = bottom;
pos = (215,0);
},
{
name = top;
pos = (295,500);
}
);
hints = (
{
horizontal = 1;
place = (-10,80);
type = Stem;
},
{
horizontal = 1;
place = (435,75);
type = Stem;
},
{
place = (0,100);
type = Stem;
}
);
layerId = m003;
shapes = (
{
closed = 1;
nodes = (
(258,-7,o),
(307,7,o),
(333,18,cs),
(342,22,o),
(352,29,o),
(348,50,cs),
(345,71,o),
(330,88,o),
(313,83,cs),
(294,76,o),
(261,48,o),
(223,48,cs),
(124,48,o),
(125,156,o),
(136,225,cs),
(140,250,ls),
(151,319,o),
(188,452,o),
(287,452,cs),
(307,452,o),
(325,449,o),
(339,442,cs),
(355,435,o),
(363,434,o),
(376,444,cs),
(390,455,ls),
(409,469,o),
(410,480,o),
(395,488,cs),
(370,500,o),
(339,507,o),
(297,507,cs),
(145,507,o),
(77,354,o),
(60,250,cs),
(56,225,ls),
(40,122,o),
(60,-7,o),
(213,-7,cs)
);
}
);
width = 397;
}
);
metricLeft = "=o";
metricRight = "=o/4";
note = c;
unicode = 99;
}
{
glyphname = d;
kernLeft = KO_a;
kernRight = KO_d;
layers = (
{
anchors = (
{
name = bottom;
pos = (224,0);
},
{
name = center;
pos = (445,560);
},
{
name = top;
pos = (304,500);
},
{
name = topright;
pos = (579,700);
}
);
hints = (
{
horizontal = 1;
place = (0,21);
target = up;
type = BottomGhost;
},
{
horizontal = 1;
place = (435,75);
type = Stem;
},
{
place = (-16,100);
type = Stem;
},
{
place = (274,95);
type = Stem;
},
{
horizontal = 1;
place = (-10,80);
type = Stem;
}
);
layerId = m005;
shapes = (
{
closed = 1;
nodes = (
(247,-10,o),
(303,55,o),
(318,55,cs),
(327,55,o),
(331,46,o),
(332,32,cs),
(334,11,o),
(342,-5,o),
(379,-5,cs),
(414,-5,o),
(431,23,o),
(427,44,cs),
(410,124,o),
(439,310,o),
(516,661,cs),
(523,692,o),
(496,710,o),
(463,710,cs),
(432,710,o),
(411,692,o),
(406,661,cs),
(382,511,ls),
(381,504,o),
(376,501,o),
(370,503,cs),
(356,506,o),
(330,510,o),
(297,510,cs),
(137,510,o),
(67,355,o),
(50,250,cs),
(46,225,ls),
(22,75,o),
(51,-10,o),
(158,-10,cs)
);
},
{
closed = 1;
nodes = (
(141,75,o),
(130,124,o),
(146,225,cs),
(150,250,ls),
(161,323,o),
(193,435,o),
(285,435,cs),
(320,435,o),
(347,430,o),
(359,427,cs),
(365,426,o),
(367,422,o),
(367,416,cs),
(332,200,ls),
(321,132,o),
(254,75,o),
(197,75,cs)
);
}
);
width = 526;
},
{
anchors = (
{
name = bottom;
pos = (228,0);
},
{
name = center;
pos = (451,560);
},
{
name = top;
pos = (308,500);
},
{
name = topright;
pos = (587,700);
}
);
hints = (
{
horizontal = 1;
place = (0,21);
target = up;
type = BottomGhost;
},
{
horizontal = 1;
place = (435,75);
type = Stem;
},
{
place = (-16,100);
type = Stem;
},
{
place = (274,95);
type = Stem;
},
{
horizontal = 1;
place = (-10,80);
type = Stem;
}
);
layerId = m002;
shapes = (
{
closed = 1;
nodes = (
(233,-25,o),
(277,-2,o),
(297,12,cs),
(309,21,o),
(326,21,o),
(330,5,cs),
(333,-9,o),
(341,-20,o),
(385,-20,cs),
(455,-20,o),
(494,20,o),
(487,62,cs),
(476,121,o),
(494,274,o),
(570,623,cs),
(583,684,o),
(536,725,o),
(475,725,cs),
(416,725,o),
(369,685,o),
(361,626,cs),
(348,549,ls),
(345,533,o),
(335,524,o),
(318,525,cs),
(315,525,o),
(312,525,o),
(309,525,cs),
(108,525,o),
(29,367,o),
(10,250,cs),
(6,225,ls),
(-21,57,o),
(22,-25,o),
(166,-25,cs)
);
},
{
closed = 1;
nodes = (
(199,160,o),
(197,168,o),
(206,225,cs),
(210,250,ls),
(222,320,o),
(235,360,o),
(282,360,cs),
(288,360,o),
(294,360,o),
(301,359,cs),
(312,359,o),
(316,349,o),
(314,334,cs),
(298,235,ls),
(290,188,o),
(258,160,o),
(221,160,cs)
);
}
);
width = 534;
},
{
anchors = (
{
name = bottom;
pos = (224,0);
},
{
name = center;
pos = (446,560);
},
{
name = top;
pos = (304,500);
},
{
name = topright;
pos = (580,700);
}
);
hints = (
{
horizontal = 1;
place = (0,21);
target = up;
type = BottomGhost;
},
{
horizontal = 1;
place = (435,75);
type = Stem;
},
{
place = (-16,100);
type = Stem;
},
{
place = (274,95);
type = Stem;
},
{
horizontal = 1;
place = (-10,80);
type = Stem;
}
);
layerId = m003;
shapes = (
{
closed = 1;
nodes = (
(247,-7,o),
(295,58,o),
(319,58,cs),
(333,58,o),
(341,47,o),
(341,27,cs),
(342,8,o),
(347,-2,o),
(378,-2,cs),
(407,-2,o),
(419,17,o),
(417,33,cs),
(398,115,o),
(431,317,o),
(507,669,cs),
(513,694,o),
(492,707,o),
(464,707,cs),
(435,707,o),
(421,695,o),
(417,668,cs),
(390,502,ls),
(389,497,o),
(386,494,o),
(381,496,cs),
(365,501,o),
(334,507,o),
(296,507,cs),
(144,507,o),
(77,354,o),
(60,250,cs),
(56,225,ls),
(32,77,o),
(58,-7,o),
(159,-7,cs)
);
},
{
closed = 1;
nodes = (
(130,58,o),
(119,121,o),
(136,225,cs),
(140,250,ls),
(151,324,o),
(186,452,o),
(288,452,cs),
(326,452,o),
(357,446,o),
(374,441,cs),
(378,440,o),
(379,437,o),
(380,433,cs),
(342,200,ls),
(331,127,o),
(257,58,o),
(194,58,cs)
);
}
);
width = 527;
}
);
metricLeft = "=o";
metricRight = "=|n";
note = d;
unicode = 100;
userData = {
KernOnName = d;
};
}
{
glyphname = e;
kernLeft = KO_e;
kernRight = KO_e;
layers = (
{
anchors = (
{
name = bottom;
pos = (215,0);
},
{
name = ogonek;
pos = (357,19);
},
{
name = top;
pos = (295,500);
}
);
hints = (
{
horizontal = 1;
place = (-10,75);
type = Stem;
},
{
horizontal = 1;
place = (215,65);
type = Stem;
},
{
horizontal = 1;
place = (440,70);
type = Stem;
},
{
place = (0,100);
type = Stem;
},
{
place = (285,100);
type = Stem;
}
);
layerId = m005;
shapes = (
{
closed = 1;
nodes = (
(276,-10,o),
(333,9,o),
(357,19,cs),
(364,22,o),
(379,30,o),
(376,61,cs),
(375,83,o),
(351,108,o),
(328,100,cs),
(306,93,o),
(269,65,o),
(226,65,cs),
(139,65,o),
(122,122,o),
(133,208,cs),
(134,214,o),
(138,218,o),
(145,218,cs),
(243,218,o),
(428,223,o),
(450,352,cs),
(458,405,o),
(442,510,o),
(296,510,cs),
(136,510,o),
(66,355,o),
(50,250,cs),
(46,225,ls),
(29,120,o),
(54,-10,o),
(214,-10,cs)
);
},
{
closed = 1;
nodes = (
(150,288,o),
(147,292,o),
(147,298,cs),
(162,378,o),
(199,440,o),
(285,440,cs),
(339,440,o),
(354,398,o),
(349,350,cs),
(343,307,o),
(296,289,o),
(157,288,cs)
);
}
);
width = 484;
},
{
anchors = (
{
name = bottom;
pos = (225,0);
},
{
name = ogonek;
pos = (387,9);
},
{
name = top;
pos = (305,500);
}
);
hints = (
{
horizontal = 1;
place = (-10,75);
type = Stem;
},
{
horizontal = 1;
place = (215,65);
type = Stem;
},
{
horizontal = 1;
place = (440,70);
type = Stem;
},
{
place = (0,100);
type = Stem;
},
{
place = (285,100);
type = Stem;
}
);
layerId = m002;
shapes = (
{
closed = 1;
nodes = (
(293,-25,o),
(359,-2,o),
(387,9,cs),
(417,22,o),
(446,54,o),
(442,108,cs),
(438,158,o),
(389,200,o),
(336,182,cs),
(309,174,o),
(276,150,o),
(249,150,cs),
(222,150,o),
(205,158,o),
(207,171,cs),
(210,189,o),
(220,203,o),
(259,207,cs),
(368,218,o),
(491,221,o),
(512,352,cs),
(521,417,o),
(495,525,o),
(309,525,cs),
(108,525,o),
(29,367,o),
(10,250,cs),
(6,225,ls),
(-7,143,o),
(21,-25,o),
(221,-25,cs)
);
},
{
closed = 1;
nodes = (
(255,338,o),
(236,344,o),
(238,359,cs),
(242,382,o),
(268,390,o),
(288,390,cs),
(302,390,o),
(315,385,o),
(312,368,cs),
(310,353,o),
(305,341,o),
(270,339,cs)
);
}
);
width = 506;
},
{
anchors = (
{
name = bottom;
pos = (215,0);
},
{
name = ogonek;
pos = (353,21);
},
{
name = top;
pos = (295,500);
}
);
hints = (
{
horizontal = 1;
place = (-10,75);
type = Stem;
},
{
horizontal = 1;
place = (215,65);
type = Stem;
},
{
horizontal = 1;
place = (440,70);
type = Stem;
},
{
place = (0,100);
type = Stem;
},
{
place = (285,100);
type = Stem;
}
);
layerId = m003;
shapes = (
{
closed = 1;
nodes = (
(273,-7,o),
(329,11,o),
(353,21,c),
(359,24,o),
(367,28,o),
(364,52,cs),
(363,71,o),
(346,90,o),
(329,84,cs),
(308,77,o),
(270,48,o),
(223,48,cs),
(129,48,o),
(111,119,o),
(123,208,cs),
(126,220,o),
(133,228,o),
(146,228,cs),
(244,228,o),
(420,233,o),
(440,352,cs),
(448,404,o),
(436,507,o),
(297,507,cs),
(145,507,o),
(77,354,o),
(60,250,cs),
(56,225,ls),
(40,122,o),
(60,-7,o),
(213,-7,cs)
);
},
{
closed = 1;
nodes = (
(143,278,o),
(136,286,o),
(137,298,cs),
(153,381,o),
(194,457,o),
(288,457,cs),
(349,457,o),
(365,402,o),
(359,350,cs),
(351,299,o),
(299,279,o),
(156,278,cs)
);
}
);
width = 484;
}
);
metricLeft = "=o";
metricRight = "=o";
note = e;
unicode = 101;
}
{
glyphname = f;
kernLeft = KO_f;
kernRight = KO_f;
layers = (
{
hints = (
{
horizontal = 1;
place = (0,21);
target = up;
type = BottomGhost;
},
{
horizontal = 1;
place = (435,65);
type = Stem;
},
{
horizontal = 1;
place = (640,61);
type = Stem;
},
{
place = (24,95.5);
type = Stem;
}
);
layerId = m005;
shapes = (
{
closed = 1;
nodes = (
(73,-10,cs),
(104,-10,o),
(137,8,o),
(140,39,cs),
(150,163,o),
(172,296,o),
(191,420,cs),
(192,426,o),
(197,430,o),
(203,430,cs),
(225,429,o),
(246,425,o),
(268,425,cs),
(290,425,o),
(305,442,o),
(308,464,cs),
(312,488,o),
(303,505,o),
(281,505,cs),
(259,505,o),
(236,501,o),
(214,500,cs),
(208,500,o),
(205,504,o),
(206,511,cs),
(220,598,o),
(225,640,o),
(277,640,cs),
(298,640,o),
(295,629,o),
(305,627,cs),
(324,622,o),
(350,638,o),
(361,659,cs),
(371,679,o),
(356,695,o),
(338,701,cs),
(317,707,o),
(294,710,o),
(268,710,cs),
(142,710,o),
(123,616,o),
(106,510,cs),
(105,504,o),
(100,500,o),
(94,500,cs),
(56,500,o),
(42,488,o),
(38,464,cs),
(35,442,o),
(50,430,o),
(83,430,cs),
(89,430,o),
(92,427,o),
(91,420,cs),
(72,296,o),
(50,163,o),
(20,39,cs),
(13,8,o),
(40,-10,o)
);
}
);
width = 290;
},
{
hints = (
{
horizontal = 1;
place = (0,21);
target = up;
type = BottomGhost;
},
{
horizontal = 1;
place = (435,65);
type = Stem;
},
{
horizontal = 1;
place = (640,61);
type = Stem;
},
{
place = (24,95.5);
type = Stem;
}
);
layerId = m002;
shapes = (
{
closed = 1;
nodes = (
(101,-25,cs),
(160,-25,o),
(221,16,o),
(226,78,cs),
(236,200,o),
(234,191,o),
(255,315,cs),
(256,327,o),
(259,342,o),
(267,341,cs),
(277,340,o),
(277,340,o),
(285,340,cs),
(335,340,o),
(374,379,o),
(383,429,cs),
(391,481,o),
(361,514,o),
(312,514,cs),
(312,514,o),
(302,514,o),
(295,515,cs),
(291,516,o),
(287,519,o),
(288,526,cs),
(289,528,o),
(289,531,o),
(289,531,cs),
(290,536,o),
(297,543,o),
(311,543,cs),
(356,543,o),
(407,563,o),
(429,608,cs),
(454,655,o),
(429,700,o),
(383,714,cs),
(360,721,o),
(329,725,o),
(300,725,cs),
(126,725,o),
(97,582,o),
(91,545,cs),
(89,533,o),
(87,520,o),
(76,515,cs),
(59,507,o),
(20,479,o),
(13,429,cs),
(5,381,o),
(38,350,o),
(49,345,cs),
(57,341,o),
(55,324,o),
(55,315,cs),
(34,191,o),
(36,200,o),
(6,78,cs),
(-7,16,o),
(40,-25,o)
);
}
);
width = 393;
},
{
hints = (
{
horizontal = 1;
place = (0,21);
target = up;
type = BottomGhost;
},
{
horizontal = 1;
place = (435,65);
type = Stem;
},
{
horizontal = 1;
place = (640,61);
type = Stem;
},
{
place = (24,95.5);
type = Stem;
}
);
layerId = m003;
shapes = (
{
closed = 1;
nodes = (
(74,-7,cs),
(102,-7,o),
(127,6,o),
(129,31,cs),
(139,156,o),
(163,308,o),
(183,432,cs),
(185,444,o),
(195,452,o),
(207,452,cs),
(229,451,o),
(251,447,o),
(272,447,cs),
(289,447,o),
(297,457,o),
(300,476,cs),
(303,497,o),
(298,507,o),
(281,507,cs),
(260,507,o),
(238,503,o),
(214,502,cs),
(202,502,o),
(196,510,o),
(198,523,cs),
(211,610,o),
(217,657,o),
(279,657,cs),
(302,657,o),
(307,645,o),
(310,644,cs),
(325,640,o),
(344,651,o),
(353,669,cs),
(360,683,o),
(351,693,o),
(334,698,cs),
(314,704,o),
(292,707,o),
(267,707,cs),
(151,707,o),
(134,628,o),
(118,522,cs),
(116,510,o),
(106,502,o),
(94,502,cs),
(60,502,o),
(53,496,o),
(50,476,cs),
(47,459,o),
(57,452,o),
(87,452,cs),
(99,452,o),
(105,445,o),
(103,432,cs),
(83,308,o),
(59,156,o),
(29,31,cs),
(23,6,o),
(44,-7,o)
);
}
);
width = 290;
}
);
note = f;
unicode = 102;
userData = {
KernOnName = f;
};
}
